<svg xmlns="http://www.w3.org/2000/svg" width="600.4" height="600.4" viewBox="-50 -30 600.4 600.4"><path d="M 250.19996,-29.8 C 415.88541,-29.8 550.2,104.51446 550.2,270.19993 550.2,435.88538 415.88541,570.2 250.19996,570.2 84.514593,570.2 -49.8,435.88538 -49.8,270.19993 -49.8,104.51446 84.514593,-29.8 250.19996,-29.8 Z"/><path d="m 250.19982,562.99398 c 161.70576,0 292.79416,-131.08825 292.79416,-292.79401 0,-161.70569 -131.0884,-292.79417 -292.79416,-292.79417 -161.705696,0 -292.794019,131.08848 -292.794019,292.79417 0,161.70576 131.088323,292.79401 292.794019,292.79401 z" fill="#faee33"/><path d="M -6.5838669e-7,0 -2.0930007,0.898 c 0,0 1.49400004,7.775 -8.8220023,8.823 0,0 0,-3.355 1.5780023,-6.025 -1.4510023,0.523 -3.0610023,1.352 -3.5220023,2.586 -0.899,2.391 1.193,6.432 -6.735,10.171 0,0 -1.61,-1.981 0.241,-6.732 -1.631,1.101 -3.623,2.53 -4.127,3.291 -0.898,1.347 4.035,9.425 -4.939,13.762 0,0 -1.488,-2.115 -0.616,-7.362 -1.482,2.013 -3.298,4.725 -3.122,5.714 0.302,1.648 3.89,6.88 -1.195,12.863 0,0 -1.956,-1.564 -3.188,-5.909 -0.443,1.345 -0.979,3.254 -0.699,3.814 0.447,0.9 5.384,4.637 2.542,12.565 0,0 -2.464,-0.902 -3.903,-4.823 -0.235,1.67 -0.442,3.534 -0.287,4.074 0,0 5.385,2.692 4.64,10.918 0,0 -2.103,0.248 -4.962,-2.634 -0.005,1.537 0.045,3.611 0.322,3.981 0.448,0.598 5.687,1.047 7.628,9.125 0,0 -1.047,1.642 -7.18,-2.696 0,0 0.062,0.295 0.123,0.771 0.285,-0.063 0.584,-0.063 0.775,0.128 0.45,0.449 1.947,4.637 1.947,4.637 0,0 6.282,-0.299 9.121,6.73 0,0 -2.227,0.991 -5,-0.75 l 1.042,1.044 c 10.053,3.014 7.038,11.056 7.038,11.056 -9.548,-3.352 -8.21,-8.715 -8.21,-9.719 0,-0.4 -0.27,-0.969 -0.593,-1.497 0.022,1.576 -0.217,4.069 -1.757,5.699 0,0 -4.335,-1.646 -2.24,-10.619 0,0 -1.209,-1.681 -2.056,-3.599 -0.189,1.905 -0.915,3.912 -3.029,4.496 0,0 -3.289,-7.179 0.152,-12.712 0,0 -0.195,-2.092 -0.242,-4.006 -0.843,1.328 -2.176,2.705 -4.249,3.257 0,0 -3.289,-11.067 3.891,-12.861 0,0 0.198,-1.832 0.495,-3.771 -1.146,1.212 -2.816,2.394 -5.134,2.723 0,0 -2.541,-7.477 7.179,-12.416 0,0 0.331,-1.078 0.67,-2.341 -1.07,0.735 -2.689,1.553 -5.006,2.043 0,0 -3.442,-6.729 8.974,-10.917 0,0 1.771,-2.495 3.19,-4.615 -1.419,0.468 -3.529,0.932 -6.63,1.177 0,0 1.944,-9.274 13.161,-8.826 0,0 2.165,-1.698 4.079,-3.151 -1.57,-0.041 -3.789,-0.418 -5.725,-1.936 0,0 2.694,-4.632 9.873,-3.436 3.581,0.596 5.975,0.037 7.4670023,-0.672 C -11.114003,2.442 -15.872003,2.444 -18.542003,0 c 0,0 4.485,-2.693 11.9660023,-0.597 1.939,0.894 5.68000004,-1.496 5.68000004,-1.496 0,0 -4.04100004,0.897 -8.52800004,-1.497 0,0 3.442,-3.738 8.82500004,-2.988 C 4.7879993,-5.832 9.2739993,-0.15 10.168997,0.75 10.168997,0.75 4.4839993,4.34 -6.5838667e-7,0" fill="#31823f" transform="matrix(4.5036929,0,0,-4.5036929,201.07281,494.68388)"/><path d="M -1.390633e-8,0 H -0.00400001 C -4.619,0 -7.472,3.043 -7.59,3.171 l -0.215,0.233 0.281,0.153 c 3.056,1.629 5.892,1.756 7.43599999,1.668 C -1.022,5.698 -2.4,6.285 -3.531,6.285 -3.893,6.285 -4.208,6.223 -4.462,6.104 -6.41,5.555 -8.3,5.285 -10.112,5.285 c -4.115,0 -6.45,1.373 -6.546,1.429 l -0.283,0.172 0.244,0.224 c 2.149,1.964 5.548,2.408 8.085,2.426 -1.677,0.46 -3.695,0.51 -5.936,0.14 -0.8,-0.137 -1.58,-0.204 -2.328,-0.204 -5.548,0 -7.708,3.608 -7.798,3.762 l -0.107,0.186 0.171,0.136 c 1.73,1.352 3.679,1.818 5.194,1.947 -1.55,1.179 -3.13,2.416 -3.481,2.688 -11.208,-0.394 -13.301,8.933 -13.322,9.025 l -0.066,0.324 0.329,-0.026 c 2.354,-0.184 4.375,-0.513 6.015,-0.98 -1.182,1.751 -2.49,3.598 -2.751,3.966 -4.873,1.654 -7.917,3.899 -9.042,6.661 -1.022,2.514 -0.035,4.496 0.003,4.576 l 0.086,0.168 0.19,-0.039 c 1.721,-0.363 3.247,-0.944 4.544,-1.727 -0.213,0.756 -0.398,1.379 -0.466,1.614 -9.69,4.975 -7.232,12.587 -7.207,12.665 l 0.066,0.194 0.203,-0.028 c 1.783,-0.255 3.377,-1.019 4.744,-2.271 -0.186,1.298 -0.323,2.454 -0.37,2.875 -1.58,0.434 -2.777,1.351 -3.56,2.728 -2.229,3.909 -0.416,10.138 -0.339,10.402 l 0.066,0.229 0.235,-0.061 c 1.581,-0.422 2.909,-1.343 3.964,-2.741 0.059,1.45 0.175,2.842 0.207,3.189 -3.4,5.574 -0.155,12.804 -0.122,12.874 l 0.087,0.194 0.204,-0.057 c 1.638,-0.451 2.697,-1.786 3.093,-3.881 0.68,1.362 1.433,2.477 1.659,2.796 -2.06,8.987 2.236,10.73 2.42,10.799 l 0.158,0.06 0.114,-0.121 c 1.276,-1.36 1.703,-3.264 1.799,-4.882 0.092,0.238 0.118,0.402 0.118,0.512 0,0.078 -0.009,0.187 -0.017,0.321 -0.136,1.606 -0.536,6.499 8.393,9.631 l 0.227,0.08 0.089,-0.226 c 0.043,-0.132 1.179,-3.238 -0.373,-6.369 -1.02,-2.06 -2.957,-3.625 -5.761,-4.659 0.391,0.08 0.786,0.118 1.18,0.118 1.048,0 1.715,-0.288 1.744,-0.301 l 0.217,-0.097 -0.089,-0.222 c -2.605,-6.438 -7.966,-6.874 -9.181,-6.887 -0.283,-0.792 -1.096,-3.011 -1.627,-4.055 2.093,1.324 3.762,2.015 4.885,2.015 0.822,0 1.085,-0.378 1.116,-0.42 l 0.053,-0.09 -0.025,-0.101 c -1.598,-6.644 -5.41,-8.232 -7.037,-8.91 -0.271,-0.113 -0.574,-0.24 -0.632,-0.305 -0.04,-0.056 -0.249,-0.481 -0.269,-3.244 2.762,2.562 4.739,2.294 4.739,2.294 l 0.197,-0.027 0.022,-0.197 c 0.694,-7.646 -3.899,-10.654 -4.666,-11.102 -0.044,-0.291 -0.054,-1.037 0.189,-2.959 1.474,3.258 3.596,4.067 3.696,4.101 l 0.232,0.086 0.088,-0.234 c 2.453,-6.844 -0.744,-10.589 -2.111,-12.187 -0.209,-0.247 -0.391,-0.461 -0.447,-0.571 -0.061,-0.122 -0.187,-0.674 0.475,-2.869 1.236,3.793 2.96,5.204 3.037,5.266 l 0.186,0.149 0.159,-0.182 c 4.289,-5.046 2.561,-9.523 1.636,-11.93 -0.191,-0.486 -0.336,-0.87 -0.386,-1.137 -0.053,-0.302 0.098,-1.349 2.487,-4.71 -0.547,4.56 0.746,6.459 0.807,6.544 l 0.12,0.17 0.192,-0.09 c 6.849,-3.312 5.77,-8.867 5.195,-11.851 -0.171,-0.891 -0.334,-1.736 -0.163,-1.996 0.345,-0.513 1.552,-1.497 3.427,-2.792 -1.452,4.312 -0.004,6.171 0.065,6.252 l 0.118,0.151 0.179,-0.084 c 6.186,-2.916 6.404,-6.106 6.565,-8.431 0.049,-0.722 0.092,-1.345 0.29,-1.876 0.373,-0.992 1.601,-1.718 2.756,-2.202 -1.274,2.568 -1.291,5.427 -1.291,5.556 v 0.274 l 0.273,-0.028 C -5.278,16.53 -2.686,15.318 -1.18,13.292 0.44499999,11.107 0.28599999,8.68 0.19299999,7.976 L 1.964,7.218 c 1.492,1.393 3.261,2.101 5.264,2.101 2.788,0 4.994,-1.377 5.087,-1.435 L 12.578,7.716 12.359,7.498 C 12.254,7.394 12.098,7.221 11.895,6.996 10.358,5.292 6.274,0.773 1.448,0.101 0.96499999,0.035 0.47799999,0 -1.3906366e-8,0 M -6.991,3.276 c 0.761,-0.704 3.319,-2.78 6.98699999,-2.78 0.465,0.008 0.925,0.032 1.38700001,0.097 4.647,0.644 8.641,5.069 10.145,6.735 0.095,0.111 0.184,0.203 0.265,0.288 C 11.135,7.967 9.332,8.822 7.228,8.822 5.303,8.822 3.61,8.123 2.184,6.75 l -0.117,-0.115 -2.42700001,1.04 0.041,0.196 c 0.001,0.028 0.499,2.771 -1.26099999,5.128 -1.382,1.856 -3.763,2.988 -7.068,3.372 0.04,-0.848 0.271,-3.479 1.536,-5.624 l 0.351,-0.588 -0.65,0.233 c -2.026,0.724 -3.259,1.643 -3.67,2.73 -0.225,0.599 -0.27,1.286 -0.322,2.014 -0.158,2.302 -0.351,5.159 -6.087,7.925 -0.301,-0.55 -1.095,-2.524 0.384,-6.324 L -16.82,16 l -0.654,0.444 c -2.361,1.585 -3.771,2.717 -4.199,3.356 -0.286,0.43 -0.136,1.199 0.088,2.363 0.588,3.021 1.561,8.059 -4.721,11.214 -0.307,-0.612 -1.176,-2.77 -0.474,-6.999 l 0.169,-1.02 -0.612,0.834 c -2.255,3.062 -3.317,5.05 -3.164,5.907 0.058,0.311 0.216,0.718 0.413,1.225 0.878,2.281 2.498,6.492 -1.388,11.235 -0.498,-0.503 -1.949,-2.178 -2.925,-5.622 l -0.223,-0.777 -0.254,0.768 c -1.063,3.248 -0.779,3.816 -0.685,4.005 0.084,0.164 0.265,0.375 0.515,0.67 1.292,1.513 4.294,5.032 2.106,11.442 -0.625,-0.333 -2.403,-1.504 -3.525,-4.569 l -0.341,-0.927 -0.138,0.976 c -0.485,3.458 -0.328,4.003 -0.278,4.179 l 0.029,0.105 0.097,0.048 c 0.052,0.027 5.129,2.677 4.519,10.456 -0.602,-0.029 -2.327,-0.322 -4.554,-2.568 l -0.422,-0.425 v 0.601 c -0.008,3.622 0.268,3.989 0.374,4.128 0.123,0.169 0.387,0.282 0.831,0.463 1.547,0.646 5.154,2.148 6.718,8.432 -0.09,0.055 -0.283,0.14 -0.633,0.14 -0.891,0 -2.679,-0.512 -6.129,-2.955 l -0.512,-0.363 0.125,0.617 c 0,0.004 0.061,0.289 0.12,0.748 l 0.036,0.27 0.263,-0.06 c 0.258,-0.057 0.447,-0.036 0.546,0.062 0.3,0.3 1.318,2.946 1.887,4.546 l 0.06,0.173 0.283,-0.01 c 1.011,0 6.117,0.31 8.684,6.336 -0.258,0.077 -0.716,0.18 -1.312,0.18 -1.092,0 -2.176,-0.332 -3.224,-0.99 l -1.861,-1.167 2.634,2.634 0.06,0.019 c 3.251,0.976 5.444,2.577 6.53,4.761 1.222,2.469 0.648,4.98 0.424,5.743 -8.323,-3.01 -7.95,-7.538 -7.827,-9.039 0.013,-0.151 0.022,-0.272 0.022,-0.361 0,-0.397 -0.206,-0.93 -0.627,-1.628 l -0.475,-0.779 0.011,0.912 c 0.024,1.629 -0.229,3.863 -1.563,5.39 -0.711,-0.398 -3.735,-2.582 -1.944,-10.256 l 0.027,-0.11 -0.068,-0.09 c -0.01,-0.02 -1.202,-1.684 -2.025,-3.556 l -0.38,-0.866 -0.093,0.939 c -0.228,2.285 -1.119,3.705 -2.647,4.219 -0.484,-1.183 -2.793,-7.427 0.221,-12.277 l 0.042,-0.071 -0.006,-0.083 c -0.002,-0.019 -0.191,-2.104 -0.241,-3.99 l -0.021,-0.812 -0.433,0.688 c -0.994,1.562 -2.292,2.6 -3.865,3.082 -0.309,-1.179 -1.532,-6.469 0.355,-9.779 0.745,-1.302 1.893,-2.155 3.422,-2.536 l 0.165,-0.042 0.019,-0.172 c 0.001,-0.019 0.203,-1.85 0.494,-3.76 l 0.119,-0.785 -0.545,0.578 c -1.35,1.428 -2.954,2.31 -4.773,2.616 -0.329,-1.219 -1.531,-7.524 7.114,-11.916 l 0.094,-0.047 0.031,-0.1 c 0.002,-0.01 0.334,-1.096 0.672,-2.352 l 0.176,-0.65 -0.557,0.381 c -1.306,0.895 -2.894,1.557 -4.718,1.965 -0.201,-0.514 -0.685,-2.109 0.091,-4.002 1.08,-2.636 4.045,-4.786 8.814,-6.395 l 0.078,-0.028 0.045,-0.066 c 0.017,-0.022 1.793,-2.524 3.193,-4.621 l 0.399,-0.595 -0.684,0.221 c -1.637,0.541 -3.731,0.924 -6.226,1.137 0.462,-1.641 3.014,-8.692 12.829,-8.303 l 0.087,0.006 0.076,-0.059 c 0.021,-0.012 2.184,-1.712 4.074,-3.145 l 0.562,-0.428 -0.707,-0.019 c -1.448,-0.038 -3.54,-0.373 -5.391,-1.743 0.511,-0.718 2.693,-3.332 7.245,-3.332 0.718,0 1.472,0.064 2.246,0.193 3.004,0.5 5.612,0.262 7.619,-0.69 l 1.159,-0.549 -1.282,0.078 c -0.43,0.027 -0.87,0.042 -1.311,0.042 -2.363,0 -5.555,-0.367 -7.647,-2.064 0.754,-0.36 2.851,-1.2 5.98,-1.2 1.767,0 3.612,0.266 5.479,0.791 0.284,0.133 0.67,0.209 1.102,0.209 2.046,0 4.667,-1.667 4.781,-1.737 L 2.421,4.292 1.064,4.588 C 1.049,4.594 -2.708,5.428 -6.991,3.276" transform="matrix(4.5036929,0,0,-4.5036929,192.00237,525.88096)"/><path d="M -6.3950742e-7,0 2.0939994,0.898 c 0,0 -1.49700004,7.775 8.8259976,8.823 0,0 -0.002,-3.355 -1.5809976,-6.025 1.4539976,0.523 3.0609976,1.352 3.5249976,2.586 0.897,2.391 -1.198,6.432 6.73,10.171 0,0 1.606,-1.981 -0.242,-6.732 1.633,1.101 3.622,2.53 4.131,3.291 0.897,1.347 -4.042,9.425 4.933,13.762 0,0 1.491,-2.115 0.621,-7.362 1.479,2.013 3.299,4.725 3.118,5.714 -0.296,1.648 -3.888,6.88 1.198,12.863 0,0 1.956,-1.564 3.189,-5.909 0.44,1.345 0.98,3.254 0.699,3.814 -0.447,0.9 -5.382,4.637 -2.542,12.565 0,0 2.463,-0.902 3.902,-4.823 0.235,1.67 0.439,3.534 0.285,4.074 0,0 -5.383,2.692 -4.637,10.918 0,0 2.105,0.248 4.963,-2.634 0.002,1.537 -0.052,3.611 -0.326,3.981 -0.449,0.598 -5.682,1.047 -7.627,9.125 0,0 1.05,1.642 7.178,-2.696 0,0 -0.062,0.295 -0.123,0.771 -0.281,-0.063 -0.58,-0.063 -0.772,0.128 -0.451,0.449 -1.946,4.637 -1.946,4.637 0,0 -6.28,-0.299 -9.125,6.73 0,0 2.232,0.991 4.999,-0.75 l -1.038,1.044 c -10.053,3.014 -7.039,11.056 -7.039,11.056 9.55,-3.352 8.214,-8.715 8.214,-9.719 0,-0.4 0.266,-0.969 0.591,-1.497 -0.021,1.576 0.219,4.069 1.75,5.699 0,0 4.343,-1.646 2.247,-10.619 0,0 1.208,-1.681 2.051,-3.599 0.191,1.905 0.914,3.912 3.034,4.496 0,0 3.29,-7.179 -0.149,-12.712 0,0 0.19,-2.092 0.241,-4.006 0.838,1.328 2.177,2.705 4.246,3.257 0,0 3.292,-11.067 -3.891,-12.861 0,0 -0.199,-1.832 -0.491,-3.771 1.141,1.212 2.814,2.394 5.128,2.723 0,0 2.546,-7.477 -7.179,-12.416 0,0 -0.33,-1.078 -0.668,-2.341 1.071,0.735 2.689,1.553 5.005,2.043 0,0 3.439,-6.729 -8.974,-10.917 0,0 -1.77,-2.495 -3.188,-4.615 1.418,0.468 3.528,0.932 6.629,1.177 0,0 -1.943,-9.274 -13.163,-8.826 0,0 -2.161,-1.698 -4.076,-3.151 1.569,-0.041 3.788,-0.418 5.721,-1.936 0,0 -2.689,-4.632 -9.869,-3.436 -3.585,0.596 -5.972,0.037 -7.4689976,-0.672 C 11.114997,2.442 15.871997,2.444 18.544997,0 c 0,0 -4.485,-2.693 -11.9639976,-0.597 -1.944,0.894 -5.68500004,-1.496 -5.68500004,-1.496 0,0 4.04000004,0.897 8.52600004,-1.497 0,0 -3.437,-3.738 -8.82500004,-2.988 -5.38299996,0.746 -9.86699996,6.428 -10.76500236,7.328 0,0 5.6800024,3.59 10.16800236049258,-0.75" fill="#31823f" transform="matrix(4.5036929,0,0,-4.5036929,299.32538,494.68388)"/><path d="M -3.0988302e-7,0 C -0.48200031,0 -0.97400031,0.035 -1.4520003,0.101 -6.2810003,0.773 -10.362,5.292 -11.902,6.996 c -0.2,0.225 -0.356,0.398 -0.461,0.502 l -0.22,0.218 0.261,0.168 c 0.095,0.058 2.302,1.435 5.0919997,1.435 2.001,0 3.771,-0.708 5.264,-2.101 l 1.76899999,0.758 c -0.093,0.704 -0.25,3.131 1.37300001,5.316 1.507,2.026 4.098,3.238 7.699,3.603 l 0.273,0.028 v -0.274 c 0,-0.129 -0.018,-2.988 -1.293,-5.556 1.154,0.484 2.3850003,1.21 2.7570003,2.202 0.201,0.531 0.242,1.156 0.29,1.876 0.163,2.325 0.38,5.515 6.568,8.431 l 0.176,0.084 0.123,-0.151 c 0.066,-0.081 1.512,-1.94 0.059,-6.252 1.879,1.295 3.086,2.279 3.429,2.792 0.173,0.26 0.011,1.105 -0.163,1.996 -0.577,2.984 -1.651,8.539 5.199,11.851 l 0.188,0.09 0.121,-0.17 c 0.055,-0.085 1.353,-1.984 0.805,-6.544 2.389,3.361 2.539,4.408 2.482,4.71 -0.04,0.267 -0.192,0.651 -0.38,1.137 -0.925,2.407 -2.651,6.884 1.635,11.93 l 0.158,0.182 0.185,-0.148 c 0.079,-0.063 1.803,-1.474 3.04,-5.267 0.664,2.197 0.536,2.747 0.473,2.869 -0.051,0.11 -0.236,0.324 -0.442,0.571 -1.368,1.598 -4.563,5.343 -2.108,12.187 l 0.081,0.234 0.233,-0.086 c 0.098,-0.034 2.219,-0.844 3.694,-4.101 0.243,1.92 0.238,2.668 0.192,2.959 -0.772,0.448 -5.361,3.456 -4.663,11.102 l 0.014,0.197 0.202,0.027 c 0,0 1.982,0.268 4.738,-2.294 -0.023,2.763 -0.227,3.188 -0.271,3.246 -0.052,0.063 -0.359,0.19 -0.63,0.303 -1.626,0.678 -5.439,2.266 -7.041,8.91 l -0.022,0.101 0.053,0.09 c 0.031,0.042 0.293,0.42 1.119,0.42 1.118,0 2.79,-0.691 4.886,-2.015 -0.534,1.044 -1.346,3.263 -1.63,4.055 -1.214,0.013 -6.579,0.449 -9.178,6.887 l -0.092,0.222 0.218,0.097 c 0.032,0.013 0.694,0.301 1.745,0.301 0.392,0 0.789,-0.038 1.177,-0.118 -2.8,1.033 -4.738,2.599 -5.76,4.659 -1.556,3.131 -0.421,6.237 -0.368,6.369 l 0.082,0.226 0.228,-0.08 c 8.933,-3.132 8.53,-8.025 8.398,-9.631 -0.012,-0.134 -0.021,-0.243 -0.021,-0.321 0,-0.11 0.026,-0.274 0.117,-0.512 0.097,1.618 0.523,3.522 1.801,4.882 l 0.112,0.121 0.158,-0.06 c 0.185,-0.069 4.479,-1.812 2.422,-10.799 0.224,-0.319 0.977,-1.434 1.659,-2.796 0.396,2.095 1.456,3.43 3.093,3.881 l 0.204,0.057 0.086,-0.194 c 0.035,-0.07 3.278,-7.3 -0.119,-12.874 0.026,-0.347 0.147,-1.739 0.205,-3.189 1.049,1.4 2.383,2.319 3.966,2.741 l 0.232,0.061 0.067,-0.229 c 0.077,-0.264 1.891,-6.493 -0.338,-10.402 -0.785,-1.377 -1.983,-2.294 -3.566,-2.728 -0.04,-0.421 -0.181,-1.577 -0.365,-2.875 1.369,1.252 2.962,2.016 4.743,2.271 l 0.203,0.028 0.064,-0.194 c 0.027,-0.078 2.484,-7.69 -7.204,-12.665 -0.073,-0.235 -0.255,-0.858 -0.468,-1.614 1.298,0.783 2.824,1.364 4.548,1.727 l 0.185,0.039 0.086,-0.168 c 0.047,-0.08 1.024,-2.062 0.002,-4.576 -1.121,-2.762 -4.164,-5.007 -9.04,-6.661 -0.261,-0.368 -1.569,-2.215 -2.752,-3.966 1.645,0.467 3.657,0.796 6.019,0.98 l 0.329,0.026 -0.072,-0.324 C 36.194,27.128 34.193,18.183 23.59,18.181 h -0.002 c -0.231,0 -0.458,0.004 -0.7,0.01 -0.349,-0.272 -1.926,-1.509 -3.474,-2.688 1.513,-0.129 3.46,-0.595 5.194,-1.947 l 0.169,-0.136 -0.108,-0.186 c -0.09,-0.154 -2.248,-3.762 -7.796,-3.762 -0.751,0 -1.531,0.067 -2.33,0.204 -2.241,0.37 -4.259,0.32 -5.9350003,-0.14 C 11.144,9.518 14.543,9.074 16.693,7.11 L 16.94,6.886 16.654,6.714 C 16.558,6.658 14.223,5.285 10.108,5.285 c -1.8130003,0 -3.7030003,0.27 -5.6130003,0.806 -0.291,0.132 -0.607,0.194 -0.964,0.194 -1.136,0 -2.514,-0.587 -3.44700001,-1.06 C 1.6279997,5.313 4.4669997,5.186 7.5199997,3.557 l 0.284,-0.153 -0.217,-0.233 C 7.4689997,3.043 4.6169997,0 -3.0988307e-7,0 M -11.793,7.616 c 0.077,-0.085 0.162,-0.18 0.261,-0.288 C -10.028,5.662 -6.0340003,1.237 -1.3870003,0.593 -0.92600031,0.528 -0.46100031,0.496 -3.0988307e-7,0.496 3.6719997,0.496 6.2279997,2.572 6.9869997,3.276 c -4.284,2.152 -8.038,1.318 -8.055,1.312 l -1.359,-0.296 1.172,0.75 c 0.11,0.07 2.738,1.737 4.786,1.737 0.431,0 0.815,-0.076 1.137,-0.225 1.83,-0.509 3.672,-0.775 5.4400003,-0.775 3.141,0 5.23,0.84 5.979,1.199 -2.09,1.697 -5.286,2.065 -7.6460003,2.065 -0.438,0 -0.882,-0.015 -1.31,-0.042 l -1.284,-0.078 1.159,0.549 c 2.01,0.952 4.6160003,1.19 7.6170003,0.69 0.777,-0.129 1.53,-0.193 2.25,-0.193 4.555,0 6.734,2.614 7.245,3.332 -1.849,1.37 -3.945,1.705 -5.396,1.743 l -0.703,0.019 0.56,0.428 c 1.892,1.433 4.06,3.133 4.076,3.145 l 0.07,0.059 0.092,-0.006 c 0.265,-0.01 0.518,-0.014 0.771,-0.014 h 0.002 c 9.057,0 11.582,6.74 12.052,8.317 -2.495,-0.213 -4.584,-0.596 -6.221,-1.137 l -0.685,-0.221 0.399,0.595 c 1.399,2.097 3.177,4.599 3.196,4.621 l 0.042,0.066 0.079,0.028 c 4.778,1.609 7.743,3.764 8.819,6.405 0.771,1.898 0.289,3.481 0.088,3.992 -1.827,-0.408 -3.416,-1.07 -4.724,-1.965 l -0.551,-0.381 0.172,0.65 c 0.342,1.256 0.671,2.342 0.676,2.352 l 0.03,0.1 0.093,0.047 c 8.648,4.392 7.441,10.697 7.115,11.916 -1.82,-0.306 -3.428,-1.188 -4.777,-2.616 l -0.542,-0.578 0.118,0.785 c 0.292,1.91 0.491,3.741 0.494,3.76 l 0.021,0.172 0.168,0.042 c 1.527,0.381 2.673,1.235 3.419,2.536 1.885,3.313 0.665,8.6 0.353,9.779 -1.572,-0.482 -2.87,-1.52 -3.862,-3.082 l -0.438,-0.688 -0.021,0.812 c -0.048,1.886 -0.235,3.971 -0.238,3.99 l -0.008,0.083 0.041,0.071 c 3.021,4.853 0.709,11.094 0.222,12.277 -1.526,-0.512 -2.419,-1.934 -2.647,-4.219 l -0.09,-0.936 -0.382,0.863 c -0.824,1.872 -2.013,3.536 -2.026,3.556 l -0.068,0.09 0.025,0.11 c 1.793,7.671 -1.225,9.856 -1.94,10.256 -1.334,-1.527 -1.589,-3.761 -1.566,-5.39 l 0.015,-0.91 -0.474,0.777 c -0.423,0.698 -0.63,1.231 -0.63,1.628 0,0.089 0.013,0.21 0.022,0.361 0.124,1.501 0.496,6.029 -7.827,9.039 -0.218,-0.765 -0.794,-3.284 0.43,-5.751 1.084,-2.181 3.278,-3.777 6.52,-4.753 l 0.066,-0.019 2.631,-2.634 -1.856,1.167 c -1.047,0.658 -2.136,0.99 -3.225,0.99 -0.6,0 -1.056,-0.103 -1.312,-0.18 2.564,-6.026 7.671,-6.336 8.679,-6.336 l 0.286,0.01 0.057,-0.173 c 0.574,-1.6 1.59,-4.246 1.891,-4.546 0.097,-0.098 0.287,-0.119 0.545,-0.062 l 0.264,0.06 0.033,-0.27 c 0.059,-0.459 0.118,-0.744 0.123,-0.748 l 0.127,-0.617 -0.513,0.363 c -3.448,2.443 -5.237,2.955 -6.129,2.955 -0.35,0 -0.542,-0.085 -0.632,-0.142 1.558,-6.282 5.168,-7.784 6.712,-8.43 0.443,-0.181 0.709,-0.294 0.839,-0.463 0.1,-0.139 0.377,-0.506 0.372,-4.128 V 62.32 l -0.425,0.425 c -2.224,2.246 -3.953,2.539 -4.556,2.568 -0.608,-7.779 4.468,-10.429 4.521,-10.456 l 0.097,-0.048 0.03,-0.105 c 0.053,-0.178 0.206,-0.723 -0.281,-4.179 l -0.136,-0.976 -0.34,0.927 c -1.125,3.065 -2.899,4.236 -3.525,4.569 -2.187,-6.41 0.811,-9.929 2.106,-11.442 0.253,-0.295 0.432,-0.506 0.513,-0.67 0.093,-0.188 0.381,-0.757 -0.687,-4.005 l -0.252,-0.768 -0.221,0.779 c -0.977,3.442 -2.424,5.117 -2.924,5.62 -3.889,-4.743 -2.264,-8.954 -1.389,-11.235 0.196,-0.507 0.354,-0.914 0.412,-1.225 0.151,-0.857 -0.911,-2.844 -3.164,-5.907 l -0.61,-0.834 0.167,1.02 c 0.699,4.226 -0.165,6.387 -0.477,6.996 C 20.02,30.222 20.992,25.184 21.58,22.163 21.804,20.999 21.953,20.23 21.668,19.8 21.243,19.161 19.829,18.029 17.47,16.444 L 16.819,16 l 0.285,0.737 c 1.475,3.798 0.684,5.772 0.379,6.324 -5.729,-2.763 -5.927,-5.623 -6.084,-7.925 -0.05,-0.728 -0.098,-1.415 -0.321,-2.014 -0.409,-1.087 -1.6460003,-2.006 -3.6760003,-2.73 l -0.642,-0.233 0.348,0.588 c 1.268,2.148 1.495,4.778 1.536,5.624 -3.304,-0.384 -5.683,-1.516 -7.069,-3.372 -1.76000001,-2.357 -1.26500001,-5.1 -1.25600001,-5.128 l 0.038,-0.196 -2.42799999,-1.04 -0.117,0.115 c -1.426,1.373 -3.122,2.072 -5.042,2.072 -2.107,0 -3.9059997,-0.855 -4.5629997,-1.206" transform="matrix(4.5036929,0,0,-4.5036929,308.41831,525.88096)"/><path d="M 0,0 C 0,0.835 0.167,2.177 0.167,2.177 H -4.859 L -6.704,5.862 -7.318,7.035 -7.877,5.862 -9.722,2.177 h -5.023 c 0,0 0.166,-1.342 0.166,-2.177 0,-0.842 0.839,-2.848 2.68,-4.024 0,0 -2.344,-1.84 -1.339,-6.199 0,0 2.01,-0.839 4.188,0.502 0,0 0.166,-2.679 1.173,-3.183 0.559,-0.336 1.173,0 1.173,0 1.005,0.504 1.174,3.183 1.174,3.183 2.179,-1.341 4.187,-0.502 4.187,-0.502 1.008,4.359 -1.338,6.199 -1.338,6.199 C -0.838,-2.848 0,-0.842 0,0 m -12.053,0.301 c 0,0 1.402,-0.177 2.981,-1.757 l -1.346,-1.346 c 0,0 -1.765,1.396 -1.635,3.103 m 0.309,-8.96 c 0,0 0.176,1.404 1.757,2.985 l 1.347,-1.348 c 0,0 -1.397,-1.762 -3.104,-1.637 m 4.677,11.282 c 1.298,-1.118 1.04,-3.352 1.04,-3.352 h -1.905 c 0,2.236 0.865,3.352 0.865,3.352 m 0.196,-13.18 c -1.301,1.115 -1.038,3.352 -1.038,3.352 h 1.903 c 0,-2.237 -0.865,-3.352 -0.865,-3.352 m 4.84,1.898 c -1.706,-0.125 -3.101,1.637 -3.101,1.637 l 1.345,1.348 c 1.581,-1.581 1.756,-2.985 1.756,-2.985 m -1.324,5.857 -1.348,1.346 c 1.582,1.58 2.983,1.757 2.983,1.757 0.128,-1.707 -1.635,-3.103 -1.635,-3.103" fill="#31823f" transform="matrix(4.5036929,0,0,-4.5036929,285.53504,477.14199)"/><path d="M 0,0 C -0.247,0 -0.475,0.063 -0.681,0.187 -1.554,0.62 -1.845,2.365 -1.936,3.175 -2.702,2.776 -3.516,2.572 -4.371,2.572 c -0.96,0 -1.611,0.263 -1.639,0.278 l -0.117,0.048 -0.03,0.127 c -0.842,3.649 0.588,5.593 1.189,6.219 -1.79,1.273 -2.535,3.239 -2.535,4.056 0,0.81 -0.163,2.134 -0.167,2.146 l -0.031,0.278 h 5.15 l 2.545,5.165 0.848,-1.612 1.775,-3.553 H 7.772 L 7.74,15.446 C 7.737,15.434 7.572,14.11 7.572,13.3 7.572,12.483 6.823,10.517 5.04,9.244 5.637,8.618 7.065,6.674 6.226,3.025 L 6.198,2.898 6.079,2.85 C 6.051,2.835 5.404,2.572 4.436,2.572 3.588,2.572 2.766,2.776 2.008,3.175 1.916,2.364 1.621,0.62 0.733,0.175 0.727,0.173 0.406,0 0,0 m -1.504,4.005 0.026,-0.408 c 0.044,-0.708 0.319,-2.619 1.039,-2.979 0.393,-0.234 0.938,-0.004 0.942,-0.004 0.649,0.325 0.983,2 1.043,2.983 L 1.571,4.005 1.925,3.791 C 2.706,3.312 3.553,3.067 4.436,3.067 c 0.638,0 1.126,0.13 1.335,0.2 0.881,4.04 -1.193,5.744 -1.279,5.818 L 4.219,9.299 4.514,9.487 c 1.789,1.14 2.56,3.076 2.56,3.813 0,0.617 0.089,1.489 0.137,1.928 H 2.31 l -2.294,4.554 -0.344,-0.727 -1.915,-3.827 h -4.901 c 0.049,-0.439 0.137,-1.311 0.137,-1.928 0,-0.737 0.776,-2.673 2.565,-3.813 L -4.148,9.301 -4.419,9.085 C -4.508,9.011 -6.583,7.307 -5.703,3.267 c 0.214,-0.07 0.7,-0.2 1.332,-0.2 0.889,0 1.736,0.245 2.513,0.724 z M 0.49,2.387 0.293,2.557 c -1.385,1.19 -1.137,3.471 -1.128,3.566 L -0.809,6.34 H 1.565 V 6.097 C 1.565,3.802 0.686,2.641 0.652,2.591 Z M -0.354,5.848 C -0.376,5.326 -0.346,3.988 0.406,3.136 0.63,3.539 1.024,4.449 1.065,5.848 Z M 5.117,4.389 c -1.728,0 -3.062,1.664 -3.12,1.736 L 1.858,6.298 3.538,7.974 3.711,7.8 C 5.333,6.177 5.535,4.734 5.539,4.674 L 5.571,4.416 5.311,4.399 5.117,4.389 M 2.53,6.267 C 2.885,5.88 3.851,4.957 4.987,4.887 4.855,5.331 4.496,6.252 3.536,7.271 Z m -6.773,-1.878 -0.195,0.01 -0.257,0.017 0.03,0.258 c 0.009,0.06 0.205,1.507 1.83,3.126 L -2.663,7.974 -0.984,6.298 -1.12,6.125 C -1.177,6.053 -2.515,4.389 -4.243,4.389 m 1.585,2.882 c -0.963,-1.019 -1.323,-1.94 -1.449,-2.384 1.138,0.07 2.098,0.993 2.454,1.38 z m -0.417,2.897 -0.174,0.137 c -0.075,0.06 -1.864,1.499 -1.728,3.319 l 0.022,0.255 0.26,-0.031 c 0.059,-0.005 1.502,-0.204 3.123,-1.829 l 0.175,-0.175 z m -1.409,3.124 c 0.069,-1.131 0.995,-2.098 1.378,-2.453 l 1.003,1.005 c -1.018,0.958 -1.937,1.322 -2.381,1.448 m 8.435,-3.124 -1.679,1.676 0.176,0.175 c 1.621,1.625 3.065,1.824 3.127,1.829 l 0.258,0.031 0.019,-0.255 C 5.989,11.804 4.199,10.365 4.124,10.305 Z m -0.973,1.676 1.003,-1.005 c 0.387,0.355 1.313,1.322 1.378,2.453 -0.44,-0.126 -1.362,-0.49 -2.381,-1.448 m -1.461,0.482 h -2.372 v 0.247 c 0,2.293 0.88,3.454 0.916,3.503 l 0.162,0.206 0.196,-0.17 c 1.383,-1.189 1.136,-3.473 1.123,-3.568 z m -1.871,0.494 h 1.419 c 0.023,0.523 -0.007,1.863 -0.76,2.71 -0.223,-0.402 -0.618,-1.31 -0.659,-2.71" transform="matrix(4.5036929,0,0,-4.5036929,252.55003,537.04561)"/><path d="M 0,0 C -1.02,2.148 -1.264,4.286 -1.264,4.286 L -0.953,4.259 C -0.655,3.935 -0.283,3.01 0.356,2.277 0.83,1.737 1.574,1.601 2.157,0.896 2.51,0.464 2.564,-0.427 2.943,-0.904 3.36,-1.437 4.22,-1.543 4.645,-2.122 5.008,-2.605 4.852,-3.54 5.202,-4.047 5.633,-4.67 6.461,-5.083 6.864,-5.721 c 1.219,-1.947 2.383,-3.016 2.919,-4.82 l 0.15,-0.252 c 0,1.899 -1.848,34.072 -1.848,34.072 -0.858,6.477 -7.134,4.242 -7.134,4.242 -1.845,-0.108 -2.704,-2.233 -3.935,-2.233 -1.23,0 -2.461,1.787 -2.953,2.794 -0.491,1.008 -0.491,2.345 -0.491,5.248 0,2.907 -1.603,3.685 -3.323,3.685 -1.721,0 -2.582,-1.675 -2.582,-1.675 -3.076,0.296 -2.707,-1.451 -2.707,-1.451 5.268,-0.764 3.813,-5.361 2.088,-6.814 -1.725,-1.451 -5.163,-0.337 -7.008,-0.223 -1.847,0.11 -4.183,-0.894 -4.676,-4.58 -0.49,-3.688 -0.249,-33.625 -0.249,-33.625 0.532,1.805 1.426,3.685 2.65,5.632 0.399,0.638 1.229,1.051 1.658,1.674 0.35,0.507 0.197,1.442 0.558,1.925 0.424,0.579 1.285,0.685 1.702,1.218 0.377,0.477 0.431,1.368 0.787,1.8 0.582,0.705 1.327,0.841 1.797,1.381 0.638,0.733 1.075,1.698 1.378,2.023 0.192,0.207 0.299,0.319 0.299,0.319 1.226,-3.573 -2.582,-8.265 -3.936,-9.937 -1.356,-1.677 -0.989,-6.257 -0.989,-6.257 l 24.612,0.669 c -0.494,3.797 -2.092,6.48 -2.834,7.485 -3.155,2.045 -3.933,6.806 -4.04,7.596" fill="#121617" fill-rule="evenodd" transform="matrix(4.5036929,0,0,-4.5036929,286.94469,356.47906)"/><path d="m 0,0 c 0,0 -1.528,-6.782 -9.438,-7.143 -7.906,-0.362 -9.606,5.708 -9.665,6.825 0,0 7.838,6.512 19.103,0.318" fill="#121617" fill-rule="evenodd" transform="matrix(4.5036929,0,0,-4.5036929,421.1503,340.56301)"/><path d="m 0,0 c 0,0 1.86,-6.702 9.762,-6.702 7.901,0 9.299,6.145 9.299,7.259 0,0 -8.137,6.147 -19.061,-0.557" fill="#121617" fill-rule="evenodd" transform="matrix(4.5036929,0,0,-4.5036929,77.599543,348.1112)"/><path d="m 0,0 c 0,0 -1.007,3.017 5.917,3.017 4.862,0 10.057,-0.502 14.409,0.502 4.361,1.004 6.872,2.011 9.719,2.011 v -6.365 c 0,0 -5.025,-2.179 -10.053,-1.341 C 14.965,-1.34 8.095,1.176 3.071,-0.167 L 0,0" fill="#121617" fill-rule="evenodd" transform="matrix(4.5036929,0,0,-4.5036929,107.94994,168.50844)"/><path d="m 0,0 c 0,0 0.862,3.061 -6.059,2.727 -4.852,-0.231 -10.017,-0.98 -14.419,-0.183 -4.397,0.795 -6.955,1.677 -9.801,1.542 l 0.307,-6.36 c 0,0 5.124,-1.935 10.103,-0.859 4.984,1.078 11.722,3.917 16.807,2.818 L 0,0" fill="#121617" fill-rule="evenodd" transform="matrix(4.5036929,0,0,-4.5036929,382.17533,162.53654)"/><path d="m 0,0 c 0,0 -0.874,-2.396 -1.636,-4.526 -0.76,-2.134 1.671,-5.861 1.671,-5.861 h 0.004 c 0,0 2.433,3.727 1.672,5.861 C 0.947,-2.396 0.154,0 0.154,0 H 0" fill="#121617" fill-rule="evenodd" transform="matrix(4.5036929,0,0,-4.5036929,243.35348,133.53276)"/><path d="M 0,0 C -1.02,2.148 -1.264,4.286 -1.264,4.286 L -0.953,4.259 C -0.655,3.935 -0.283,3.01 0.356,2.277 0.83,1.737 1.574,1.601 2.157,0.896 2.51,0.464 2.564,-0.427 2.943,-0.904 3.36,-1.437 4.22,-1.543 4.645,-2.122 5.008,-2.605 4.852,-3.54 5.202,-4.047 5.633,-4.67 6.461,-5.083 6.864,-5.721 c 1.219,-1.947 2.383,-3.016 2.919,-4.82 l 0.15,-0.252 c 0,1.899 -1.848,34.072 -1.848,34.072 -0.858,6.477 -7.134,4.242 -7.134,4.242 -1.845,-0.108 -2.704,-2.233 -3.935,-2.233 -1.23,0 -2.461,1.787 -2.953,2.794 -0.491,1.008 -0.491,2.345 -0.491,5.248 0,2.907 -1.603,3.685 -3.323,3.685 -1.721,0 -2.582,-1.675 -2.582,-1.675 -3.076,0.296 -2.707,-1.451 -2.707,-1.451 5.268,-0.764 3.813,-5.361 2.088,-6.814 -1.725,-1.451 -5.163,-0.337 -7.008,-0.223 -1.847,0.11 -4.183,-0.894 -4.676,-4.58 -0.49,-3.688 -0.249,-33.625 -0.249,-33.625 0.532,1.805 1.426,3.685 2.65,5.632 0.399,0.638 1.229,1.051 1.658,1.674 0.35,0.507 0.197,1.442 0.558,1.925 0.424,0.579 1.285,0.685 1.702,1.218 0.377,0.477 0.431,1.368 0.787,1.8 0.582,0.705 1.327,0.841 1.797,1.381 0.638,0.733 1.075,1.698 1.378,2.023 0.192,0.207 0.299,0.319 0.299,0.319 1.226,-3.573 -2.582,-8.265 -3.936,-9.937 -1.356,-1.677 -0.989,-6.257 -0.989,-6.257 l 24.612,0.669 c -0.494,3.797 -2.092,6.48 -2.834,7.485 -3.155,2.045 -3.933,6.806 -4.04,7.596" fill="#c8a228" fill-rule="evenodd" transform="matrix(4.5036929,0,0,-4.5036929,286.94469,356.47906)"/><path d="m 0,0 -0.015,1.835 c -0.008,1.221 -0.241,29.992 0.251,33.655 0.5,3.729 2.891,4.919 4.961,4.798 0.47,-0.028 1.034,-0.118 1.633,-0.216 1.774,-0.286 3.979,-0.636 5.178,0.372 0.902,0.763 1.876,2.658 1.347,4.236 -0.392,1.167 -1.498,1.893 -3.294,2.153 l -0.19,0.026 -0.038,0.172 c -0.007,0.026 -0.134,0.673 0.386,1.186 0.471,0.465 1.287,0.658 2.433,0.574 0.276,0.444 1.17,1.662 2.742,1.662 1.638,0 3.593,-0.683 3.593,-3.933 0,-2.879 0,-4.192 0.469,-5.151 0.495,-1.023 1.676,-2.645 2.7,-2.645 0.452,0 0.888,0.4 1.398,0.865 0.658,0.601 1.402,1.283 2.481,1.365 0.363,0.123 2.895,0.906 4.964,-0.216 1.385,-0.755 2.228,-2.18 2.502,-4.243 0.075,-1.331 1.846,-32.215 1.846,-34.1 V 1.428 l -0.685,1.156 c -0.347,1.165 -0.974,2.032 -1.707,3.035 -0.381,0.526 -0.776,1.069 -1.187,1.722 -0.19,0.299 -0.489,0.549 -0.8,0.818 -0.31,0.258 -0.627,0.525 -0.853,0.849 -0.21,0.298 -0.263,0.687 -0.318,1.063 -0.04,0.326 -0.088,0.664 -0.233,0.859 -0.184,0.25 -0.478,0.402 -0.797,0.562 -0.326,0.167 -0.669,0.344 -0.905,0.647 -0.221,0.276 -0.334,0.646 -0.443,1.001 -0.095,0.305 -0.193,0.618 -0.338,0.795 -0.285,0.347 -0.623,0.545 -0.947,0.741 -0.299,0.175 -0.601,0.357 -0.85,0.637 -0.383,0.444 -0.673,0.948 -0.91,1.354 l -0.128,0.224 c 0.268,-1.425 1.211,-5.206 3.852,-6.922 l 0.066,-0.062 c 0.539,-0.736 2.343,-3.452 2.88,-7.596 L 31.078,2.044 5.908,1.358 5.891,1.597 C 5.878,1.786 5.53,6.285 6.928,8.014 8.275,9.678 11.69,13.91 10.954,17.281 10.848,17.154 10.716,16.933 10.564,16.68 10.316,16.268 10.006,15.754 9.62,15.313 9.378,15.033 9.073,14.851 8.776,14.676 8.452,14.48 8.111,14.282 7.829,13.935 7.684,13.758 7.589,13.445 7.49,13.142 7.38,12.785 7.264,12.415 7.048,12.139 6.813,11.836 6.469,11.659 6.136,11.492 5.824,11.332 5.53,11.18 5.348,10.93 5.201,10.735 5.155,10.397 5.109,10.071 5.057,9.695 5.005,9.306 4.794,9.008 4.57,8.684 4.254,8.417 3.942,8.159 3.629,7.89 3.331,7.64 3.145,7.341 1.916,5.385 1.034,3.514 0.525,1.771 Z m 11.194,18.307 0.149,-0.425 C 12.607,14.211 8.821,9.515 7.391,7.749 6.264,6.353 6.371,2.815 6.421,1.869 l 24.043,0.654 c -0.567,3.895 -2.304,6.492 -2.725,7.069 -3.188,2.106 -3.986,6.815 -4.115,7.739 l -0.014,0.118 -0.035,0.3 0.751,-0.064 0.069,-0.075 c 0.145,-0.157 0.286,-0.404 0.465,-0.714 0.222,-0.387 0.497,-0.87 0.852,-1.275 0.188,-0.218 0.435,-0.362 0.721,-0.532 0.345,-0.206 0.74,-0.44 1.082,-0.855 0.208,-0.252 0.317,-0.611 0.428,-0.959 0.099,-0.315 0.201,-0.642 0.36,-0.849 0.171,-0.212 0.445,-0.356 0.735,-0.505 0.337,-0.171 0.723,-0.369 0.977,-0.718 0.215,-0.291 0.274,-0.685 0.326,-1.068 0.044,-0.324 0.09,-0.66 0.232,-0.86 0.191,-0.274 0.471,-0.504 0.761,-0.752 0.332,-0.28 0.678,-0.569 0.908,-0.936 0.399,-0.639 0.793,-1.176 1.17,-1.697 0.512,-0.705 0.977,-1.343 1.338,-2.069 -0.298,6.572 -1.778,32.342 -1.795,32.632 -0.25,1.887 -1.002,3.188 -2.238,3.858 -1.956,1.063 -4.498,0.177 -4.522,0.17 l -0.084,-0.018 c -0.89,-0.054 -1.545,-0.649 -2.173,-1.222 -0.567,-0.521 -1.102,-1.014 -1.782,-1.014 -1.392,0 -2.666,1.851 -3.2,2.941 -0.519,1.055 -0.519,2.399 -0.519,5.352 0,2.281 -1.024,3.438 -3.043,3.438 -1.525,0 -2.331,-1.518 -2.34,-1.533 l -0.079,-0.158 -0.196,0.016 c -1.046,0.1 -1.792,-0.039 -2.159,-0.396 -0.202,-0.206 -0.25,-0.444 -0.259,-0.599 2.352,-0.402 3.212,-1.552 3.519,-2.463 0.559,-1.675 -0.342,-3.767 -1.5,-4.744 C 10.978,38.905 8.628,39.283 6.735,39.584 6.154,39.677 5.602,39.768 5.162,39.792 4.276,39.849 1.348,39.69 0.775,35.428 0.356,32.291 0.476,9.65 0.521,3.421 c 0.526,1.333 1.246,2.732 2.15,4.166 0.227,0.367 0.57,0.656 0.904,0.936 0.293,0.248 0.573,0.478 0.76,0.752 0.143,0.2 0.188,0.536 0.235,0.858 0.05,0.383 0.107,0.779 0.325,1.07 0.254,0.349 0.635,0.547 0.973,0.718 0.292,0.149 0.571,0.293 0.737,0.505 0.163,0.207 0.264,0.534 0.362,0.851 0.107,0.346 0.218,0.705 0.424,0.957 0.347,0.415 0.741,0.649 1.089,0.855 0.282,0.17 0.525,0.314 0.716,0.532 0.355,0.405 0.649,0.902 0.889,1.298 0.192,0.32 0.346,0.573 0.489,0.726 0.195,0.215 0.305,0.327 0.305,0.327 l 0.315,0.335" transform="matrix(4.5036929,0,0,-4.5036929,173.71287,415.87378)"/><path d="M 0,0 -1.857,38.831 -0.868,38.879 0.991,0.049 0,0" transform="matrix(4.5036929,0,0,-4.5036929,381.14846,335.35224)"/><path d="M 0,0 -0.297,0.476 C 2.849,2.547 3.529,7.192 3.538,7.241 L 3.842,9.434 4.143,7.31 C 4.148,7.266 4.814,2.871 8.53,0.148 L 8.128,-0.34 C 5.474,1.601 4.319,4.288 3.846,5.864 3.391,4.227 2.327,1.525 0,0" transform="matrix(4.5036929,0,0,-4.5036929,232.71576,368.75163)"/><path d="m 0,0 c -0.277,0 -0.501,0.22 -0.501,0.495 v 27.731 c 0,0.273 0.224,0.494 0.501,0.494 0.271,0 0.493,-0.221 0.493,-0.494 V 0.495 C 0.493,0.22 0.271,0 0,0" transform="matrix(4.5036929,0,0,-4.5036929,184.35963,383.54627)"/><path d="M 0,0 C -0.277,0 -0.497,0.224 -0.497,0.495 V 23.2 c 0,0.272 0.22,0.493 0.497,0.493 0.271,0 0.49,-0.221 0.49,-0.493 V 0.495 C 0.49,0.224 0.271,0 0,0" transform="matrix(4.5036929,0,0,-4.5036929,196.78529,366.94564)"/><path d="m 0,0 c -0.277,0 -0.497,0.223 -0.497,0.495 v 18.769 c 0,0.272 0.22,0.492 0.497,0.492 0.271,0 0.495,-0.22 0.495,-0.492 V 0.495 C 0.495,0.223 0.271,0 0,0" transform="matrix(4.5036929,0,0,-4.5036929,209.21553,353.74082)"/><path d="m 0,0 c -0.273,0 -0.497,0.222 -0.497,0.493 v 27.414 c 0,0.27 0.224,0.494 0.497,0.494 0.275,0 0.497,-0.224 0.497,-0.494 V 0.493 C 0.497,0.222 0.275,0 0,0" transform="matrix(4.5036929,0,0,-4.5036929,316.8222,379.76766)"/><path d="M 0,0 C -0.274,0 -0.495,0.223 -0.495,0.497 V 22.94 c 0,0.271 0.221,0.494 0.495,0.494 0.278,0 0.494,-0.223 0.494,-0.494 V 0.497 C 0.494,0.223 0.278,0 0,0" transform="matrix(4.5036929,0,0,-4.5036929,305.68911,363.36971)"/><path d="m 0,0 c -0.276,0 -0.496,0.222 -0.496,0.496 v 18.551 c 0,0.272 0.22,0.494 0.496,0.494 0.272,0 0.49,-0.222 0.49,-0.494 V 0.496 C 0.49,0.222 0.272,0 0,0" transform="matrix(4.5036929,0,0,-4.5036929,294.56948,351.45294)"/><path d="M 0,0 C 0,0 1.042,-0.626 1.924,-0.117 2.809,0.391 1.086,1.909 0,0" fill-rule="evenodd" transform="matrix(4.5036929,0,0,-4.5036929,238.48499,202.84907)"/><path d="m 112.76893,341.06292 h 4.43347 V 165.98187 h -4.43347 z"/><path d="m 0,0 c 0,0 -1.528,-6.782 -9.438,-7.143 -7.906,-0.362 -9.606,5.708 -9.665,6.825 0,0 7.838,6.512 19.103,0.318" fill="#c8a228" fill-rule="evenodd" transform="matrix(4.5036929,0,0,-4.5036929,421.1503,340.56301)"/><path d="m 0,0 c -7.313,0 -9.182,5.671 -9.248,7.076 l 0.088,0.198 c 0.15,0.125 3.738,3.051 9.59,3.051 3.242,0 6.544,-0.912 9.81,-2.708 L 10.363,7.353 C 10.348,7.282 8.701,0.381 0.688,0.015 0.454,0.003 0.225,0 0,0 M -8.726,6.976 C -8.559,5.443 -6.592,0.179 0.663,0.507 7.664,0.832 9.512,6.211 9.812,7.282 6.683,8.972 3.528,9.826 0.43,9.826 c -5.128,0 -8.542,-2.386 -9.156,-2.85" transform="matrix(4.5036929,0,0,-4.5036929,375.61345,373.91736)"/><path d="M 0,0 C -3.672,0 -7.143,1.002 -9.17,1.945 L -9.524,2.112 -0.439,44.954 9.949,2.414 9.552,2.252 C 9.35,2.167 4.497,0.194 0.884,0.02 0.59,0.007 0.295,0 0,0 M -8.394,2.68 C -5.997,1.646 -2.75,0.99 0,0.99 c 0.281,0 0.56,0.008 0.838,0.019 2.867,0.137 6.714,1.532 7.943,2.005 L -0.373,40.503 -8.394,2.68" transform="matrix(4.5036929,0,0,-4.5036929,377.22123,352.77703)"/><path d="m 0,0 c 0,0 1.86,-6.702 9.762,-6.702 7.901,0 9.299,6.145 9.299,7.259 0,0 -8.137,6.147 -19.061,-0.557" fill="#c8a228" fill-rule="evenodd" transform="matrix(4.5036929,0,0,-4.5036929,77.599543,348.1112)"/><path d="m 0,0 c -8.008,0 -9.991,6.816 -10.012,6.884 l 0.113,0.275 c 3.427,2.102 6.937,3.17 10.425,3.17 5.392,0 8.788,-2.52 8.929,-2.627 l 0.1,-0.074 V 7.507 C 9.555,6.016 7.853,0 0,0 M -9.459,6.84 C -9.109,5.785 -6.997,0.493 0,0.493 c 7.23,0 8.949,5.321 9.038,6.892 -0.602,0.411 -3.811,2.448 -8.512,2.448 -3.334,0 -6.693,-1.008 -9.985,-2.993" transform="matrix(4.5036929,0,0,-4.5036929,121.56461,379.40286)"/><path d="M 0,0 C -3.619,0 -8.559,1.744 -8.77,1.819 L -9.169,1.961 -0.825,44.947 10.298,2.587 9.951,2.404 C 7.832,1.297 3.957,0 0,0 M -8.035,2.613 C -6.783,2.201 -2.873,0.991 0,0.991 c 3.568,0 7.062,1.1 9.135,2.112 L -0.682,40.496 -8.035,2.613" transform="matrix(4.5036929,0,0,-4.5036929,118.00222,358.39313)"/><path d="m 0,0 c 0,0 -1.007,3.017 5.917,3.017 4.862,0 10.057,-0.502 14.409,0.502 4.361,1.004 6.872,2.011 9.719,2.011 v -6.365 c 0,0 -5.025,-2.179 -10.053,-1.341 C 14.965,-1.34 8.095,1.176 3.071,-0.167 L 0,0" fill="#c8a228" fill-rule="evenodd" transform="matrix(4.5036929,0,0,-4.5036929,107.94994,168.50844)"/><path d="m 0,0 c -0.864,0 -1.702,0.066 -2.496,0.199 -1.356,0.225 -2.821,0.568 -4.377,0.928 -3.082,0.718 -6.273,1.461 -9.192,1.461 -1.183,0 -2.212,-0.12 -3.141,-0.37 l -0.08,-0.02 -3.484,0.191 -0.104,0.317 c -0.119,0.347 -0.176,1.131 0.354,1.86 0.865,1.203 2.896,1.808 6.032,1.808 1.215,0 2.476,-0.03 3.695,-0.06 1.22,-0.031 2.479,-0.063 3.699,-0.063 2.932,0 5.061,0.188 6.91,0.615 1.333,0.309 2.515,0.623 3.555,0.898 C 3.739,8.391 5.612,8.89 7.64,8.89 H 8.139 V 1.701 L 7.84,1.572 C 7.69,1.507 4.159,0 0,0 m -16.065,3.579 c 3.036,0 6.427,-0.79 9.419,-1.488 C -5.111,1.734 -3.655,1.395 -2.329,1.174 -1.591,1.052 -0.812,0.99 0,0.99 c 3.28,0 6.222,1.019 7.147,1.371 V 7.889 C 5.429,7.818 3.802,7.385 1.624,6.807 0.575,6.529 -0.612,6.214 -1.966,5.901 -3.887,5.457 -6.085,5.259 -9.094,5.259 c -1.233,0 -2.498,0.034 -3.725,0.061 -1.21,0.035 -2.462,0.068 -3.669,0.068 -3.672,0 -4.851,-0.877 -5.227,-1.403 -0.173,-0.237 -0.23,-0.47 -0.247,-0.65 l 2.578,-0.139 c 0.992,0.256 2.081,0.383 3.319,0.383" transform="matrix(4.5036929,0,0,-4.5036929,208.85519,181.40699)"/><path d="m 0,0 c 0,0 0.862,3.061 -6.059,2.727 -4.852,-0.231 -10.017,-0.98 -14.419,-0.183 -4.397,0.795 -6.955,1.677 -9.801,1.542 l 0.307,-6.36 c 0,0 5.124,-1.935 10.103,-0.859 4.984,1.078 11.722,3.917 16.807,2.818 L 0,0" fill="#c8a228" fill-rule="evenodd" transform="matrix(4.5036929,0,0,-4.5036929,382.17533,162.53654)"/><path d="m 0,0 c -3.8,0 -6.933,1.167 -7.064,1.218 l -0.307,0.116 -0.344,7.179 0.498,0.025 C -5.192,8.633 -3.326,8.23 -0.901,7.713 0.153,7.485 1.345,7.227 2.7,6.982 3.997,6.748 5.462,6.634 7.177,6.634 c 1.997,0 4.102,0.156 6.135,0.306 1.218,0.088 2.473,0.178 3.692,0.237 0.365,0.017 0.707,0.026 1.03,0.026 2.597,0 4.319,-0.534 5.117,-1.593 0.529,-0.692 0.505,-1.452 0.408,-1.79 L 23.471,3.492 19.997,3.14 19.917,3.156 c -0.725,0.156 -1.535,0.235 -2.403,0.235 -3.111,0 -6.7,-1.016 -9.868,-1.914 C 6.115,1.039 4.666,0.627 3.323,0.34 2.285,0.113 1.169,0 0,0 M -6.409,2.039 C -5.55,1.755 -2.957,0.992 0,0.992 c 1.102,0 2.144,0.106 3.113,0.314 1.314,0.284 2.748,0.692 4.267,1.124 3.228,0.916 6.882,1.952 10.134,1.952 0.908,0 1.759,-0.081 2.535,-0.245 l 2.567,0.267 c -0.021,0.172 -0.087,0.4 -0.268,0.63 C 21.883,5.63 20.557,6.358 17.049,6.189 15.847,6.131 14.596,6.039 13.385,5.951 11.332,5.8 9.21,5.645 7.177,5.645 5.405,5.645 3.879,5.764 2.521,6.01 1.153,6.259 -0.049,6.515 -1.106,6.744 -3.26,7.205 -4.975,7.564 -6.677,7.56 l 0.268,-5.521" transform="matrix(4.5036929,0,0,-4.5036929,278.20756,180.34412)"/><path d="m 0,0 c 0,0 -0.874,-2.396 -1.636,-4.526 -0.76,-2.134 1.671,-5.861 1.671,-5.861 h 0.004 c 0,0 2.433,3.727 1.672,5.861 C 0.947,-2.396 0.154,0 0.154,0 H 0" fill="#c8a228" fill-rule="evenodd" transform="matrix(4.5036929,0,0,-4.5036929,243.35348,133.53276)"/><path d="m 0,0 h -0.557 l -0.139,0.211 c -0.103,0.159 -2.525,3.911 -1.709,6.192 0.759,2.133 1.632,4.531 1.632,4.531 l 0.531,1.147 0.54,-1.159 C 0.307,10.899 1.1,8.505 1.846,6.403 2.658,4.122 0.242,0.37 0.14,0.211 Z M -0.254,10.233 C -0.635,9.205 -1.207,7.681 -1.729,6.26 -2.291,4.736 -1.139,2.183 -0.286,0.689 0.468,2.002 1.77,4.63 1.169,6.26 0.65,7.672 0.114,9.201 -0.254,10.233" transform="matrix(4.5036929,0,0,-4.5036929,244.77665,182.19964)"/><path d="m 0,0 c 0,-4.513 -3.67,-8.183 -8.18,-8.183 -4.513,0 -8.183,3.67 -8.183,8.183 0,4.51 3.67,8.182 8.183,8.182 C -3.67,8.182 0,4.51 0,0" fill="#faee33" transform="matrix(4.5036929,0,0,-4.5036929,288.71014,289.20289)"/><path d="m 0,0 c -4.672,0 -8.47,3.797 -8.47,8.468 0,4.668 3.798,8.467 8.47,8.467 4.669,0 8.468,-3.799 8.468,-8.467 C 8.468,3.797 4.669,0 0,0 m 0,16.362 c -4.359,0 -7.901,-3.539 -7.901,-7.894 0,-4.353 3.542,-7.9 7.901,-7.9 4.353,0 7.897,3.547 7.897,7.9 0,4.355 -3.544,7.894 -7.897,7.894" transform="matrix(4.5036929,0,0,-4.5036929,251.87,327.33566)"/><path d="m 0,0 c -1.443,-0.255 -3.381,-0.069 -4.099,-0.963 -2.561,-0.849 -4.475,0.074 -6.646,0.395 -1.17,0.17 -2.46,0.224 -3.375,0.463 -1.27,0.328 -2.493,0.749 -3.683,-0.16 -4.063,1.678 -8.41,-0.49 -11.972,-1.188 -0.209,0.151 -0.136,0.537 -0.407,0.628 -0.822,0.299 -2.647,-0.295 -3.477,-0.007 0.382,-0.388 0.761,-9 0.761,-9 0.817,-0.068 1.479,-0.264 2.353,-0.28 0.392,0.099 0.322,0.611 0.515,0.886 1.027,-0.738 1.65,-1.831 2.85,-2.426 -0.178,-1.192 0.805,-2.067 2.444,-1.976 -0.024,-1.176 1.682,-1.668 2.752,-1.086 0.304,-0.777 1.635,-1.307 2.756,-0.817 0.809,-1.803 3.498,-0.805 4.504,0.151 1.677,-0.489 3.449,0.002 3.589,1.412 1.471,-0.307 2.4,0.551 2.769,1.504 1.823,0.069 2.917,0.778 3.286,2.127 1.015,0.024 1.75,0.243 2.155,0.792 0.276,0.372 0.065,0.95 0.623,1.16 0.417,-0.37 0.306,-1.291 0.191,-1.878 0.962,-0.206 2.41,0.007 3.27,-0.282 l 0.616,0.263 c 0,0 0.915,6.148 -0.862,9.92 0,0 -0.272,0.245 -0.913,0.362" fill-rule="evenodd" transform="matrix(4.5036929,0,0,-4.5036929,328.92813,381.72227)"/><path d="m 0,0 c 0.883,-2.802 1.37,-6.452 0.865,-9.92 -1.023,0.216 -2.168,0.322 -3.475,0.283 0.074,3.625 -0.998,6.728 -1.788,9.302 C -2.952,-0.206 -1.662,0.063 0,0" fill="#fff" fill-rule="evenodd" transform="matrix(4.5036929,0,0,-4.5036929,333.03553,383.35261)"/><path d="m 0,0 c 0.262,-2.842 -0.011,-5.979 -0.356,-8.578 -0.901,0.058 -1.717,0.184 -2.453,0.371 0.181,2.64 0.227,5.57 -0.062,8.089 1.112,0.07 1.9,0.163 2.871,0.118" fill="#fff" fill-rule="evenodd" transform="matrix(4.5036929,0,0,-4.5036929,192.9797,387.04113)"/><path d="m 0,0 c 0.506,-2.186 -0.149,-4.654 -0.246,-6.878 1.211,-0.612 1.676,-1.868 3.053,-2.339 0.475,1.353 3.177,3.697 4.612,1.675 0.35,0.08 0.601,0.246 1.127,0.17 0.559,-0.284 1.005,-0.667 0.908,-1.524 0.676,0.743 2.959,0.666 3.066,-0.727 2.605,1.161 3.37,-2.104 1.925,-3.228 1.314,-0.377 3.863,-0.646 3.793,0.963 -0.94,0.614 -2.479,1.182 -2.958,1.892 1.355,-0.863 4.644,-2.997 5.726,-0.478 -1.54,0.745 -3.129,1.448 -4.588,2.259 1.741,-0.031 3.018,-1.749 4.796,-1.899 1.363,-0.12 2.799,0.541 2.974,1.591 -2.021,0.863 -3.801,1.927 -5.809,2.799 2.303,0.01 4.386,-2.806 6.94,-2.361 0.609,0.109 1.349,0.777 1.338,1.334 -0.032,1.1 -1.828,1.242 -2.957,1.893 -0.513,0.296 -0.901,0.957 -1.426,1.168 -1.294,0.525 -2.76,0.614 -3.981,1.094 -1.266,0.501 -2.223,1.112 -3.364,1.625 -0.58,-1.395 -4.444,-3.456 -5.839,-1.579 -0.838,1.121 1.136,2.489 1.86,3.205 0.189,0.193 0.76,0.358 0.514,0.626 C 7.69,2.652 3.238,0.801 0,0" fill="#121617" fill-rule="evenodd" transform="matrix(4.5036929,0,0,-4.5036929,194.80817,390.27478)"/><path d="M 0,0 C -1.557,0.213 -3.065,0.694 -4.19,0.648 -5.793,0.583 -6.212,-0.454 -7.269,-1.3 c -0.826,-0.665 -2.777,-2.053 -0.63,-2.5 2.393,-0.499 3.828,1.305 4.819,2.118 2.673,-0.541 5.314,-3.182 8.779,-2.728 0.567,0.076 0.954,0.534 1.641,0.35 C 6.82,-4.47 5.914,-4.542 5.085,-4.671 5.485,-5.642 6.726,-5.811 7.634,-6.294 8.252,-6.623 8.696,-7.342 9.573,-7.285 9.404,-4.703 8.612,-2.663 8.082,-0.399 5.456,-1.3 2.65,-0.365 0,0" fill="#121617" fill-rule="evenodd" transform="matrix(4.5036929,0,0,-4.5036929,275.91522,385.46934)"/><path d="M 0,0 C 0.281,0.394 1.092,0.974 1.03,1.335 0.978,1.653 0.434,1.97 -0.295,1.879 -1.491,1.723 -4.191,-1.095 -2.37,-2.399 -1.979,-2.479 -1.548,-2.52 -1.036,-2.501 -0.826,-1.355 -0.621,-0.875 0,0" fill="#121617" fill-rule="evenodd" transform="matrix(4.5036929,0,0,-4.5036929,221.7403,430.24506)"/><path d="M 0,0 C 0.27,0.823 2.428,3.032 0.739,3.482 -0.974,3.938 -3.481,0.118 -1.845,-1.239 -1.442,-1.375 -0.623,-1.38 -0.213,-1.245 -0.064,-0.917 -0.107,-0.325 0,0" fill="#121617" fill-rule="evenodd" transform="matrix(4.5036929,0,0,-4.5036929,230.42342,441.16652)"/><path d="M 0,0 C 0.187,1.249 -0.478,1.604 -1.522,1.346 -3.582,0.839 -5.163,-4.248 -1.448,-3.12 -1.405,-1.691 -0.161,-1.114 0,0" fill="#121617" fill-rule="evenodd" transform="matrix(4.5036929,0,0,-4.5036929,248.41113,436.01429)"/><path d="M 0,0 C -0.141,0.831 -1.352,1.308 -2.244,0.727 -2.86,0.323 -4.208,-2.002 -4.005,-2.838 -3.668,-4.259 -0.606,-3.407 -0.423,-2.499 -1.13,-2.381 -1.17,-3.245 -1.755,-2.94 -1.237,-2.078 0.25,-1.481 0,0" fill="#121617" fill-rule="evenodd" transform="matrix(4.5036929,0,0,-4.5036929,261.76909,438.0995)"/><path d="m 0,0 c 0.246,-0.267 -0.325,-0.432 -0.516,-0.623 -0.722,-0.718 -2.696,-2.085 -1.858,-3.208 1.395,-1.877 5.259,0.185 5.839,1.581 1.139,-0.515 2.098,-1.125 3.362,-1.628 1.223,-0.48 2.686,-0.564 3.983,-1.093 0.525,-0.21 0.911,-0.871 1.428,-1.167 1.13,-0.651 2.926,-0.792 2.955,-1.893 0.013,-0.557 -0.729,-1.224 -1.338,-1.334 -2.554,-0.445 -4.637,2.371 -6.94,2.362 2.008,-0.872 3.788,-1.937 5.807,-2.799 -0.173,-1.052 -1.609,-1.712 -2.97,-1.593 -1.786,0.151 -3.057,1.868 -4.798,1.902 1.462,-0.813 3.048,-1.516 4.588,-2.26 -1.082,-2.522 -4.371,-0.386 -5.726,0.476 0.481,-0.711 2.018,-1.279 2.958,-1.891 0.07,-1.609 -2.479,-1.339 -3.791,-0.963 1.443,1.124 0.678,4.388 -1.927,3.227 -0.107,1.393 -2.39,1.47 -3.066,0.729 0.097,0.856 -0.351,1.237 -0.908,1.526 -0.524,0.073 -0.777,-0.094 -1.127,-0.173 -1.435,2.024 -4.137,-0.323 -4.612,-1.674 -1.377,0.468 -1.842,1.727 -3.053,2.338 0.097,2.222 0.75,4.692 0.246,6.877 C -8.226,-0.479 -3.774,1.372 0,0" fill="#cd9565" fill-rule="evenodd" transform="matrix(4.5036929,0,0,-4.5036929,246.43851,384.51006)"/><path d="m 0,0 c 0.53,-2.261 1.323,-4.304 1.49,-6.884 -0.874,-0.059 -1.319,0.662 -1.937,0.993 -0.909,0.48 -2.152,0.651 -2.55,1.621 0.832,0.128 1.733,0.201 2.255,0.61 -0.689,0.187 -1.074,-0.27 -1.641,-0.347 -3.464,-0.456 -6.108,2.185 -8.776,2.726 -0.992,-0.814 -2.427,-2.619 -4.824,-2.118 -2.145,0.447 -0.193,1.835 0.63,2.498 1.058,0.847 1.476,1.883 3.081,1.948 1.123,0.047 2.631,-0.434 4.19,-0.646 C -5.432,0.037 -2.624,-0.901 0,0" fill="#cd9565" fill-rule="evenodd" transform="matrix(4.5036929,0,0,-4.5036929,312.31404,387.27533)"/><path d="M 0,0 C -0.512,-0.023 -0.942,0.022 -1.334,0.099 -3.155,1.405 -0.454,4.225 0.742,4.377 1.471,4.471 2.015,4.152 2.067,3.834 2.128,3.473 1.317,2.893 1.036,2.503 0.413,1.622 0.211,1.143 0,0" fill="#cd9565" fill-rule="evenodd" transform="matrix(4.5036929,0,0,-4.5036929,217.07447,441.50429)"/><path d="M 0,0 C -0.408,-0.134 -1.226,-0.129 -1.634,0.008 -3.269,1.364 -0.762,5.184 0.951,4.727 2.639,4.278 0.482,2.069 0.21,1.246 0.103,0.919 0.152,0.327 0,0" fill="#cd9565" fill-rule="evenodd" transform="matrix(4.5036929,0,0,-4.5036929,229.46409,446.77812)"/><path d="M 0,0 C -3.714,-1.128 -2.134,3.958 -0.076,4.467 0.971,4.725 1.634,4.369 1.45,3.12 1.292,2.006 0.045,1.429 0,0" fill="#cd9565" fill-rule="evenodd" transform="matrix(4.5036929,0,0,-4.5036929,241.88528,450.06581)"/><path d="M 0,0 C 0.585,-0.307 0.625,0.557 1.332,0.439 1.149,-0.469 -1.913,-1.321 -2.25,0.099 -2.45,0.936 -1.105,3.264 -0.491,3.665 0.403,4.247 1.614,3.769 1.755,2.938 2.005,1.456 0.52,0.862 0,0" fill="#cd9565" fill-rule="evenodd" transform="matrix(4.5036929,0,0,-4.5036929,253.86514,451.33135)"/><path d="m 0,0 c -0.284,-0.22 -0.039,-0.848 -0.315,-1.07 -1.356,-0.309 -3.264,-0.601 -4.834,-0.488 0,0 -3.657,7.706 -14.892,12.409 l 14.83,0.092 c 1.601,-0.076 2.5,0.08 3.891,-0.193 0.118,-0.403 0.506,-1.687 0.526,-2.184 0,0 0.562,-2.763 0.794,-8.566" fill="#0056a2" fill-rule="evenodd" transform="matrix(4.5036929,0,0,-4.5036929,186.76457,434.45601)"/><path d="m 0,0 c -0.252,0 -0.502,0.007 -0.744,0.024 l -0.145,0.011 -0.06,0.129 c -0.03,0.078 -3.756,7.679 -14.763,12.288 l -1.119,0.469 16.044,0.099 c 0.413,-0.019 0.774,-0.023 1.103,-0.023 l 0.715,10e-4 c 0.621,0 1.294,-0.014 2.127,-0.176 l 0.145,-0.028 0.081,-0.29 c 0.154,-0.523 0.477,-1.619 0.496,-2.098 0.002,0 0.563,-2.822 0.795,-8.567 L 4.68,1.712 4.578,1.633 C 4.526,1.594 4.518,1.413 4.514,1.281 4.505,1.043 4.492,0.748 4.263,0.566 L 4.219,0.53 4.164,0.517 C 3.313,0.326 1.643,0 0,0 m -0.567,0.509 c 1.717,-0.095 3.74,0.292 4.542,0.472 0.03,0.07 0.037,0.212 0.039,0.322 0.006,0.2 0.021,0.444 0.159,0.624 -0.231,5.64 -0.78,8.395 -0.789,8.422 -0.017,0.455 -0.332,1.546 -0.471,2.016 -0.717,0.127 -1.3,0.138 -1.882,0.138 L 0.316,12.501 c -0.34,0 -0.705,0.003 -1.114,0.024 L -14.449,12.44 C -4.857,8.073 -1.1,1.519 -0.567,0.509" transform="matrix(4.5036929,0,0,-4.5036929,166.83573,442.69777)"/><path d="m 0,0 c 0.298,-0.195 0.101,-0.842 0.399,-1.04 1.373,-0.202 3.295,-0.342 4.852,-0.108 0,0 3.062,7.97 13.903,13.553 L 4.365,11.322 C 2.776,11.122 1.864,11.206 0.5,10.823 0.411,10.414 0.127,9.104 0.145,8.606 0.145,8.606 -0.207,5.804 0,0" fill="#0056a2" fill-rule="evenodd" transform="matrix(4.5036929,0,0,-4.5036929,325.2351,430.84405)"/><path d="M 0,0 C -0.947,0 -2.031,0.081 -3.047,0.231 L -3.105,0.237 -3.15,0.27 C -3.39,0.433 -3.426,0.728 -3.453,0.966 -3.47,1.098 -3.487,1.273 -3.542,1.311 l -0.11,0.069 -0.002,0.128 c -0.211,5.758 0.141,8.618 0.145,8.647 -0.018,0.441 0.213,1.561 0.329,2.1 l 0.056,0.283 0.145,0.039 c 0.912,0.256 1.626,0.312 2.448,0.373 0.447,0.03 0.908,0.065 1.457,0.134 l 16.015,1.171 -1.079,-0.557 C 5.226,8.228 2.108,0.358 2.073,0.281 L 2.026,0.147 1.882,0.125 C 1.327,0.04 0.694,0 0,0 M -2.895,0.709 C -1.926,0.571 -0.898,0.494 0,0.494 c 0.612,0 1.171,0.037 1.67,0.1 0.454,1.05 3.7,7.881 12.933,12.992 L 0.978,12.596 c -0.552,-0.075 -1.042,-0.108 -1.473,-0.141 -0.751,-0.057 -1.409,-0.106 -2.204,-0.314 -0.103,-0.487 -0.337,-1.595 -0.317,-2.008 -0.006,-0.07 -0.344,-2.863 -0.15,-8.5 0.152,-0.17 0.183,-0.407 0.204,-0.612 0.015,-0.106 0.028,-0.249 0.067,-0.312" fill="#121617" transform="matrix(4.5036929,0,0,-4.5036929,340.58369,437.67165)"/><path d="M 0,0 C 0,0 0.333,-0.506 1.229,0.055 2.124,0.612 2.124,1.787 1.062,1.787 0.054,1.285 0,0 0,0" fill="#cd9565" fill-rule="evenodd" transform="matrix(4.5036929,0,0,-4.5036929,235.47202,400.1739)"/><path d="m 0,0 c -0.456,0 -0.663,0.284 -0.685,0.317 l -0.042,0.066 v 0.082 c 0.005,0.057 0.077,1.435 1.2,1.997 L 0.521,2.487 H 0.584 C 1.105,2.487 1.489,2.236 1.609,1.814 1.763,1.285 1.465,0.662 0.882,0.301 0.561,0.101 0.265,0 0,0 M -0.22,0.549 C -0.18,0.52 -0.106,0.493 0,0.493 0.169,0.493 0.383,0.571 0.618,0.72 1.057,0.991 1.211,1.417 1.134,1.678 1.066,1.923 0.821,1.981 0.64,1.993 -0.022,1.625 -0.184,0.836 -0.22,0.549" transform="matrix(4.5036929,0,0,-4.5036929,237.62482,402.21858)"/><path d="M 0,0 C -1.011,0 -1.58,0.847 -1.786,1.231 -2.142,1.051 -2.495,0.963 -2.828,0.963 -3.832,0.963 -4.41,1.75 -4.623,2.12 -4.96,1.934 -5.289,1.841 -5.616,1.841 -6.578,1.841 -7.182,2.639 -7.381,2.953 -8.158,2.801 -8.676,2.919 -8.929,3.296 -9.262,3.788 -8.974,4.52 -8.965,4.553 l 0.03,0.076 0.084,0.029 c 0.408,0.139 0.774,0.211 1.092,0.211 0.849,0 1.216,-0.501 1.337,-0.9 0.866,0.291 1.498,0.218 1.867,-0.198 0.236,-0.27 0.306,-0.627 0.321,-0.878 0.467,0.183 0.889,0.279 1.261,0.279 0.983,0 1.416,-0.664 1.554,-1.161 0.434,0.165 0.829,0.25 1.17,0.25 1.255,0 1.621,-1.089 1.638,-1.662 V 0.494 L 1.303,0.434 C 0.849,0.147 0.412,0 0,0 M -1.537,1.565 -1.533,1.554 C -1.526,1.546 -1.029,0.374 0,0.374 c 0.314,0 0.65,0.106 1.006,0.317 -0.039,0.312 -0.24,1.2 -1.255,1.2 -0.345,0 -0.762,-0.105 -1.237,-0.309 z m -2.835,0.868 c 0.082,-0.164 0.59,-1.097 1.544,-1.097 0.322,0 0.672,0.103 1.032,0.311 l 0.058,0.034 -0.006,0.055 C -1.747,1.78 -1.871,2.799 -2.973,2.799 -3.358,2.799 -3.819,2.678 -4.35,2.443 Z M -7.19,3.372 -7.127,3.249 c 0.009,-0.011 0.568,-1.037 1.511,-1.037 0.308,0 0.632,0.11 0.963,0.323 l 0.036,0.024 0.009,0.078 c 0,0.002 0.065,0.565 -0.227,0.891 -0.288,0.323 -0.864,0.329 -1.66,0.018 L -6.73,3.454 -6.747,3.708 C -6.756,3.787 -6.838,4.499 -7.759,4.499 -8.016,4.499 -8.311,4.443 -8.646,4.337 -8.713,4.132 -8.783,3.74 -8.623,3.505 -8.449,3.247 -7.995,3.193 -7.329,3.34 l 0.139,0.032" transform="matrix(4.5036929,0,0,-4.5036929,256.97716,442.58968)"/><path d="m 0,0 c 0,-0.095 -0.057,-0.29 -0.167,-0.587 -0.11,-0.296 -0.195,-0.492 -0.253,-0.585 -0.593,0.312 -1.011,0.498 -1.246,0.564 0.127,0.355 0.266,0.758 0.425,1.192 C -0.743,0.46 -0.328,0.264 0,0 M 0.957,-1.335 0.751,-1.99 c -1.764,-0.345 -3.203,-1.101 -4.314,-2.272 l 0.163,0.724 c 1.174,1.22 2.625,1.953 4.357,2.203 M -2.86,6.813 C -2.935,6.596 -3.146,6.292 -3.491,5.9 -3.586,5.825 -3.835,5.696 -4.242,5.526 -4.646,5.353 -4.953,5.269 -5.156,5.269 c -0.093,0 -0.209,0.03 -0.351,0.094 0.8,0.249 1.335,0.507 1.617,0.774 -0.264,0.091 -0.563,0.139 -0.89,0.139 L -4.942,6.252 -5.108,6.228 c 0,0.735 0.352,1.057 1.055,0.96 0.376,-0.045 0.771,-0.17 1.193,-0.375 m -0.68,3.633 c 0,-0.19 -0.066,-0.393 -0.209,-0.609 -0.125,0.14 -0.243,0.209 -0.348,0.209 -0.207,0 -0.372,-0.28 -0.496,-0.843 C -4.654,8.783 -4.716,8.36 -4.78,7.941 -4.89,8.249 -5.101,8.69 -5.411,9.25 -5.457,9.015 -5.585,8.9 -5.786,8.9 c -0.11,0 -0.225,0.056 -0.352,0.175 -0.123,0.116 -0.19,0.261 -0.19,0.432 0,0.438 0.159,0.657 0.472,0.657 0.373,0 0.71,-0.438 1.006,-1.313 0.252,1.515 0.577,2.275 0.983,2.275 0.221,0 0.327,-0.229 0.327,-0.68 M -2.672,-0.68 c 0.044,-0.235 0.024,-0.445 -0.07,-0.632 -0.091,-0.189 -0.215,-0.282 -0.351,-0.282 -0.141,0 -0.254,0.063 -0.352,0.188 -0.201,-0.265 -0.367,-0.399 -0.49,-0.399 -0.079,0 -0.2,0.035 -0.352,0.108 -0.157,0.067 -0.275,0.103 -0.35,0.103 -0.079,0 -0.286,-0.188 -0.612,-0.56 -0.373,-0.47 -0.827,-0.845 -1.356,-1.126 -0.454,-0.234 -1.048,-0.396 -1.783,-0.492 v 0.048 c 1.11,0.468 2.078,1.062 2.905,1.779 0.688,0.577 1.079,0.866 1.17,0.866 0.067,0 0.15,-0.029 0.26,-0.093 0.11,-0.061 0.186,-0.092 0.235,-0.092 0.172,0 0.357,0.156 0.56,0.466 l 0.068,-0.048 c -0.092,-0.185 -0.052,-0.279 0.119,-0.279 0.174,0 0.283,0.133 0.329,0.399 z M -7.66,10.256 C -8.472,9.414 -8.878,8.711 -8.878,8.151 -8.878,7.756 -8.749,7.56 -8.48,7.56 l 0.197,0.074 0.132,0.093 0.091,-0.071 C -8.37,6.813 -8.683,6.395 -8.993,6.395 c -0.391,0 -0.588,0.256 -0.588,0.771 0,0.53 0.215,1.144 0.645,1.839 0.427,0.695 0.846,1.143 1.25,1.345 z M -8.669,-1.358 c -0.704,-0.736 -1.053,-1.353 -1.053,-1.852 0,-0.344 0.119,-0.514 0.349,-0.514 l 0.166,0.07 0.116,0.07 0.073,-0.047 c -0.265,-0.75 -0.541,-1.124 -0.823,-1.124 -0.337,0 -0.515,0.227 -0.515,0.679 0,0.469 0.191,1.007 0.577,1.616 0.385,0.606 0.747,1.008 1.088,1.196 z m -1.544,3.371 c 0,-0.718 -0.097,-1.327 -0.281,-1.826 h -0.303 c 0.031,0.749 -0.032,1.662 -0.188,2.742 l -1.337,8.524 c -0.032,0.124 -0.084,0.287 -0.163,0.491 -0.08,0.204 -0.119,0.367 -0.119,0.491 l 0.377,1.404 1.29,-2.6 v -0.397 l -0.611,0.586 1.311,-8.431 c 0.019,-0.186 0.024,-0.516 0.024,-0.984 m -1.992,7.377 c -0.08,-0.216 -0.289,-0.515 -0.632,-0.89 -0.08,-0.092 -0.317,-0.221 -0.724,-0.384 -0.408,-0.164 -0.721,-0.246 -0.936,-0.246 -0.099,0 -0.219,0.021 -0.35,0.071 0.793,0.247 1.33,0.504 1.613,0.77 -0.266,0.109 -0.56,0.164 -0.891,0.164 l -0.164,-0.034 -0.14,-0.035 c 0,0.749 0.342,1.077 1.031,0.983 0.376,-0.063 0.772,-0.196 1.193,-0.399 m -4.426,1.522 c 0,-0.592 -0.125,-1.255 -0.375,-1.989 0.047,0.406 0.072,0.843 0.072,1.31 0,0.893 -0.281,1.593 -0.844,2.108 l 0.093,0.939 c 0.327,-0.237 0.597,-0.619 0.797,-1.149 0.173,-0.452 0.257,-0.859 0.257,-1.219 m 1.198,-3.23 c 0,-0.61 -0.212,-0.914 -0.636,-0.914 -0.167,0 -0.368,0.107 -0.584,0.328 -0.11,-0.391 -0.334,-0.587 -0.679,-0.587 -0.296,0 -0.469,0.205 -0.517,0.61 -0.015,0.327 -0.022,0.657 -0.022,0.982 C -17.95,7.962 -18.046,7.799 -18.15,7.61 v 0.307 c 0.062,0.155 0.13,0.311 0.208,0.467 0.141,0.219 0.296,0.382 0.468,0.491 -0.125,-1.028 -0.023,-1.547 0.306,-1.547 0.247,0 0.372,0.165 0.372,0.492 0,0.157 -0.045,0.471 -0.138,0.939 l 0.233,0.397 c 0.139,-0.218 0.236,-0.569 0.281,-1.055 0.013,-0.345 0.139,-0.514 0.374,-0.514 0.173,0 0.259,0.101 0.259,0.304 0,0.015 -0.08,0.337 -0.234,0.96 l 0.259,0.563 c 0.218,-0.655 0.329,-1.234 0.329,-1.732 m -2.932,-9.791 c -0.094,0.079 -0.25,0.202 -0.467,0.376 l -0.025,-0.376 c 0.093,-0.063 0.203,-0.077 0.328,-0.045 l 0.164,0.045 m -0.632,0.399 c -0.013,0.11 -0.078,0.156 -0.186,0.14 -0.156,-0.03 -0.274,-0.117 -0.349,-0.257 0.136,-0.143 0.285,-0.203 0.444,-0.187 0.078,0.123 0.109,0.225 0.091,0.304 m 0.468,12.318 C -19.326,9.766 -19.72,9.063 -19.72,8.5 c 0,-0.388 0.129,-0.583 0.394,-0.583 l 0.19,0.081 0.118,0.082 0.092,-0.072 c -0.312,-0.842 -0.625,-1.264 -0.935,-1.264 -0.394,0 -0.588,0.257 -0.588,0.774 0,0.529 0.219,1.154 0.657,1.872 0.435,0.674 0.852,1.11 1.239,1.314 z m 0.728,-13.254 c -0.564,-1.312 -1.283,-1.968 -2.155,-1.968 -0.421,0 -0.633,0.297 -0.633,0.89 0,0.123 0.217,0.323 0.655,0.598 0.436,0.271 0.675,0.494 0.705,0.666 -0.316,0.061 -0.486,0.171 -0.517,0.327 -0.013,0.127 0.026,0.303 0.117,0.528 0.097,0.226 0.19,0.353 0.284,0.384 l -0.144,0.214 0.05,0.117 c 0.122,0 0.303,-0.064 0.539,-0.189 l 0.017,-0.071 c 0.208,-0.14 0.442,-0.388 0.707,-0.749 0.079,-0.403 -0.015,-0.632 -0.283,-0.679 -0.136,-0.031 -0.325,-0.015 -0.559,0.047 -0.031,-0.344 -0.19,-0.618 -0.471,-0.818 -0.261,-0.141 -0.569,-0.352 -0.914,-0.632 0.082,-0.079 0.275,-0.118 0.59,-0.118 0.374,0 0.779,0.209 1.218,0.633 0.309,0.294 0.543,0.583 0.7,0.865 z M 0.536,3.347 C 0.536,2.896 0.452,2.468 0.281,2.061 0.045,1.56 -0.268,1.312 -0.658,1.312 c -0.189,0 -0.43,0.089 -0.724,0.267 C -1.681,1.759 -1.875,1.95 -1.967,2.154 -2.019,2.032 -2.122,1.843 -2.297,1.591 -2.579,1.312 -2.891,1.172 -3.232,1.172 c -0.285,0 -0.469,0.063 -0.563,0.185 -0.109,0.203 -0.228,0.399 -0.351,0.586 -0.61,-0.608 -1.125,-0.915 -1.547,-0.915 -0.454,0 -0.804,0.144 -1.055,0.424 -0.092,0.108 -0.24,0.366 -0.441,0.772 -0.128,0.283 -0.283,0.422 -0.471,0.422 -0.265,0 -0.5,-0.178 -0.701,-0.54 C -8.519,1.825 -8.6,1.607 -8.6,1.452 c 0,-0.502 0.714,-1.102 2.133,-1.805 0.067,-0.031 0.067,-0.242 0,-0.629 -0.06,-0.376 -0.123,-0.572 -0.188,-0.588 -0.264,0.122 -0.522,0.24 -0.771,0.349 -0.312,0.142 -0.586,0.214 -0.819,0.214 -0.766,0 -1.609,-0.314 -2.532,-0.938 -0.731,-0.565 -1.467,-1.132 -2.2,-1.709 -0.798,-0.608 -1.461,-0.914 -1.991,-0.914 -0.343,0 -0.668,0.165 -0.985,0.492 -0.356,0.361 -0.539,0.796 -0.539,1.313 0,0.904 0.48,1.886 1.431,2.95 0,0.03 -0.057,0.116 -0.163,0.256 -0.11,0.141 -0.173,0.276 -0.188,0.399 h -0.07 c -0.25,-0.75 -0.492,-1.254 -0.729,-1.522 -0.294,-0.36 -0.693,-0.541 -1.191,-0.541 -1.156,0 -1.734,0.945 -1.734,2.837 0,0.311 0.015,0.674 0.048,1.077 0.031,0.328 0.046,0.5 0.046,0.515 -0.205,-0.279 -0.354,-0.79 -0.447,-1.523 -0.062,-0.579 -0.122,-1.147 -0.187,-1.71 -0.185,-0.953 -0.484,-1.427 -0.887,-1.427 -0.548,0 -0.982,0.483 -1.29,1.452 -0.232,0.719 -0.35,1.406 -0.35,2.061 0,0.578 0.043,0.96 0.139,1.147 0.017,-0.031 0.044,-0.092 0.095,-0.187 -0.033,-0.501 0.019,-1.108 0.164,-1.828 0.184,-1.093 0.518,-1.638 1.005,-1.638 0.219,0 0.406,0.185 0.562,0.562 0.124,0.281 0.187,0.545 0.187,0.796 0.05,0.388 0.117,0.962 0.213,1.708 0.03,0.299 0.171,0.722 0.421,1.277 0.25,0.556 0.484,0.934 0.706,1.136 0.089,0 0.182,-0.116 0.279,-0.352 0.094,-0.232 0.138,-0.422 0.138,-0.562 0,0.017 -0.066,-0.261 -0.198,-0.827 -0.132,-0.574 -0.199,-1.102 -0.199,-1.585 0,-0.419 0.085,-0.795 0.259,-1.124 0.217,-0.405 0.529,-0.609 0.935,-0.609 0.484,0 0.902,0.161 1.255,0.482 0.352,0.32 0.525,0.704 0.525,1.159 0,0.389 -0.138,1.002 -0.411,1.837 -0.271,0.836 -0.407,1.34 -0.407,1.511 0,-0.016 0.076,0.272 0.233,0.867 0.032,0 0.091,-0.006 0.19,-0.025 0.419,-0.546 0.816,-1.864 1.191,-3.957 0.065,-0.343 0.248,-0.634 0.562,-0.878 0.311,-0.242 0.623,-0.362 0.934,-0.362 0.36,0 0.634,0.11 0.821,0.327 -0.137,0.499 -0.461,1.398 -0.957,2.692 -0.456,1.189 -0.679,1.804 -0.679,1.852 0,0.031 0.078,0.359 0.231,0.984 0.141,-0.125 0.553,-0.594 1.242,-1.406 v -0.21 c -0.091,0 -0.281,0.07 -0.565,0.21 0.816,-1.921 1.219,-3.122 1.219,-3.606 0,-0.485 -0.106,-0.924 -0.324,-1.311 -0.268,-0.485 -0.641,-0.728 -1.124,-0.728 -0.533,0 -0.951,0.19 -1.267,0.562 -0.263,-0.265 -0.53,-0.626 -0.794,-1.076 -0.348,-0.577 -0.516,-1.06 -0.516,-1.453 0,-0.264 0.078,-0.506 0.234,-0.726 0.154,-0.218 0.374,-0.327 0.654,-0.327 0.394,0 1.18,0.435 2.368,1.313 1.53,1.154 2.346,1.764 2.459,1.825 0.262,0.141 0.482,0.247 0.656,0.327 0.283,0.11 0.551,0.165 0.82,0.165 0,0.141 -0.025,0.354 -0.071,0.643 -0.048,0.29 -0.073,0.459 -0.073,0.506 0,0.498 0.176,1.052 0.518,1.662 0.358,0.67 0.746,1.006 1.17,1.006 0.125,0 0.348,-0.267 0.666,-0.809 0.322,-0.538 0.74,-0.807 1.254,-0.807 0.486,0 0.859,0.148 1.124,0.446 0.485,0.53 0.773,0.827 0.868,0.89 0.017,-0.032 0.008,-0.134 -0.026,-0.305 -0.03,-0.17 -0.046,-0.305 -0.046,-0.398 0,-0.376 0.181,-0.562 0.54,-0.562 0.36,0 0.623,0.155 0.797,0.469 0.28,0.559 0.467,0.897 0.56,1.007 0.065,-0.391 0.203,-0.7 0.425,-0.927 0.217,-0.226 0.451,-0.339 0.702,-0.339 0.154,0 0.324,0.064 0.512,0.188 V 2.88 c -0.31,0.671 -0.735,1.702 -1.263,3.091 -0.061,0.187 -0.141,0.396 -0.235,0.632 -0.047,0.079 -0.097,0.178 -0.151,0.294 -0.055,0.118 -0.083,0.215 -0.083,0.291 0,0.048 0.062,0.216 0.18,0.506 0.114,0.287 0.179,0.455 0.197,0.502 C -1.241,8.072 -0.829,7.542 -0.146,6.603 -0.206,6.509 -0.228,6.456 -0.215,6.438 L -0.682,6.651 -0.728,6.556 c 0,-0.014 0.21,-0.409 0.634,-1.183 C 0.324,4.6 0.536,3.925 0.536,3.347 M -20.497,2.013 c 0,-0.561 -0.131,-1.171 -0.395,-1.826 h -0.19 c 0.033,0.749 -0.036,1.662 -0.208,2.742 l -1.311,8.524 c -0.033,0.124 -0.088,0.287 -0.164,0.491 -0.078,0.204 -0.118,0.367 -0.118,0.491 l 0.35,1.404 1.314,-2.6 v -0.397 l -0.611,0.586 1.289,-8.431 c 0.032,-0.186 0.044,-0.516 0.044,-0.984 m -1.919,-2.785 c -0.704,-0.736 -1.053,-1.353 -1.053,-1.852 0,-0.342 0.116,-0.515 0.349,-0.515 l 0.167,0.07 0.114,0.07 0.074,-0.047 c -0.266,-0.748 -0.54,-1.124 -0.82,-1.124 -0.343,0 -0.519,0.227 -0.519,0.68 0,0.469 0.194,1.006 0.575,1.616 0.387,0.61 0.746,1.008 1.09,1.194 z m -3.463,1.918 c -0.093,-0.342 -0.279,-0.648 -0.554,-0.91 -0.272,-0.268 -0.566,-0.4 -0.878,-0.4 -0.53,0 -0.793,0.256 -0.793,0.773 0,0.233 0.254,0.68 0.769,1.334 -0.089,0.016 -0.186,0.023 -0.278,0.023 -0.283,0 -0.522,-0.1 -0.728,-0.304 l 0.165,0.492 c 0.267,0.264 0.515,0.398 0.752,0.398 0.265,0 0.535,-0.032 0.818,-0.093 l -0.283,-0.516 c -0.171,-0.094 -0.373,-0.266 -0.598,-0.513 -0.229,-0.251 -0.336,-0.456 -0.336,-0.612 0,-0.234 0.214,-0.351 0.653,-0.351 0.501,0 0.93,0.228 1.291,0.679 m -0.87,6.84 c 0,-0.594 -0.209,-0.89 -0.632,-0.89 -0.17,0 -0.365,0.109 -0.586,0.329 -0.111,-0.392 -0.335,-0.587 -0.677,-0.587 -0.298,0 -0.469,0.203 -0.516,0.608 -0.015,0.31 -0.024,0.634 -0.024,0.962 -0.079,-0.126 -0.171,-0.283 -0.28,-0.467 v 0.278 c 0.062,0.157 0.132,0.314 0.21,0.471 0.125,0.218 0.279,0.381 0.471,0.488 -0.128,-1.029 -0.023,-1.544 0.301,-1.544 0.252,0 0.378,0.165 0.378,0.491 0,0.173 -0.056,0.485 -0.167,0.938 l 0.259,0.399 c 0.141,-0.203 0.233,-0.554 0.281,-1.054 0.013,-0.345 0.14,-0.517 0.376,-0.517 0.169,0 0.256,0.103 0.256,0.305 0,0.032 -0.08,0.351 -0.236,0.96 l 0.262,0.563 c 0.213,-0.656 0.324,-1.234 0.324,-1.733 M -27.311,4.38 c -1.702,0.389 -3.084,0.584 -4.148,0.584 -0.574,0 -1.001,-0.039 -1.285,-0.116 0.748,-0.439 1.274,-0.782 1.569,-1.03 0.201,-0.19 0.486,-0.438 0.844,-0.75 z m -3.138,8.22 c -0.077,-0.22 -0.299,-0.522 -0.656,-0.914 -0.079,-0.094 -0.324,-0.227 -0.737,-0.399 -0.415,-0.171 -0.728,-0.257 -0.948,-0.257 -0.095,0 -0.21,0.03 -0.353,0.096 0.815,0.248 1.362,0.513 1.641,0.794 -0.279,0.093 -0.586,0.14 -0.913,0.14 l -0.164,-0.023 -0.141,-0.024 c 0,0.749 0.351,1.076 1.053,0.987 0.391,-0.064 0.796,-0.197 1.218,-0.4 m 4.683,-0.702 -0.466,-0.772 c -1.359,-0.268 -2.697,-0.737 -4.018,-1.407 -1.32,-0.67 -2.399,-1.445 -3.247,-2.318 l 0.378,0.89 c 0.829,0.841 1.933,1.606 3.312,2.293 1.382,0.688 2.734,1.126 4.041,1.314 m -7.097,-12.719 c -0.7,-0.749 -1.051,-1.365 -1.051,-1.849 0,-0.344 0.12,-0.517 0.353,-0.517 l 0.162,0.061 0.117,0.08 0.071,-0.071 c -0.266,-0.749 -0.54,-1.123 -0.82,-1.123 -0.345,0 -0.519,0.226 -0.519,0.681 0,0.468 0.198,1.022 0.589,1.66 0.373,0.596 0.733,0.977 1.076,1.149 z m -1.448,7.119 c -0.172,0.315 -0.455,0.533 -0.848,0.656 -0.199,-0.202 -0.303,-0.422 -0.303,-0.656 0,-0.312 0.136,-0.467 0.402,-0.467 0.262,0 0.51,0.155 0.749,0.467 m 0.183,0.14 c 0,-0.311 -0.09,-0.606 -0.281,-0.876 -0.184,-0.273 -0.417,-0.411 -0.699,-0.411 -0.436,0 -0.657,0.243 -0.657,0.727 0,0.125 0.093,0.472 0.282,1.041 0.187,0.57 0.28,1.043 0.28,1.418 0,0.685 -0.287,1.25 -0.869,1.686 0,0.016 -0.03,0.43 -0.091,1.24 0.374,-0.249 0.69,-0.608 0.947,-1.075 0.259,-0.469 0.39,-0.922 0.39,-1.36 0,-0.452 -0.063,-0.842 -0.188,-1.172 0.592,-0.169 0.886,-0.575 0.886,-1.218 m -0.397,-3.346 c 0,-0.095 -0.055,-0.293 -0.165,-0.587 -0.108,-0.297 -0.192,-0.49 -0.253,-0.583 -0.593,0.311 -1.008,0.496 -1.245,0.559 0.125,0.359 0.267,0.753 0.423,1.172 0.5,-0.125 0.913,-0.314 1.24,-0.561 m -2.95,-1.079 c 0,-0.561 -0.133,-1.171 -0.394,-1.826 h -0.216 c 0.048,0.749 -0.013,1.662 -0.185,2.742 l -1.335,8.524 c -0.015,0.124 -0.068,0.287 -0.152,0.491 -0.087,0.204 -0.127,0.367 -0.127,0.491 l 0.373,1.404 1.285,-2.6 v -0.397 l -0.61,0.586 1.317,-8.431 c 0.03,-0.186 0.044,-0.516 0.044,-0.984 M -38.81,1.825 c -0.719,-0.733 -1.074,-1.35 -1.074,-1.85 0,-0.343 0.114,-0.515 0.351,-0.515 l 0.173,0.071 0.107,0.072 0.069,-0.072 c -0.266,-0.733 -0.538,-1.101 -0.821,-1.101 -0.344,0 -0.515,0.226 -0.515,0.68 0,0.468 0.194,1.007 0.574,1.615 0.382,0.61 0.751,1.008 1.11,1.197 z m -3.254,-2.95 c -0.702,-0.749 -1.054,-1.366 -1.054,-1.848 0,-0.347 0.106,-0.517 0.325,-0.517 l 0.179,0.058 0.104,0.061 0.094,-0.048 c -0.282,-0.751 -0.557,-1.124 -0.819,-1.124 -0.344,0 -0.519,0.226 -0.519,0.677 0,0.468 0.189,1.011 0.563,1.628 0.374,0.619 0.743,1.012 1.105,1.185 z m -1.781,9.485 c 0,-0.608 -0.211,-0.914 -0.633,-0.914 -0.171,0 -0.364,0.11 -0.582,0.33 -0.126,-0.392 -0.355,-0.588 -0.681,-0.588 -0.299,0 -0.469,0.204 -0.517,0.611 -0.015,0.326 -0.022,0.654 -0.022,0.984 -0.079,-0.14 -0.171,-0.305 -0.281,-0.492 v 0.304 c 0.059,0.156 0.132,0.313 0.21,0.468 0.128,0.218 0.281,0.382 0.47,0.492 -0.128,-1.049 -0.025,-1.569 0.302,-1.569 0.25,0 0.374,0.172 0.374,0.514 0,0.157 -0.054,0.469 -0.163,0.938 l 0.259,0.399 c 0.14,-0.22 0.233,-0.571 0.28,-1.054 0.016,-0.344 0.141,-0.516 0.374,-0.516 0.173,0 0.258,0.102 0.258,0.303 0,0.017 -0.076,0.338 -0.234,0.961 l 0.258,0.54 c 0.218,-0.641 0.328,-1.21 0.328,-1.711 m -0.328,-7.308 c -0.078,-0.341 -0.255,-0.645 -0.528,-0.911 -0.273,-0.266 -0.57,-0.401 -0.899,-0.401 -0.531,0 -0.799,0.26 -0.799,0.774 0,0.236 0.259,0.679 0.777,1.335 -0.097,0.017 -0.184,0.026 -0.259,0.026 -0.282,0 -0.526,-0.102 -0.726,-0.305 l 0.137,0.491 c 0.281,0.264 0.534,0.398 0.751,0.398 0.281,0 0.553,-0.032 0.821,-0.095 l -0.281,-0.515 c -0.158,-0.093 -0.349,-0.266 -0.575,-0.514 -0.226,-0.248 -0.338,-0.452 -0.338,-0.61 0,-0.233 0.211,-0.351 0.632,-0.351 0.5,0 0.928,0.228 1.287,0.678 m 0.705,10.329 -0.119,-0.539 c -2.748,-0.53 -4.999,-1.71 -6.746,-3.536 l 0.047,0.656 c 1.827,1.875 4.097,3.014 6.818,3.419 M -49.91,10.329 C -49.988,10.11 -50.207,9.797 -50.566,9.39 -50.661,9.297 -50.919,9.162 -51.339,8.992 -51.76,8.82 -52.083,8.737 -52.3,8.737 c -0.091,0 -0.219,0.029 -0.377,0.091 0.846,0.248 1.408,0.516 1.688,0.797 -0.28,0.11 -0.592,0.164 -0.936,0.164 L -52.092,9.754 -52.23,9.719 c 0,0.781 0.36,1.113 1.078,1.006 0.391,-0.046 0.804,-0.178 1.242,-0.396 m -3.279,-8.034 c -0.096,0.155 -0.204,0.28 -0.328,0.375 -0.096,-0.017 -0.169,-0.063 -0.235,-0.141 0.123,-0.109 0.311,-0.189 0.563,-0.234 m 2.083,-4.404 c 0,-0.093 -0.052,-0.29 -0.163,-0.587 -0.11,-0.294 -0.195,-0.488 -0.26,-0.584 -0.468,0.248 -0.858,0.432 -1.17,0.54 -0.123,-0.424 -0.25,-0.726 -0.373,-0.914 -0.595,0.328 -1.008,0.523 -1.242,0.585 0.123,0.343 0.263,0.736 0.421,1.17 0.44,-0.107 0.843,-0.295 1.216,-0.561 0.109,0.282 0.219,0.586 0.329,0.913 0.5,-0.124 0.915,-0.312 1.242,-0.562 m -1.852,9.181 c 0,-0.201 -0.077,-0.414 -0.231,-0.634 -0.127,0.158 -0.243,0.234 -0.352,0.234 -0.219,0 -0.391,-0.305 -0.516,-0.911 -0.061,-0.438 -0.134,-0.874 -0.209,-1.311 -0.109,0.326 -0.331,0.786 -0.657,1.381 -0.049,-0.251 -0.172,-0.373 -0.372,-0.373 -0.128,0 -0.256,0.062 -0.388,0.185 -0.136,0.126 -0.198,0.273 -0.198,0.446 0,0.453 0.168,0.679 0.51,0.679 0.395,0 0.743,-0.453 1.057,-1.359 0.251,1.578 0.588,2.367 1.007,2.367 0.235,0 0.349,-0.234 0.349,-0.704 M -53.05,2.318 c 0,-0.328 -0.07,-0.493 -0.211,-0.493 -0.184,0 -0.438,0.118 -0.75,0.353 -0.138,-0.329 -0.372,-0.71 -0.701,-1.15 -0.797,-1.043 -2.015,-1.679 -3.65,-1.894 v 0.068 c 1.355,0.502 2.494,1.211 3.417,2.133 0.311,0.31 0.625,0.726 0.934,1.24 0.235,0.391 0.391,0.587 0.47,0.587 0.139,0 0.265,-0.135 0.375,-0.398 0.081,-0.203 0.116,-0.353 0.116,-0.446 m -3.818,2.342 c -0.701,-0.751 -1.051,-1.365 -1.051,-1.849 0,-0.343 0.113,-0.516 0.35,-0.516 l 0.165,0.058 0.116,0.083 0.07,-0.072 c -0.264,-0.733 -0.539,-1.1 -0.82,-1.1 -0.342,0 -0.514,0.219 -0.514,0.658 0,0.481 0.192,1.028 0.571,1.638 0.383,0.61 0.746,0.999 1.087,1.171 z m 33.635,-0.47 c 0.046,-0.281 0.066,-0.63 0.066,-1.053 0,-1.825 -0.323,-2.907 -0.971,-3.244 -0.645,-0.334 -1.276,-0.652 -1.885,-0.946 -0.67,-0.36 -1.332,-0.867 -1.989,-1.525 -1.39,-1.387 -2.462,-2.082 -3.209,-2.082 -0.389,0 -0.698,0.165 -0.926,0.502 -0.226,0.336 -0.339,0.739 -0.339,1.205 0,0.736 0.196,1.595 0.587,2.578 0.311,0.732 0.648,1.363 1.004,1.896 -0.855,-0.434 -1.935,-1.195 -3.233,-2.271 -1.698,-1.422 -2.716,-2.249 -3.042,-2.484 -1.095,-0.762 -2.031,-1.147 -2.81,-1.147 -0.58,0 -1.023,0.223 -1.337,0.669 -0.313,0.445 -0.467,0.994 -0.467,1.651 0,0.671 0.154,1.341 0.467,2.014 -0.452,-0.266 -0.905,-0.524 -1.357,-0.774 -0.748,-0.452 -1.413,-0.905 -1.992,-1.357 -0.623,-0.548 -1.257,-1.087 -1.895,-1.616 -0.735,-0.594 -1.328,-0.89 -1.782,-0.89 -0.389,0 -0.719,0.156 -0.982,0.466 -0.314,0.345 -0.47,0.814 -0.47,1.407 0,0.937 0.343,2.1 1.031,3.491 0.373,0.67 0.756,1.352 1.15,2.035 -0.517,-0.279 -0.972,-0.42 -1.36,-0.42 -0.406,0 -0.76,0.216 -1.053,0.655 -0.299,0.436 -0.557,0.658 -0.777,0.658 -0.232,0 -0.484,-0.151 -0.755,-0.446 -0.276,-0.298 -0.413,-0.53 -0.413,-0.703 0,-0.375 0.282,-0.766 0.844,-1.17 0.467,-0.301 0.938,-0.603 1.403,-0.915 0,-0.295 -0.07,-0.694 -0.209,-1.195 -0.247,0.125 -0.498,0.259 -0.749,0.399 -0.423,0.219 -0.781,0.327 -1.077,0.327 -0.781,0 -1.611,-0.327 -2.483,-0.984 -0.72,-0.592 -1.435,-1.192 -2.156,-1.804 -0.81,-0.64 -1.52,-0.96 -2.128,-0.96 -0.361,0 -0.674,0.138 -0.939,0.411 -0.265,0.273 -0.398,0.685 -0.398,1.23 0,0.625 0.224,1.287 0.676,1.99 0.095,0.14 0.478,0.632 1.15,1.476 l 0.141,-0.092 c -0.985,-1.204 -1.475,-2.134 -1.475,-2.787 0,-0.718 0.303,-1.081 0.913,-1.081 0.609,0 1.583,0.595 2.926,1.781 1.237,1.094 2.351,1.686 3.351,1.782 -0.108,0.499 -0.166,0.912 -0.166,1.239 0,0.564 0.127,1.164 0.376,1.803 0.314,0.782 0.703,1.174 1.168,1.174 0.238,0 0.518,-0.279 0.848,-0.832 0.328,-0.555 0.671,-0.834 1.029,-0.834 0.341,0 0.927,0.166 1.756,0.492 0.486,0.204 0.978,0.414 1.474,0.633 -0.013,0 -0.402,0.108 -1.171,0.329 -0.528,0.172 -0.904,0.255 -1.121,0.255 -0.158,0 -0.274,-0.038 -0.354,-0.117 h -1.663 v 0.164 c 0,0.394 0.169,0.712 0.493,0.964 0.269,0.215 0.569,0.327 0.912,0.327 0.454,0 0.987,-0.118 1.597,-0.353 0.916,-0.329 1.505,-0.522 1.754,-0.585 1.126,-0.297 2.316,-0.438 3.581,-0.422 0,-0.061 -0.084,-0.276 -0.255,-0.642 -0.171,-0.369 -0.281,-0.553 -0.329,-0.553 -0.575,0.095 -1.123,0.14 -1.639,0.14 -0.39,0 -0.954,-0.14 -1.699,-0.421 -0.738,-0.281 -1.277,-0.543 -1.602,-0.794 -0.237,-0.234 -0.618,-0.898 -1.15,-1.992 -0.666,-1.387 -1.003,-2.513 -1.003,-3.373 0,-0.296 0.098,-0.538 0.291,-0.725 0.193,-0.188 0.431,-0.282 0.712,-0.282 0.312,0 0.822,0.298 1.525,0.892 0.498,0.437 0.999,0.873 1.498,1.311 0.61,0.469 1.581,1.091 2.926,1.873 0.94,0.549 1.453,0.962 1.545,1.241 -0.026,0.375 -0.065,0.757 -0.119,1.15 l -1.328,8.524 c -0.037,0.124 -0.093,0.287 -0.167,0.491 -0.08,0.204 -0.119,0.367 -0.119,0.491 l 0.377,1.404 1.291,-2.6 v -0.397 l -0.614,0.586 1.126,-7.238 c 0.044,-0.359 0.068,-0.764 0.068,-1.216 0,-1.25 -0.195,-2.15 -0.58,-2.706 -0.396,-0.553 -0.589,-1.18 -0.589,-1.883 0,-0.455 0.133,-0.835 0.399,-1.148 0.266,-0.314 0.601,-0.471 1.007,-0.471 0.844,0 2.241,0.821 4.191,2.462 2.248,1.903 3.826,3.035 4.731,3.393 -0.046,0.049 -0.444,0.345 -1.194,0.89 -0.561,0.406 -0.842,0.837 -0.842,1.288 0,0.595 0.193,0.992 0.588,1.196 0.263,0.156 0.706,0.233 1.329,0.233 0.501,0 1.494,-0.139 2.979,-0.422 1.698,-0.326 2.829,-0.514 3.396,-0.56 0,-0.062 -0.068,-0.266 -0.201,-0.61 -0.132,-0.341 -0.223,-0.539 -0.269,-0.587 -1.234,-0.466 -2.578,-1.043 -4.029,-1.731 0.277,-0.421 0.423,-0.818 0.423,-1.193 0,-0.142 -0.048,-0.313 -0.146,-0.516 -0.091,-0.202 -0.168,-0.306 -0.228,-0.306 -0.082,0 -0.28,0.133 -0.599,0.399 -0.321,0.265 -0.558,0.491 -0.714,0.68 -0.189,-0.189 -0.429,-0.64 -0.725,-1.359 -0.374,-0.906 -0.565,-1.725 -0.565,-2.459 0,-0.672 0.305,-1.008 0.915,-1.008 0.466,0 1.343,0.642 2.623,1.92 0.593,0.594 1.592,1.241 3,1.944 1.133,0.547 1.73,1 1.778,1.359 -0.031,0.375 -0.079,0.757 -0.143,1.15 l -1.308,8.524 c -0.034,0.124 -0.089,0.287 -0.167,0.491 -0.078,0.204 -0.115,0.367 -0.115,0.491 l 0.347,1.404 1.314,-2.6 v -0.397 l -0.607,0.586 1.102,-7.238" fill="#df0000" transform="matrix(4.5036929,0,0,-4.5036929,382.45453,87.29785)"/><path d="m 0,0 c -0.344,-0.399 -0.513,-0.729 -0.513,-0.991 0,-0.189 0.054,-0.282 0.16,-0.282 -0.071,0 -0.023,0.022 0.14,0.061 l 0.037,-0.023 c -0.13,-0.408 -0.266,-0.615 -0.409,-0.615 -0.169,0 -0.25,0.126 -0.25,0.377 0,0.253 0.095,0.544 0.283,0.874 0.193,0.334 0.367,0.545 0.534,0.637 z m -0.799,-3.5 c 0,-0.422 -0.061,-0.802 -0.177,-1.132 h -0.089 c 0.022,0.436 -0.018,1.04 -0.126,1.812 l -0.568,4.013 0.372,-0.1 0.552,-3.896 c 0.023,-0.131 0.036,-0.365 0.036,-0.697 M -1.241,2.583 -1.601,2.98 -1.615,2.803 -1.529,2.146 -1.901,2.185 -2.026,3.041 c -0.044,0.317 -0.1,0.557 -0.158,0.718 l 0.174,0.792 0.769,-1.668 z m -0.448,-5.324 c -0.344,-0.413 -0.512,-0.751 -0.512,-1.018 0,-0.186 0.059,-0.276 0.175,-0.276 -0.071,0 -0.027,0.025 0.125,0.08 l 0.037,-0.041 c -0.132,-0.398 -0.262,-0.596 -0.394,-0.596 -0.163,0 -0.247,0.119 -0.247,0.358 0,0.265 0.093,0.559 0.275,0.895 0.186,0.329 0.357,0.544 0.526,0.634 z m -0.158,2.142 c -0.344,-0.408 -0.515,-0.746 -0.515,-1.011 0,-0.185 0.059,-0.277 0.178,-0.277 -0.074,0 -0.029,0.023 0.122,0.077 l 0.036,-0.04 c -0.127,-0.395 -0.26,-0.596 -0.388,-0.596 -0.169,0 -0.251,0.117 -0.251,0.356 0,0.27 0.091,0.567 0.274,0.899 0.185,0.329 0.358,0.54 0.527,0.635 z m -0.425,5.168 c 0.119,0 0.101,-0.097 -0.053,-0.296 -0.228,-0.28 -0.517,-0.474 -0.872,-0.597 v 0.123 l 0.195,0.257 c -0.121,0.037 -0.183,0.14 -0.183,0.297 0,0.119 0.062,0.26 0.183,0.43 0.118,0.161 0.229,0.249 0.337,0.249 0.13,0 0.195,-0.061 0.195,-0.182 0,-0.092 -0.03,-0.184 -0.087,-0.281 H -2.628 L -2.715,4.67 c -0.088,0.013 -0.18,-0.031 -0.287,-0.137 0.059,-0.118 0.146,-0.18 0.268,-0.18 0.199,0 0.352,0.074 0.462,0.216 m 2.025,-3.694 c 0,-0.187 -0.083,-0.432 -0.248,-0.739 -0.167,-0.301 -0.317,-0.457 -0.448,-0.457 h -0.122 l -0.106,0.757 c 0.189,-0.011 0.386,-0.026 0.586,-0.038 -0.169,0.465 -0.467,0.755 -0.906,0.876 -0.166,0.037 -0.579,0.055 -1.243,0.055 -0.25,0 -0.517,-0.005 -0.804,-0.018 l -0.105,0.736 c 0.33,0.013 0.641,0.022 0.928,0.022 0.719,0 1.23,-0.041 1.524,-0.121 0.63,-0.173 0.944,-0.531 0.944,-1.073 m -2.755,-4.811 c 0,-0.427 -0.053,-0.802 -0.163,-1.133 h -0.086 c 0.021,0.437 -0.018,1.042 -0.127,1.809 l -0.391,2.782 0.357,0.02 0.39,-2.782 c 0.013,-0.134 0.02,-0.365 0.02,-0.696 m -0.552,4.412 -0.355,-0.04 -0.447,3.22 c -0.043,0.32 -0.106,0.558 -0.175,0.717 l 0.194,0.795 0.747,-1.67 V 3.2 l -0.337,0.417 -0.036,-0.2 z M -5.565,3.993 C -5.909,3.584 -6.08,3.248 -6.08,2.98 c 0,-0.183 0.062,-0.277 0.183,-0.277 -0.078,0 -0.034,0.026 0.118,0.081 L -5.743,2.741 C -5.869,2.347 -6.002,2.146 -6.134,2.146 c -0.167,0 -0.246,0.119 -0.246,0.359 0,0.265 0.092,0.563 0.274,0.893 0.184,0.335 0.359,0.545 0.526,0.638 z M -4.159,1.274 C -6.185,1.126 -7.317,1.053 -7.555,1.053 c -0.696,0 -1.051,0.271 -1.051,0.816 0,0.702 0.44,1.42 1.319,2.147 0.829,0.689 1.563,1.031 2.202,1.031 0.262,0 0.396,-0.137 0.396,-0.416 0,-0.25 -0.163,-0.57 -0.48,-0.955 L -5.242,3.72 c 0.084,0.155 0.124,0.282 0.124,0.377 0,0.143 -0.04,0.216 -0.124,0.216 -0.426,0 -0.97,-0.215 -1.637,-0.646 -0.663,-0.429 -1.167,-0.897 -1.51,-1.402 0.083,-0.357 0.438,-0.518 1.067,-0.477 0.684,0.053 1.703,0.127 3.058,0.22 z M -7.501,4.813 C -7.537,4.679 -7.648,4.498 -7.84,4.273 -7.888,4.221 -8.02,4.145 -8.238,4.045 -8.458,3.946 -8.623,3.898 -8.73,3.898 l -0.193,0.037 c 0.426,0.145 0.716,0.305 0.868,0.48 -0.152,0.053 -0.311,0.08 -0.478,0.08 L -8.623,4.472 -8.708,4.453 c 0,0.452 0.184,0.649 0.569,0.594 0.199,-0.037 0.412,-0.118 0.638,-0.234 m -1.405,-5.826 -0.373,-0.519 -0.517,0.458 0.375,0.537 z m -0.727,-1.453 c 0,0.08 -0.054,0.199 -0.163,0.357 l -0.045,-0.208 -0.043,-0.049 z m -0.339,0.436 v 0.045 c -0.047,-0.016 -0.118,-0.08 -0.21,-0.182 l 0.158,-0.14 c 0.035,0.121 0.052,0.211 0.052,0.277 m -0.017,-1.013 c -0.342,-0.409 -0.518,-0.748 -0.518,-1.014 0,-0.185 0.061,-0.276 0.18,-0.276 -0.07,0 -0.031,0.023 0.123,0.077 l 0.035,-0.041 c -0.128,-0.395 -0.259,-0.595 -0.386,-0.595 -0.168,0 -0.25,0.119 -0.25,0.36 0,0.261 0.093,0.563 0.272,0.895 0.184,0.33 0.359,0.542 0.526,0.635 z m 0.285,7.079 c 0,-0.147 -0.048,-0.284 -0.143,-0.419 -0.072,0.094 -0.142,0.142 -0.212,0.142 -0.119,0 -0.22,-0.199 -0.305,-0.599 -0.033,-0.291 -0.076,-0.582 -0.126,-0.875 -0.065,0.214 -0.201,0.518 -0.387,0.915 -0.038,-0.159 -0.114,-0.239 -0.236,-0.239 -0.222,0 -0.337,0.14 -0.337,0.419 0,0.304 0.105,0.457 0.302,0.457 0.24,0 0.445,-0.307 0.623,-0.913 0.157,1.046 0.356,1.571 0.606,1.571 0.145,0 0.215,-0.156 0.215,-0.459 m 5.634,-7.795 c 0,-0.782 -0.286,-1.173 -0.855,-1.173 -0.284,0 -0.514,0.144 -0.694,0.435 -0.059,0.095 -0.16,0.341 -0.318,0.738 -0.047,-0.927 -0.445,-1.391 -1.209,-1.391 -0.592,0 -0.865,0.518 -0.816,1.55 l 0.052,0.557 c 0.022,0.264 0.031,0.516 0.018,0.753 -0.167,-0.288 -0.291,-0.653 -0.372,-1.09 -0.049,-0.319 -0.095,-0.641 -0.145,-0.976 -0.097,-0.49 -0.269,-0.734 -0.514,-0.734 -0.18,0 -0.336,0.165 -0.471,0.498 -0.135,0.333 -0.204,0.687 -0.204,1.072 0,0.227 0.017,0.504 0.052,0.837 l -0.123,-0.058 -0.187,0.058 -0.151,0.06 c -0.228,-0.332 -0.705,-0.501 -1.443,-0.501 -0.268,0 -0.531,0.029 -0.781,0.081 l -0.036,0.062 c 0.13,-0.014 0.268,-0.021 0.409,-0.021 0.78,0 1.347,0.15 1.689,0.455 -0.119,0.081 -0.176,0.141 -0.176,0.181 0,0.107 0.031,0.216 0.089,0.325 0.057,0.117 0.087,0.177 0.087,0.191 l -0.013,0.049 -0.022,0.048 c 0,0.084 0.059,0.123 0.18,0.123 0.153,0 0.289,-0.076 0.408,-0.23 0.119,-0.152 0.178,-0.315 0.178,-0.484 v -0.122 c -0.037,-0.319 -0.017,-0.706 0.051,-1.171 0.108,-0.597 0.275,-0.895 0.5,-0.895 0.119,0 0.277,0.443 0.478,1.331 0.226,0.956 0.521,1.546 0.889,1.768 l -0.017,-0.575 c -0.096,-0.782 -0.145,-1.261 -0.145,-1.43 0,-0.651 0.211,-0.977 0.625,-0.977 0.261,0 0.495,0.118 0.705,0.358 0.206,0.237 0.307,0.518 0.307,0.834 l -0.281,1.75 0.192,0.577 c 0.168,-0.306 0.251,-0.522 0.251,-0.655 0.025,-0.434 0.104,-1.033 0.229,-1.788 0.177,-0.597 0.459,-0.895 0.838,-0.895 0.251,0 0.431,0.118 0.552,0.355 -0.132,0.334 -0.267,0.656 -0.41,0.976 -0.19,0.53 -0.297,0.948 -0.32,1.254 l -0.091,0.296 0.11,0.635 0.606,-1.012 v -0.181 c -0.086,0.055 -0.183,0.128 -0.285,0.219 v -0.096 c 0.39,-0.953 0.584,-1.614 0.584,-1.971 M -9.028,2.644 C -9.066,2.526 -9.129,2.363 -9.226,2.167 -9.664,2.023 -10.191,1.775 -10.805,1.43 c -0.688,-0.383 -1.211,-0.753 -1.567,-1.114 0.022,0.214 0.077,0.366 0.161,0.458 0.284,0.317 0.735,0.665 1.351,1.033 0.678,0.413 1.285,0.692 1.832,0.837 m -2.578,-2.246 c -0.343,-0.411 -0.516,-0.751 -0.516,-1.014 0,-0.189 0.058,-0.28 0.177,-0.28 -0.071,0 -0.032,0.026 0.124,0.079 l 0.036,-0.038 c -0.13,-0.396 -0.262,-0.596 -0.391,-0.596 -0.167,0 -0.247,0.118 -0.247,0.359 0,0.264 0.091,0.562 0.27,0.893 0.185,0.332 0.361,0.542 0.528,0.635 z m -0.445,2.922 c -0.536,-0.623 -0.803,-1.142 -0.803,-1.551 0,-0.29 0.092,-0.44 0.267,-0.44 l 0.123,0.062 0.092,0.061 0.053,-0.061 c -0.201,-0.623 -0.407,-0.934 -0.623,-0.934 -0.248,0 -0.37,0.191 -0.37,0.576 0,0.397 0.139,0.851 0.422,1.362 0.286,0.51 0.558,0.845 0.821,1.003 z M -1.65,-0.278 c -0.297,0.024 -0.464,0.04 -0.499,0.04 -0.665,0 -1.606,-0.094 -2.826,-0.278 -1.224,-0.185 -2.19,-0.282 -2.917,-0.282 -0.404,0 -0.733,0.154 -0.986,0.458 -0.256,0.305 -0.436,0.458 -0.543,0.458 -0.167,0 -0.586,-0.481 -1.258,-1.451 -0.716,-0.996 -1.257,-1.487 -1.64,-1.487 -0.298,0 -0.542,0.135 -0.739,0.405 -0.195,0.273 -0.292,0.62 -0.292,1.041 0,0.504 0.136,1.115 0.408,1.831 h 0.105 c -0.212,-0.676 -0.315,-1.205 -0.315,-1.591 0,-0.635 0.223,-0.956 0.671,-0.956 0.311,0 0.737,0.373 1.281,1.114 0.285,0.386 0.568,0.777 0.855,1.176 0.356,0.422 0.687,0.636 0.994,0.636 0.142,0 0.332,-0.149 0.568,-0.448 0.242,-0.3 0.584,-0.45 1.034,-0.45 0.757,0 1.739,0.088 2.933,0.262 1.197,0.169 2.126,0.257 2.79,0.257 h 0.267 l 0.109,-0.735" transform="matrix(4.5036929,0,0,-4.5036929,281.64388,288.70749)"/></svg>