<?xml version="1.0" encoding="utf-8"?>
<!DOCTYPE svg PUBLIC "-//W3C//DTD SVG 1.1//EN" "http://www.w3.org/Graphics/SVG/1.1/DTD/svg11.dtd">
<svg version="1.1" xmlns="http://www.w3.org/2000/svg" width="395px" height="128px" viewBox="0 0 395 128" preserveAspectRatio="xMidYMid meet">
 <g fill="#ff0000">
  <path d="M23.80 117.70 c-0.80 -2.10 -1.80 -4.20 -2.25 -4.65 -0.45 -0.50 -2.55 -1.30 -4.65 -1.80 -2.15 -0.50 -3.90 -1.15 -3.90 -1.40 0 -0.75 5.10 -6.10 5.80 -6.10 0.30 0 2.30 2.30 4.40 5.10 3.70 5 3.85 5.10 5.40 4.80 1.90 -0.35 2.90 -1 2.90 -1.95 0 -0.35 0.40 -0.85 0.85 -1.15 0.50 -0.25 0.75 -0.65 0.55 -0.80 -0.20 -0.20 -1.20 0.35 -2.25 1.20 -1.05 0.85 -2 1.55 -2.20 1.55 -0.15 0 -2.85 -3.15 -5.90 -7.05 -5.50 -6.85 -5.65 -7.05 -4.75 -8 0.75 -0.80 0.80 -1.20 0.35 -1.95 -0.55 -0.80 -0.15 -1.20 3.10 -3.40 2.05 -1.40 5.70 -3.45 8.10 -4.60 2.45 -1.20 4.80 -2.30 5.25 -2.55 0.50 -0.25 1.25 -0.45 1.65 -0.45 0.40 0 1.15 -0.20 1.65 -0.45 0.90 -0.45 3.15 -1.10 7.35 -2 3.95 -0.85 17.85 -1.60 19.80 -1.05 0.95 0.30 2.45 0.50 3.35 0.50 2.40 0 10.10 1.85 14.35 3.50 3.20 1.20 10.25 4.90 13.75 7.20 3.45 2.30 3.90 2.75 3.25 3.30 -0.70 0.60 -0.70 0.75 0 1.50 1.05 1.15 1 1.30 -1.50 4.45 -1.25 1.55 -3.70 4.65 -5.50 6.95 -1.85 2.25 -3.40 4.10 -3.55 4.10 -0.15 0 -1.50 -0.90 -3 -2.05 -1.55 -1.10 -2.90 -1.95 -3.05 -1.80 -0.10 0.15 0.45 0.75 1.30 1.40 0.85 0.65 1.55 1.50 1.55 2 0 0.95 3.90 2.20 4.75 1.45 0.25 -0.25 2.10 -2.55 4 -5.20 1.95 -2.60 3.75 -4.80 4.10 -4.80 0.60 0 5.75 5.65 5.75 6.35 -0.05 0.20 -1.80 0.85 -3.95 1.40 -2.15 0.55 -4.15 1.15 -4.40 1.35 -0.30 0.20 -1.30 2.25 -2.25 4.60 -0.95 2.35 -1.85 4.30 -2 4.30 -0.15 0 -1.65 -1.30 -3.30 -2.90 -1.65 -1.60 -4.15 -3.55 -5.60 -4.35 -1.60 -0.90 -2.60 -1.75 -2.60 -2.30 0 -1.15 -1.50 -1.60 -3.25 -0.95 l-1.40 0.50 0.25 -2.50 c0.15 -1.35 0.05 -2.50 -0.20 -2.50 -0.20 0 -1.35 -0.45 -2.55 -0.95 -1.15 -0.55 -2.75 -1.10 -3.60 -1.25 -0.80 -0.20 -3.05 -0.65 -5 -1.05 -1.90 -0.40 -4.50 -0.75 -5.75 -0.75 -3.25 0 -9.80 1.25 -13.25 2.50 -1.65 0.60 -3.35 1.20 -3.75 1.30 -0.55 0.20 -0.70 0.85 -0.60 2.70 l0.20 2.50 -1.65 -0.60 c-1.55 -0.55 -2.30 -0.20 -3.05 1.55 -0.10 0.20 -1.75 1.40 -3.75 2.70 -2 1.35 -4.40 3.30 -5.30 4.40 -0.95 1.05 -1.90 1.95 -2.15 1.95 -0.25 0 -1.10 -1.70 -1.90 -3.80z"/>
  <path d="M54.75 75.70 c-3.60 -0.60 -7 -3.05 -9.15 -6.65 -1.25 -2.10 -1.35 -2.75 -1.35 -7.30 0 -3.10 0.25 -5.60 0.70 -6.60 0.60 -1.45 0.90 -1.65 2.70 -1.65 l2 0 -0.30 2.30 c-0.35 3.10 0.80 6.20 3.10 8.60 2.20 2.25 5.75 4.10 7.85 4.10 1.80 0 4.95 -1.45 7 -3.15 1 -0.85 2.20 -1.35 3.15 -1.35 1.45 0 1.55 0.10 1.55 1.90 0 2.85 -3.15 6.90 -6.70 8.65 -1.95 0.95 -7.70 1.55 -10.55 1.15z"/>
  <path d="M229.75 71 l-3.95 -0.25 -4.55 -7.10 -4.50 -7.15 -2.10 0 -2.15 0 0 7.25 0 7.30 -4.10 -0.15 -4.15 -0.15 -0.15 -19.05 -0.10 -19.10 1.10 -0.25 c0.60 -0.20 4.30 -0.25 8.15 -0.15 8 0.20 11.30 1 14.05 3.40 2.20 1.95 3.05 3.60 3.45 6.70 0.55 4 -0.40 6.50 -3.75 9.70 l-2.90 2.80 5.25 7.70 c2.90 4.25 5.35 7.90 5.45 8.05 0.35 0.60 -0.95 0.70 -5.05 0.45z m-11.20 -23.75 c0.80 -0.45 1.75 -1.40 2 -2.15 0.50 -1.20 0.35 -1.50 -1.35 -2.95 -1.30 -1.15 -2.35 -1.65 -3.55 -1.65 l-1.65 0 0 3.75 0 3.75 1.50 0 c0.85 0 2.20 -0.35 3.05 -0.75z"/>
  <path d="M249.20 70.50 c-8.05 -2.60 -12.50 -11.40 -11.15 -22.30 0.95 -7.45 5.25 -13.05 11.85 -15.25 5.55 -1.90 15.15 -1.40 19 1 0.50 0.30 0.45 0.85 -0.25 2.60 -1.75 4.30 -1.60 4.20 -4.70 3.15 -6.05 -2.05 -11.95 -0.75 -14.95 3.35 -4 5.55 -3 16.50 1.85 19.75 1.80 1.20 5.45 1.75 8.40 1.25 l2 -0.30 0 -3.75 0 -3.75 -3.50 -0.25 -3.50 -0.25 0 -3.25 0 -3.25 7.75 0 c7.05 0 7.75 0.10 7.70 0.90 0 0.45 -0.05 4.95 -0.10 10 l-0.10 9.15 -2.10 0.55 c-6.70 1.90 -13.50 2.10 -18.20 0.65z"/>
  <path d="M329 70.80 c-4.20 -1.20 -4.35 -1.35 -4.60 -5.40 -0.15 -2 -0.15 -3.75 -0.05 -3.85 0.10 -0.15 1.95 0.40 4.15 1.20 7.55 2.60 12.65 1.70 12.65 -2.20 0 -2.10 -1.25 -3.35 -5.80 -5.60 -6.40 -3.15 -8.30 -4.75 -9.90 -8.20 -2.30 -5 0 -10.95 5.25 -13.60 3.55 -1.80 10 -1.90 14.95 -0.15 1.85 0.65 3.35 1.40 3.35 1.70 0 0.70 -1.60 4.90 -2.10 5.65 -0.35 0.40 -1.20 0.30 -3.30 -0.45 -3.80 -1.40 -8.15 -1.45 -9.55 -0.20 -1.35 1.25 -1.35 3.75 0 5.20 0.55 0.60 3 2.15 5.50 3.35 7.85 3.95 10.40 7.35 9.80 13.10 -0.40 3.85 -2.25 6.45 -6.05 8.35 -2.50 1.30 -3.55 1.55 -7.45 1.65 -2.70 0.05 -5.55 -0.15 -6.85 -0.55z"/>
  <path d="M125.40 52.15 c-0.15 -15.95 -0.05 -19 0.55 -19.50 0.75 -0.65 5.85 -0.90 7.25 -0.35 0.70 0.25 0.80 1.40 0.80 7.75 l0 7.45 7.50 0 7.45 0 0.15 -7.60 0.15 -7.65 3.65 -0.05 c3.05 -0.10 3.70 0.05 4.10 0.80 0.55 1 0.70 35.85 0.20 37.20 -0.25 0.65 -1.10 0.80 -4.25 0.80 l-3.95 0 -0.10 -8.10 -0.15 -8.15 -7.45 0 -7.45 0 -0.05 8 -0.05 8 -4.10 0.15 -4.10 0.15 -0.15 -18.90z"/>
  <path d="M162.50 70.15 c0 -0.80 6.70 -20.40 10.25 -29.90 0.90 -2.45 1.80 -5.10 2 -5.85 0.55 -2.20 1.30 -2.45 6.30 -2.30 l4.70 0.15 1.85 5.25 c1 2.90 2.65 7.50 3.65 10.25 3.35 9.30 7.75 22.10 7.75 22.70 0 0.35 -1.40 0.55 -4.20 0.55 l-4.25 0 -1.40 -4.35 -1.40 -4.40 -6.65 -0.25 c-4.60 -0.15 -6.85 -0.05 -7.15 0.30 -0.25 0.30 -1.05 2.40 -1.75 4.65 l-1.25 4.05 -4.25 0 c-3.60 0 -4.20 -0.10 -4.20 -0.85z m20.75 -17.50 c-0.30 -0.75 -1.20 -3.70 -2.05 -6.60 -0.35 -1.10 -0.70 -0.40 -1.95 3.65 l-1.15 3.80 2.75 0 c2.45 0 2.70 -0.10 2.40 -0.85z"/>
  <path d="M278.85 70.70 c-0.20 -0.20 -0.35 -8.85 -0.35 -19.25 0 -17.55 0.05 -18.90 0.90 -19.15 0.45 -0.15 5.45 -0.20 11.10 -0.15 l10.25 0.10 0 3.50 0 3.50 -6.75 0.05 -6.75 0 -0.15 4.10 -0.15 4.10 6.55 0 6.55 0 -0.15 3.40 -0.15 3.35 -6.25 0.05 -6.25 0.05 -0.15 4.85 -0.15 4.80 7.05 0 7.05 0 -0.15 3.40 -0.15 3.35 -10.80 0.15 c-5.90 0.05 -10.90 -0.05 -11.10 -0.20z"/>
  <path d="M308.80 70.20 c-0.15 -0.45 -0.30 -8.95 -0.30 -18.95 0 -13.90 0.15 -18.25 0.65 -18.60 0.30 -0.25 2.10 -0.50 4 -0.55 2.80 -0.05 3.45 0.10 3.85 0.90 0.55 1 0.70 35.85 0.20 37.20 -0.45 1.15 -7.95 1.15 -8.40 0z"/>
  <path d="M352 70.05 c0 -0.50 0.80 -3.15 1.80 -5.85 1 -2.75 3.45 -9.80 5.50 -15.70 2.05 -5.90 4.25 -12 4.85 -13.50 l1.15 -2.75 4.70 -0.15 c2.55 -0.05 4.85 0.05 5.05 0.25 0.25 0.25 2.35 5.90 4.70 12.65 2.35 6.75 4.70 13.40 5.25 14.75 1.95 5.15 3.50 9.85 3.50 10.55 0 0.55 -0.90 0.70 -4.20 0.70 l-4.20 0 -1.35 -4.10 c-0.75 -2.30 -1.50 -4.30 -1.70 -4.50 -0.15 -0.20 -3.30 -0.40 -7 -0.45 l-6.70 -0.05 -1.45 4.55 -1.45 4.55 -4.25 0 c-3.80 0 -4.20 -0.10 -4.20 -0.95z m20.50 -17.55 c0 -0.55 -0.20 -1.40 -0.45 -1.90 -0.25 -0.45 -0.80 -1.95 -1.20 -3.35 l-0.75 -2.50 -0.55 2.25 c-0.30 1.25 -0.80 2.75 -1.05 3.40 -1.05 2.45 -0.70 3.10 1.75 3.10 1.90 0 2.25 -0.15 2.25 -1z"/>
  <path d="M51 37.55 c-2.50 -0.30 -4.45 -0.85 -10 -2.80 -1.60 -0.60 -1.75 -0.80 -1.90 -2.95 l-0.15 -2.30 3.15 0.10 c2.55 0.05 3.65 -0.20 5.75 -1.25 1.80 -0.95 3.40 -1.35 5.15 -1.35 2.35 0 2.55 0.10 3.75 2 0.70 1.10 1.45 2 1.70 2 0.25 0 1.20 -0.90 2.05 -2 1.45 -1.80 1.80 -2 3.80 -2 1.40 0 3.35 0.50 5.10 1.35 2.30 1.05 3.50 1.30 6 1.25 l3.15 -0.10 -0.15 2.10 c-0.15 1.90 -0.35 2.25 -1.90 3 -4.50 2.15 -15.30 4.05 -17 3 -0.50 -0.30 -1.10 -0.35 -1.55 -0.05 -0.75 0.45 -2.70 0.45 -6.95 0z"/>
 </g>
 <g fill="#ffffff">
  <path d="M51.25 113.75 c-0.25 -0.10 -1.35 -0.30 -2.35 -0.50 -1.20 -0.20 -1.90 -0.55 -1.90 -1 0 -0.85 1.10 -0.90 4.70 -0.45 1.80 0.25 2.30 0.55 2.30 1.25 0 0.90 -1.25 1.20 -2.75 0.70z"/>
  <path d="M64 113 c0 -0.85 0.35 -1 2 -1 2.25 0 2.85 1.15 0.90 1.70 -2.10 0.55 -2.90 0.35 -2.90 -0.70z"/>
  <path d="M32.15 112.60 c0.90 -0.95 5.15 -2.50 5.65 -2 0.15 0.15 -0.10 0.60 -0.50 1.05 -0.40 0.40 -0.65 0.80 -0.55 0.90 0.10 0.10 -0.55 0.20 -1.40 0.20 -0.90 0 -2.15 0.20 -2.85 0.45 -1.20 0.40 -1.25 0.40 -0.35 -0.60z"/>
  <path d="M81.25 111.50 c-1.05 -1.15 -0.95 -1.20 1.15 -0.45 0.90 0.30 1.45 0.75 1.30 1 -0.45 0.75 -1.50 0.50 -2.45 -0.55z"/>
  <path d="M40.45 111.15 c-1.15 -0.30 -0.60 -2.15 0.60 -2.15 0.70 0 0.95 0.35 0.95 1.25 0 1.25 -0.10 1.30 -1.55 0.90z"/>
  <path d="M75.50 110.30 c0 -1.60 1.75 -1.85 2.15 -0.30 0.15 0.55 0.05 1 -0.15 1 -0.25 0 -0.75 0.15 -1.20 0.30 -0.60 0.25 -0.80 0 -0.80 -1z"/>
  <path d="M32.85 109.85 c-0.15 -0.45 0.45 -1.10 1.70 -1.75 1.55 -0.85 1.95 -0.90 1.95 -0.30 0 0.35 -0.25 0.70 -0.60 0.70 -0.30 0 -1.10 0.45 -1.70 1.05 -0.85 0.80 -1.15 0.85 -1.35 0.30z"/>
  <path d="M82.55 109 c-0.95 -0.80 -1.60 -1.60 -1.50 -1.75 0.15 -0.10 1.05 0.55 1.95 1.50 2.05 2.10 1.85 2.25 -0.45 0.25z"/>
  <path d="M36.10 96.90 c-1.65 -5.15 -1.60 -6.15 0.20 -5.80 0.60 0.10 1 0.65 1.10 1.55 0.20 1.75 1.10 2.15 2.95 1.25 1.25 -0.60 1.40 -0.95 1.40 -2.90 0 -1.90 0.15 -2.25 0.95 -2.25 0.85 0 1.10 0.70 1.85 4.50 1.15 5.60 1.15 6.75 0.20 6.75 -0.90 0 -1.75 -1.55 -1.75 -3.20 0 -1.45 -0.55 -1.60 -2.95 -0.75 -1.20 0.40 -1.55 0.80 -1.30 1.40 0.20 0.45 0.45 1.65 0.60 2.70 0.25 1.60 0.15 1.85 -0.65 1.85 -0.80 0 -1.30 -1 -2.60 -5.10z"/>
  <path d="M77.65 99.40 c0.20 -0.90 0.45 -2.15 0.60 -2.70 0.30 -0.90 0.05 -1.20 -1.45 -1.70 -2.10 -0.70 -2.80 -0.35 -2.80 1.25 0 1.80 -0.50 2.75 -1.55 2.75 -1.15 0 -1.15 -0.20 -0.15 -5.50 1.10 -5.70 1.05 -5.60 2.05 -5.40 0.70 0.15 0.85 0.60 0.75 2.30 -0.10 1.90 0 2.15 1.25 2.65 1.95 0.75 2.85 0.35 3.15 -1.30 0.15 -0.90 0.60 -1.55 1.20 -1.65 1.45 -0.30 2.05 0.65 1.40 2.25 -0.30 0.75 -1 3.05 -1.60 5.05 -0.85 3 -1.20 3.60 -2.10 3.60 -0.90 0 -1 -0.20 -0.75 -1.60z"/>
  <path d="M57.70 97.45 c-2.35 -0.65 -3.35 -2.10 -3.60 -5.20 -0.20 -2.65 -0.15 -2.85 1.60 -4.50 1.55 -1.45 2.25 -1.75 4 -1.75 1.30 0 2.40 0.30 2.80 0.75 1 1.20 0.10 1.85 -2 1.50 -2.55 -0.45 -4 0.90 -4 3.75 0 3.25 3.50 5.60 3.90 2.60 0.15 -0.80 -0.20 -1.25 -1.25 -1.65 -1.35 -0.50 -1.35 -0.55 -0.45 -1.25 1.20 -0.85 3.10 -0.90 3.60 -0.10 0.45 0.70 0.25 5 -0.20 5.45 -0.70 0.65 -2.90 0.85 -4.40 0.40z"/>
  <path d="M18.10 95.45 c-0.55 -0.85 -0.45 -0.95 0.90 -0.95 1.70 0 1.90 0.50 0.60 1.35 -0.75 0.45 -1.05 0.35 -1.50 -0.40z"/>
  <path d="M97.65 95.25 c-0.30 -0.90 1.15 -2.75 2.20 -2.75 0.35 0 0.65 -0.45 0.65 -1 0 -0.80 0.35 -1 1.55 -1 1.20 0 1.45 0.15 1.10 0.65 -3.80 5.05 -4.80 5.80 -5.50 4.10z"/>
  <path d="M131.25 93.80 c-0.85 -0.35 -1.95 -1.25 -2.40 -2 -0.85 -1.30 -0.85 -1.30 0.30 -1.30 0.65 0 1.60 0.45 2.10 1 0.75 0.80 1.55 1 4.35 1 2.55 0 3.40 0.15 3.40 0.70 0 1.35 -5.10 1.75 -7.75 0.60z"/>
  <path d="M159 94.10 c-0.45 -0.05 -1.55 -1.50 -2.45 -3.10 -1.40 -2.60 -1.80 -3 -3.10 -3 -1.45 0 -1.45 0.05 -1.45 2.75 0 2.40 -0.10 2.75 -1 2.75 -0.95 0 -1 -0.35 -1 -6.60 0 -3.65 0.20 -6.95 0.45 -7.35 0.55 -0.85 5.40 -0.95 6.95 -0.10 2.50 1.35 2.85 5.75 0.55 7.20 -1.25 0.80 -1.20 1.05 0.60 3.95 1.60 2.60 1.75 3.80 0.45 3.50z"/>
  <path d="M173.20 94.15 c-0.60 -0.10 -1.80 -0.95 -2.70 -1.90 -1.50 -1.55 -1.70 -2.10 -1.80 -4.90 -0.15 -2.35 0.10 -3.65 0.75 -4.90 1.95 -3.65 6.15 -4.95 9.40 -2.95 2.30 1.40 3 2.80 3.35 6.70 0.25 2.95 0.10 3.70 -0.70 5.10 -1.60 2.55 -4.60 3.60 -8.30 2.85z"/>
  <path d="M195.40 94.15 c-0.50 -0.10 -0.90 -0.55 -0.90 -0.95 0 -0.50 0.65 -0.70 2.40 -0.70 2.95 0 4.40 -0.95 4.80 -3.25 0.50 -2.50 1.80 -2.35 1.80 0.25 0 1.65 -0.15 2 -1 2 -0.65 0 -1 0.35 -1 0.95 0 0.55 -0.15 1.10 -0.35 1.20 -0.65 0.40 -4.85 0.80 -5.75 0.50z"/>
  <path d="M269.75 93.80 c-2.50 -1.10 -3.45 -3 -3.50 -7.20 -0.10 -3.55 -0.05 -3.70 1.70 -5.70 1.60 -1.75 2.15 -2.05 4.30 -2.25 4.55 -0.45 7.70 2.95 7.75 8.25 0.05 5.75 -5.05 9.15 -10.25 6.90z"/>
  <path d="M292.50 93.50 c0 -0.75 0.35 -1 1.20 -1 0.70 0 1.60 -0.50 2 -1.10 0.70 -1 0.70 -1.20 0 -2.30 -0.75 -1.15 -0.75 -1.15 0.65 -1 1.50 0.15 2 1.40 1.45 3.70 -0.55 2.20 -5.30 3.75 -5.30 1.70z"/>
  <path d="M342.15 94.15 c-0.50 -0.15 -0.65 -2 -0.65 -6.70 l0 -6.45 -2.20 0 c-2.45 0 -3.25 -0.65 -2.30 -1.75 0.75 -0.95 10 -1.05 10.85 -0.20 1.10 1.10 0.10 1.95 -2.15 1.95 l-2.20 0 0 6.45 c0 3.60 -0.15 6.60 -0.35 6.70 -0.25 0.10 -0.70 0.10 -1 0z"/>
  <path d="M244.75 93.50 c-0.45 -0.75 0.30 -3 1.05 -3 0.45 0 0.70 0.60 0.70 1.75 0 1.70 -1 2.45 -1.75 1.25z"/>
  <path d="M254 93 c0 -0.65 0.35 -1 1 -1 0.65 0 1 0.35 1 1 0 0.65 -0.35 1 -1 1 -0.65 0 -1 -0.35 -1 -1z"/>
  <path d="M307.10 87 c-0.10 -7.80 0.20 -8.50 3.15 -8.50 3.85 0 6.75 2.15 6.75 5 0 2.50 -1.80 4.10 -4.90 4.50 l-2.35 0.25 -0.15 2.90 c-0.15 2.60 -0.25 2.85 -1.30 2.85 -1.15 0 -1.15 -0.05 -1.20 -7z"/>
  <path d="M326.50 86.50 c0 -6 0.15 -7.50 0.70 -7.50 0.85 0 1.30 3.15 1.30 9.05 0 4.80 -0.25 5.95 -1.30 5.95 -0.55 0 -0.70 -1.40 -0.70 -7.50z"/>
  <path d="M355 93 c0 -0.55 0.35 -1 0.75 -1 0.45 0 0.70 -0.40 0.65 -1.15 -0.10 -1 3 -9.65 4.05 -11.30 0.90 -1.40 1.95 0 4.05 5.30 1.15 2.95 2.45 6.05 2.80 6.85 0.90 1.90 0.90 2.30 -0.20 2.30 -0.60 0 -1.25 -0.75 -1.90 -2.10 l-0.95 -2.15 -2.75 0 c-2.75 0 -2.75 0 -3.75 2.15 -1.05 2.25 -2.75 2.95 -2.75 1.10z"/>
  <path d="M214.10 86.40 l0.15 -7.10 1.95 -0.40 c5.55 -1.15 9.50 4 5.85 7.65 -1.20 1.20 -1.90 1.45 -3.75 1.45 l-2.30 0 0 2.75 c0 2.45 -0.10 2.75 -1 2.75 -1 0 -1 -0.25 -0.90 -7.10z"/>
  <path d="M17.50 90 c0 -0.65 -0.50 -1.20 -1.25 -1.50 -1 -0.40 -1.25 -0.80 -1.25 -2.25 0 -1.20 0.30 -1.95 1 -2.35 0.55 -0.35 1 -1.15 1 -1.75 0 -0.95 0.25 -1.15 1.70 -1.15 0.95 0 1.90 0.25 2.05 0.50 0.15 0.30 1.10 0.50 2.05 0.50 l1.70 0 0 3.75 c0 3.60 -0.05 3.75 -1.20 3.75 -0.65 0 -1.45 0.35 -1.80 0.75 -0.35 0.40 -1.40 0.75 -2.30 0.75 -1.35 0 -1.70 -0.20 -1.70 -1z"/>
  <path d="M95 90.25 c-0.35 -0.40 -1.15 -0.75 -1.80 -0.75 -1.05 0 -1.20 -0.25 -1.20 -1.95 0 -1.10 0.25 -2.15 0.50 -2.30 0.30 -0.15 0.50 -1.05 0.50 -1.90 l-0.05 -1.60 -0.85 1.40 c-0.70 1.10 -1.20 1.35 -2.90 1.35 -2.05 0 -2.05 0 -7.95 -7.50 -3.25 -4.10 -6.05 -7.50 -6.20 -7.50 -0.20 0 -2.65 2.90 -5.45 6.45 l-5.15 6.45 -5.55 0.05 c-3.05 0.05 -5.70 0.20 -5.95 0.30 -0.20 0.15 -2.65 -2.65 -5.50 -6.25 -2.80 -3.55 -5.30 -6.50 -5.55 -6.50 -0.70 0 -2.75 2.30 -7.75 8.55 -3.90 4.95 -4.45 5.45 -5.95 5.45 -1.90 0 -3 -1.25 -5.15 -6.10 -4.50 -10.05 -4.65 -23.05 -0.35 -33.65 0.55 -1.35 0.60 -1.75 0.10 -1.10 -0.35 0.45 -0.90 0.85 -1.15 0.85 -0.30 0 -0.65 1.15 -0.80 2.55 -0.20 1.40 -0.65 3.10 -1.10 3.75 -0.40 0.65 -0.75 1.90 -0.75 2.85 0 0.95 -0.15 1.85 -0.40 2.05 -0.55 0.60 -1.45 8.75 -1 9.20 0.25 0.25 0.50 2.15 0.55 4.25 0.10 3.30 0.25 3.85 1 3.85 0.65 0 0.85 0.45 0.85 1.95 0 1.10 -0.25 2.15 -0.55 2.30 -1 0.65 -6.20 1.70 -8.40 1.75 l-2.15 0 0.20 -2.20 c0.10 -1.80 0 -2.30 -0.70 -2.50 -0.70 -0.15 -0.90 -0.70 -0.90 -2.25 0 -2 0.05 -2.05 2.35 -2.70 l2.30 -0.70 -2.30 -0.65 c-2.90 -0.80 -3.45 -1.45 -3.25 -3.80 0.15 -1.65 0.40 -2 2.40 -3 l2.25 -1.10 -1.50 -0.35 c-2.55 -0.55 -2.75 -0.70 -2.75 -1.75 0 -0.55 -0.35 -1 -0.75 -1 -0.40 0 -0.75 -0.40 -0.75 -0.85 0 -1.70 0.60 -3.15 1.30 -3.15 0.40 0 0.70 -0.25 0.70 -0.50 0 -0.30 0.70 -0.85 1.55 -1.20 0.95 -0.40 1.35 -0.80 1 -1 -0.70 -0.45 -0.75 -6.05 -0.05 -7.35 0.35 -0.65 1.05 -0.95 2.10 -0.95 1.25 0 1.45 -0.15 1 -0.60 -1.65 -1.65 0.10 -6.90 2.25 -6.90 1 0 1.15 -0.25 1.15 -2 0 -1.95 0.05 -2 1.75 -2 1.70 0 1.75 -0.05 1.75 -1.85 0 -1.05 0.20 -2.25 0.50 -2.65 0.30 -0.45 0.25 -0.85 -0.10 -1.05 -0.55 -0.35 3 -4.10 5.70 -6.05 l1.40 -0.95 0 1 c0 0.90 0.30 1.05 2.25 1.05 1.90 0 2.80 0.35 5 2 2.25 1.65 2.70 2.25 2.85 3.75 l0.15 1.75 1.50 -0.80 c0.85 -0.45 2.50 -1.25 3.75 -1.75 l2.25 -0.90 -2.85 -0.05 c-1.95 0 -3.10 -0.25 -3.65 -0.85 -1.80 -1.80 -2.30 -5.35 -1.05 -7.75 0.70 -1.35 0.70 -1.40 -0.50 -1.40 -0.75 0 -1.20 0.30 -1.20 0.75 0 0.50 -0.55 0.75 -1.75 0.75 -1.40 0 -1.75 0.20 -1.75 1 0 0.80 -0.35 1 -1.75 1 -0.95 0 -1.75 -0.20 -1.75 -0.40 0 -0.45 6.50 -4.25 8.65 -5.05 1.25 -0.50 1.35 -0.45 1.35 0.80 0 1.05 0.15 1.20 0.60 0.75 0.35 -0.35 1.80 -0.60 3.25 -0.60 2.65 0 2.65 0 2.75 1.65 0.05 1.15 0.15 0.90 0.35 -0.90 l0.30 -2.50 3.75 -0.15 c3 -0.10 3.85 0 4.30 0.65 0.50 0.70 0.70 0.70 1.05 0.10 0.70 -1.20 2.50 -1.85 5.15 -1.85 2.25 0 2.80 0.20 4 1.50 1.30 1.40 1.40 1.40 1.65 0.50 0.20 -0.80 0.70 -1 2.20 -1 1.05 0 2.15 0.20 2.45 0.45 0.25 0.25 1.35 0.55 2.45 0.65 1.80 0.15 2 0.30 2.25 1.65 0.20 1 0.40 1.30 0.65 0.85 0.50 -0.75 3.55 -0.80 4.90 -0.10 0.80 0.45 0.95 0.35 0.95 -0.50 0 -1.20 0.20 -1.25 2.05 -0.15 1.75 1.05 1.85 1.65 0.35 1.65 -1.10 0 -1.15 0.15 -1 2.95 0.15 2.60 0.05 3.05 -0.95 3.75 -0.65 0.45 -1.75 0.80 -2.50 0.80 -0.75 0 -1.60 0.35 -1.95 0.75 -0.35 0.40 -1.35 0.75 -2.20 0.75 -1.45 0.05 -1.35 0.10 1.20 1.30 1.50 0.70 3.35 1.75 4.10 2.30 l1.40 0.95 0 -1.60 c0 -1.15 0.60 -2.30 2.30 -4.25 2.10 -2.50 2.45 -2.70 4.50 -2.70 2.10 0 2.20 0.05 2.20 1.50 0 1.25 0.20 1.50 1.20 1.50 0.95 0 1.25 -0.30 1.40 -1.30 l0.15 -1.35 1.45 1.45 c1.35 1.40 1.40 1.45 0.35 1.60 -0.90 0.15 -1.05 0.50 -1.05 2.40 l0 2.20 2 0 c3.10 0 4.50 1.65 4.50 5.25 0 2.70 0.05 2.75 1.40 2.75 2.15 0 3.10 1.40 3.10 4.40 0 2.25 0.15 2.55 1.15 2.70 1 0.15 1.10 0.45 1.25 4.05 0.10 2.95 0.30 3.85 0.85 3.85 0.40 0 0.75 -0.35 0.75 -0.75 0 -1.20 1.35 -0.90 1.70 0.40 0.45 1.75 0.35 2.35 -0.40 2.35 -0.55 0 -0.60 1.10 -0.40 5.75 l0.25 5.75 -1.70 0 c-1.25 0 -1.50 0.15 -1.05 0.60 0.30 0.30 1.35 0.55 2.35 0.50 1.35 -0.05 1.75 0.15 1.75 0.80 0 1.65 -0.60 3.10 -1.30 3.10 -0.40 0 -0.70 0.35 -0.70 0.75 0 0.70 -2.75 1.75 -4.75 1.75 -0.60 0 -0.20 0.40 1.15 1 2.05 0.95 2.15 1.10 2 2.85 l-0.15 1.90 -3.25 -0.05 c-2.30 -0.05 -3.40 0.15 -3.75 0.65 -0.35 0.50 -1.20 0.65 -2.50 0.55 l-2 -0.15 0 -2.25 c0.05 -1.25 0.45 -3 0.90 -3.95 0.45 -0.95 0.85 -2.20 0.85 -2.80 0 -0.55 0.25 -1.30 0.55 -1.60 0.35 -0.35 0.55 -2.40 0.50 -5.60 l-0.10 -5.05 3 0 c1.65 0 3.15 -0.25 3.35 -0.55 0.20 -0.35 -0.50 -0.45 -2.45 -0.20 -4 0.50 -4.95 0.10 -4.75 -2.10 0.15 -1.60 0.50 -2.10 2.30 -3 0.10 -0.05 -0.05 -0.55 -0.40 -1.10 -0.35 -0.70 -1.05 -1.05 -2 -1.05 -1.40 0 -1.50 -0.15 -1.50 -1.90 0 -1.35 -0.30 -2.05 -1.05 -2.55 -1 -0.60 -1.05 -0.55 -0.70 0.30 1.50 3.65 2.75 10.80 2.75 15.40 -0.05 6.40 -2.35 15.90 -4.80 19.65 l-0.80 1.20 3.80 -0.35 3.80 -0.35 0 1.75 c0 1.10 0.30 1.85 0.75 2.05 0.45 0.15 0.75 0.95 0.75 2.05 0 1.50 -0.15 1.75 -1.20 1.75 -0.85 0 -1.30 0.35 -1.50 1.25 -0.25 1 -0.60 1.25 -2 1.25 -0.90 0 -1.95 -0.35 -2.30 -0.75z m-31.50 -17.10 c2.15 -0.95 3.70 -2.30 5.55 -4.85 1.90 -2.60 1.85 -3.20 -0.15 -1.50 -5.55 4.65 -12.95 4.25 -17.95 -0.90 -2.20 -2.25 -3.65 -6.10 -3.35 -8.95 0.10 -1.05 0.05 -1.95 -0.15 -1.95 -0.80 0 -1.70 3.55 -1.70 6.75 0 2.90 0.25 3.90 1.35 5.80 3.55 6.05 10.20 8.30 16.40 5.60z m43.20 -9.90 c-0.20 -0.40 -0.80 -0.75 -1.40 -0.75 -1.05 0.05 -1.05 0.05 -0.10 0.75 1.25 0.95 1.85 0.95 1.50 0z m-12.20 -22.70 c0 -1.10 -0.25 -1.50 -1.20 -1.65 l-1.15 -0.25 0.95 1.70 c1.20 2 1.40 2.05 1.40 0.20z m-69 -1.65 c0 -0.25 -0.35 -0.40 -0.75 -0.40 -0.50 0 -0.75 0.50 -0.75 1.35 0 1.30 0.05 1.30 0.75 0.35 0.40 -0.50 0.75 -1.10 0.75 -1.30z m31.10 -3 c1.25 -1 1.45 -2.85 0.40 -3.40 -0.50 -0.25 -1.35 -1.25 -1.95 -2.25 -1.20 -2.05 -2.20 -2.20 -5.15 -0.70 -3.35 1.70 -6.25 2.40 -7.95 1.95 -2.25 -0.65 -1.75 0.90 0.55 1.75 6.05 2.15 8.65 2.85 9.90 2.60 0.75 -0.15 1.70 -0.10 2.10 0.20 1 0.60 1.15 0.55 2.10 -0.15z m11.90 -0.75 c1.50 -0.40 3.50 -0.90 4.40 -1.15 1.75 -0.45 4.10 -1.80 4.10 -2.40 0 -0.20 -1.40 -0.35 -3.10 -0.35 -2.35 -0.05 -3.85 -0.35 -6 -1.40 -1.55 -0.75 -3.15 -1.35 -3.55 -1.35 -0.70 0 -4.85 4.55 -4.85 5.35 0 0.25 0.35 0.90 0.75 1.50 0.60 0.85 1.10 1 3.10 0.80 1.35 -0.15 3.65 -0.60 5.15 -1z m21.50 -1.40 c0 -1 -0.25 -1.25 -1.35 -1.25 l-1.30 0 1.15 1.25 c0.65 0.70 1.25 1.25 1.35 1.25 0.10 0 0.15 -0.55 0.15 -1.25z m-58.50 -2 c0.50 -0.60 0.50 -0.75 -0.20 -0.75 -0.45 0 -0.80 0.35 -0.80 0.75 0 0.40 0.10 0.75 0.20 0.75 0.10 0 0.45 -0.35 0.80 -0.75z m55 -1.25 c0 -0.75 -0.35 -1 -1.30 -1 l-1.30 0 1.15 1 c1.50 1.20 1.45 1.20 1.45 0z m-51.25 -1.80 l1.50 -1.25 -1.75 0.15 c-1.40 0.10 -1.80 0.40 -1.90 1.30 -0.20 1.40 0.30 1.35 2.15 -0.20z m-8 -2.55 c-0.20 -0.50 -0.50 -1.85 -0.60 -3 -0.25 -1.80 -0.45 -2.15 -1.40 -2.15 -0.90 0 -1.20 0.35 -1.35 1.50 -0.20 1.25 -0.05 1.45 1.05 1.60 1 0.10 1.35 0.45 1.45 1.55 0.10 0.75 0.40 1.35 0.70 1.35 0.30 0 0.35 -0.35 0.15 -0.85z m46.25 -3.50 c0 -0.80 -0.40 -0.85 -3.35 -0.70 l-3.40 0.20 2.20 0.40 c1.20 0.25 2.30 0.55 2.45 0.70 0.65 0.60 2.10 0.20 2.10 -0.60z m-22.65 -0.45 c2.45 -0.60 5.10 -0.75 9.45 -0.60 5.10 0.15 5.95 0.10 5.40 -0.50 -0.40 -0.35 -0.70 -0.90 -0.70 -1.15 0 -0.30 -0.50 -0.15 -1.10 0.25 -1.30 0.90 -5.45 1.05 -6.95 0.30 -0.55 -0.30 -0.95 -0.35 -0.95 -0.05 0 0.25 -1.80 0.60 -4 0.80 -2.40 0.20 -4.20 0.60 -4.55 1.05 -0.70 0.85 -0.75 0.85 3.40 -0.10z"/>
  <path d="M244.85 88.05 c-0.10 -0.50 -0.20 -2.20 -0.20 -3.80 0 -3.55 0.25 -4.75 1.15 -4.75 0.55 0 0.70 1.05 0.70 4.75 0 3.70 -0.15 4.75 -0.70 4.75 -0.35 0 -0.80 -0.40 -0.95 -0.95z"/>
  <path d="M134.85 87.65 c-0.70 -0.65 -0.30 -1.65 0.65 -1.65 0.65 0 1 0.35 1 1 0 0.95 -1 1.35 -1.65 0.65z"/>
  <path d="M247 86.10 c0 -0.65 0.30 -0.90 1.15 -0.80 0.60 0.05 1.40 0.15 1.75 0.15 0.30 0.05 0.60 0.40 0.60 0.80 0 0.50 -0.55 0.75 -1.75 0.75 -1.35 0 -1.75 -0.20 -1.75 -0.90z"/>
  <path d="M290.40 85.90 c-1.60 -1.15 -1.90 -2.90 -0.50 -2.90 1.05 0 2.30 1.95 2 3.15 -0.15 0.65 -0.35 0.65 -1.50 -0.25z"/>
  <path d="M105.50 84.25 c0 -1.55 0.15 -1.75 1.30 -1.75 0.70 0 1.20 0.15 1.10 0.40 -1.75 3.65 -2.40 4 -2.40 1.35z"/>
  <path d="M201.85 84.40 c-0.20 -0.60 -0.15 -2.05 0 -3.25 0.25 -1.70 0.50 -2.15 1.30 -2.15 0.85 0 0.95 0.25 0.65 1.55 -0.15 0.85 -0.30 2.35 -0.30 3.25 0 1.95 -1.20 2.35 -1.65 0.60z"/>
  <path d="M128.95 81.55 c1.95 -2.70 6.65 -3.90 9.50 -2.40 1.95 1 1 1.60 -2.55 1.60 -2.75 0 -3.50 0.20 -4.50 1.15 -0.65 0.60 -1.70 1.10 -2.35 1.10 l-1.10 0 1 -1.45z"/>
  <path d="M289 81.55 c0 -0.90 1.70 -2.55 2.60 -2.55 0.25 0 0.40 0.45 0.40 1 0 0.55 -0.20 1 -0.50 1 -0.25 0 -0.50 0.35 -0.50 0.75 0 0.40 -0.45 0.75 -1 0.75 -0.65 0 -1 -0.35 -1 -0.95z"/>
  <path d="M254.10 80.65 c0.10 -0.85 0.50 -1.45 1.05 -1.55 0.65 -0.15 0.85 0.15 0.85 1.35 0 1.25 -0.20 1.55 -1.05 1.55 -0.80 0 -1 -0.25 -0.85 -1.35z"/>
  <path d="M376.50 80 c0 -0.65 0.35 -1 1 -1 0.65 0 1 0.35 1 1 0 0.65 -0.35 1 -1 1 -0.65 0 -1 -0.35 -1 -1z"/>
  <path d="M254.15 71.15 c1.30 -0.10 3.35 -0.10 4.50 0 1.15 0.10 0.10 0.15 -2.40 0.15 -2.45 0 -3.40 -0.05 -2.10 -0.15z"/>
  <path d="M332.90 71.15 c1.15 -0.10 3.05 -0.10 4.25 0 1.15 0.10 0.20 0.20 -2.15 0.20 -2.35 0 -3.30 -0.10 -2.10 -0.20z"/>
  <path d="M165.90 70.65 c0.60 -0.10 1.50 -0.10 2 0 0.45 0.15 -0.05 0.25 -1.15 0.20 -1.10 0 -1.50 -0.10 -0.85 -0.20z"/>
  <path d="M194.15 70.65 c0.45 -0.10 1.25 -0.10 1.75 0 0.45 0.15 0.05 0.25 -0.90 0.25 -0.95 0 -1.35 -0.10 -0.85 -0.25z"/>
  <path d="M287.60 70.65 c1.85 -0.10 5 -0.10 7 0 2 0.05 0.50 0.15 -3.35 0.15 -3.85 0 -5.50 -0.05 -3.65 -0.15z"/>
  <path d="M157.25 51.75 c0 -10.15 0.05 -14.25 0.10 -9.10 0.10 5.20 0.10 13.50 0 18.50 -0.05 5 -0.10 0.80 -0.10 -9.40z"/>
  <path d="M308.75 51.50 c0 -10.30 0.05 -14.55 0.10 -9.40 0.10 5.20 0.10 13.60 0 18.75 -0.05 5.20 -0.10 0.95 -0.10 -9.35z"/>
  <path d="M317.25 51.75 c0 -10.15 0.05 -14.25 0.10 -9.10 0.10 5.20 0.10 13.50 0 18.50 -0.05 5 -0.10 0.80 -0.10 -9.40z"/>
  <path d="M133.70 62.25 c0 -3.30 0.05 -4.60 0.15 -2.85 0.10 1.70 0.10 4.40 0 6 -0.10 1.55 -0.15 0.15 -0.15 -3.15z"/>
  <path d="M278.70 55.50 c0 -5.10 0.10 -7.15 0.15 -4.60 0.10 2.50 0.10 6.70 0 9.25 -0.05 2.50 -0.15 0.45 -0.15 -4.65z"/>
  <path d="M177.65 61.65 c1.55 -0.10 4.15 -0.10 5.75 0 1.55 0.10 0.25 0.15 -2.90 0.15 -3.15 0 -4.45 -0.05 -2.85 -0.15z"/>
  <path d="M368.90 61.65 c1.40 -0.10 3.80 -0.10 5.25 0 1.40 0.10 0.25 0.15 -2.65 0.15 -2.90 0 -4.05 -0.05 -2.60 -0.15z"/>
  <path d="M175.95 54.75 c-0.15 -0.10 0.50 -2.50 1.40 -5.35 0.90 -2.80 1.65 -5.50 1.65 -5.95 0 -0.50 0.25 -1.05 0.50 -1.20 0.30 -0.15 0.50 -1.10 0.50 -2.05 0 -2.25 0.65 -1.85 1.45 0.90 0.35 1.20 0.85 2.60 1.05 3.15 0.20 0.55 0.90 2.70 1.55 4.75 0.60 2.05 1.35 4 1.60 4.35 0.90 1.25 -0.30 1.65 -4.85 1.65 -2.55 0 -4.75 -0.10 -4.85 -0.25z"/>
  <path d="M365.65 53.90 c1.55 -6.25 4.10 -14.40 4.55 -14.25 0.50 0.15 0.60 0.50 2.05 5.60 0.45 1.65 1 3.45 1.25 4 0.75 1.95 1.50 4.60 1.50 5.15 0 0.40 -1.45 0.60 -4.80 0.60 -4.75 0 -4.80 0 -4.55 -1.10z"/>
  <path d="M291.15 54.15 c1.55 -0.10 4.15 -0.10 5.75 0 1.55 0.10 0.25 0.15 -2.90 0.15 -3.15 0 -4.45 -0.05 -2.85 -0.15z"/>
  <path d="M212.50 48.90 c-0.05 -1.40 -0.10 -8.70 -0.05 -9.25 0.05 -0.45 1.05 -0.65 3.20 -0.65 2.75 0 3.35 0.20 5 1.55 1.45 1.20 1.85 1.85 1.85 3.20 0 2.50 -0.80 4.10 -2.45 5 -1.85 0.95 -7.55 1.05 -7.55 0.15z"/>
  <path d="M257.15 49.15 c0.75 -0.10 1.85 -0.10 2.50 0 0.60 0.10 0 0.20 -1.40 0.20 -1.35 0 -1.90 -0.10 -1.10 -0.20z"/>
  <path d="M133.70 40 c0 -4.25 0.10 -6 0.15 -3.85 0.10 2.10 0.10 5.60 0 7.75 -0.05 2.10 -0.15 0.35 -0.15 -3.90z"/>
  <path d="M290.75 39.15 c4.80 -0.35 10.15 -0.35 9.90 0 -0.10 0.20 -2.85 0.30 -6.05 0.25 -3.20 -0.05 -4.95 -0.15 -3.85 -0.25z"/>
  <path d="M127.85 32.15 c0.90 -0.10 2.50 -0.10 3.50 0 1.05 0.10 0.35 0.20 -1.60 0.20 -1.90 0 -2.75 -0.10 -1.90 -0.20z"/>
  <path d="M209.65 32.15 c1.60 -0.10 4.05 -0.10 5.50 0 1.45 0.10 0.15 0.15 -2.90 0.15 -3 0 -4.20 -0.05 -2.60 -0.15z"/>
  <path d="M285.90 32.15 c2.25 -0.10 5.95 -0.10 8.25 0 2.25 0.05 0.40 0.15 -4.15 0.15 -4.55 0 -6.40 -0.10 -4.10 -0.15z"/>
  <path d="M41 10.85 c0 -0.40 0.80 -0.90 1.75 -1.20 1.65 -0.55 1.75 -0.50 1.75 0.65 0 1.05 -0.25 1.20 -1.75 1.20 -1.10 0 -1.75 -0.25 -1.75 -0.65z"/>
  <path d="M65 8.50 c0 -1.05 0.80 -1.25 2.90 -0.70 1.95 0.55 1.35 1.70 -0.90 1.70 -1.65 0 -2 -0.15 -2 -1z"/>
  <path d="M54 8.30 c0 -0.85 1.55 -1.30 4.75 -1.30 3.20 0 4.75 0.45 4.75 1.30 0 0.55 -1.05 0.70 -4.75 0.70 -3.70 0 -4.75 -0.15 -4.75 -0.70z"/>
 </g>
 <g fill="#339f00">
  <path d="M47.95 113.05 c-5.75 -1.10 -7.65 -1.95 -7.85 -3.40 -0.25 -1.70 -1.40 -2.40 -2.90 -1.70 -0.70 0.30 -1.50 0.55 -1.85 0.55 -1.85 0 4.75 -3.70 9.40 -5.25 6.55 -2.20 15.30 -2.80 21.50 -1.50 1.95 0.40 4.20 0.85 5 1 1.65 0.35 2.05 0.50 6.80 2.70 1.85 0.85 3.65 1.90 4 2.40 0.60 0.75 0.60 0.80 -0.20 0.50 -2.95 -1.10 -3.35 -1.05 -4.10 0.85 -0.40 0.95 -1.15 2 -1.65 2.25 -4.30 2.30 -19.90 3.20 -28.15 1.60z"/>
  <path d="M16.05 92.65 c-4.85 -6.55 -8.65 -15.20 -10.10 -23.35 -0.85 -4.95 -0.30 -16.35 1.05 -21.80 2.35 -9.20 7.75 -18.30 15 -25.15 7.85 -7.50 16.20 -11.95 26.35 -14.10 4 -0.85 15.45 -1 20.15 -0.20 6.40 1 14.15 4.20 20.40 8.30 6.85 4.55 14.50 13.40 18.50 21.40 6.85 13.85 6.85 32.30 0 45.95 -2 4.05 -5.45 9.20 -7.30 11 l-1.55 1.40 -3.75 -2.50 c-3.20 -2.15 -10.35 -5.90 -13.55 -7.10 -4.10 -1.60 -11.90 -3.50 -14.15 -3.50 -2.25 0 -4.60 -0.55 -4.60 -1.10 0 -0.70 11.55 -14.95 12.40 -15.25 0.40 -0.20 1.05 0.10 1.45 0.65 3.55 4.90 12.45 15.70 12.90 15.70 0.80 0 3.95 -5.70 5.35 -9.75 2.05 -5.80 2.70 -11.55 1.95 -16.90 -0.85 -5.95 -2.15 -9.75 -4.90 -14.50 -3.95 -6.80 -9.65 -12.05 -16.40 -15.10 -8.30 -3.80 -16.60 -4.65 -25.05 -2.50 -11.55 2.95 -20 9.50 -25.10 19.55 -2.65 5.20 -4.45 14.10 -3.95 19.50 0.60 6.40 3.50 14.90 6.15 18.10 l0.95 1.20 4.35 -5.50 c6.60 -8.25 6.95 -8.60 9.30 -8.60 1.95 0 2.05 0.10 7.35 6.85 5.80 7.45 5.80 7.55 1.65 7.60 -2.45 0.05 -9.85 1.70 -11.50 2.60 -0.50 0.25 -1.25 0.45 -1.65 0.45 -0.40 0 -1.15 0.20 -1.65 0.45 -0.45 0.25 -2.85 1.40 -5.30 2.55 -2.45 1.20 -5.90 3.15 -7.70 4.35 -1.75 1.25 -3.50 2.35 -3.85 2.45 -0.35 0.15 -1.75 -1.25 -3.20 -3.15z m5.85 -4.65 c1.25 0 1.30 -0.15 0.55 -1.60 -0.40 -0.70 -0.40 -1.15 0 -1.55 0.95 -0.95 0.60 -1.40 -0.70 -1.05 -0.90 0.20 -1.60 0.05 -2.25 -0.55 -0.95 -0.85 -1 -0.85 -1 0.20 0 0.65 -0.50 1.55 -1.10 2.05 l-1.15 0.90 1.40 0.55 c0.90 0.35 1.35 0.90 1.35 1.60 0 1.05 0.05 1.05 0.90 0.30 0.50 -0.50 1.40 -0.85 2 -0.85z m77.55 -1 l1.30 0 -1.15 -0.90 c-0.90 -0.70 -1.10 -1.20 -0.85 -2.25 0.40 -1.55 0 -1.70 -1.35 -0.50 -0.80 0.70 -1.10 0.75 -2 0.20 -0.95 -0.60 -0.95 -0.55 -0.65 0.85 0.20 1 0.05 1.65 -0.50 2.10 -1.05 0.90 -0.95 1.45 0.30 1.15 0.70 -0.20 1.25 0.10 1.85 0.90 l0.85 1.20 0.45 -1.40 c0.35 -1 0.85 -1.35 1.75 -1.35z m1.05 -10.75 c0.55 -1.50 0.40 -1.45 3.55 -0.45 1.85 0.60 2.65 0.70 3.05 0.30 0.70 -0.70 -3.05 -2.50 -5.60 -2.70 -1.45 -0.15 -1.70 0 -2.25 1.70 -0.40 1 -0.55 1.95 -0.40 2.10 0.60 0.60 1.20 0.25 1.65 -0.95z m-85.90 0.05 c1.55 -0.40 3.05 -0.85 3.35 -1.05 1.15 -0.65 0.50 -1.25 -1.40 -1.25 -1.10 0 -2.10 -0.20 -2.25 -0.45 -0.50 -0.80 0.30 -2.10 1.55 -2.60 0.70 -0.25 1.15 -0.75 1 -1.10 -0.25 -0.70 -1.55 -0.60 -5.25 0.45 -3 0.85 -3.30 1.95 -0.55 1.95 1.45 0 1.70 0.20 1.85 1.25 0.10 0.90 -0.20 1.40 -0.95 1.75 -1.30 0.55 -1.85 1.75 -0.85 1.75 0.35 -0.05 1.95 -0.35 3.50 -0.70z m92.55 -6.35 c1.35 -0.35 1.85 -0.75 1.85 -1.50 0 -0.55 -0.40 -1.15 -0.85 -1.30 -0.50 -0.20 -2 -0.95 -3.30 -1.75 -1.30 -0.75 -2.60 -1.40 -2.85 -1.40 -0.75 0 -0.60 1.30 0.25 2 1.10 0.95 0.90 2.30 -0.50 3.20 -2.85 1.85 -0.30 2.20 5.40 0.75z m-91.55 -4.60 c-1.25 -1.35 -1.45 -2.75 -0.35 -3.15 0.40 -0.20 0.75 -0.65 0.75 -1.05 0 -0.60 -0.35 -0.70 -1.45 -0.50 -1.80 0.40 -5.95 2.30 -6.35 2.95 -0.55 0.85 0.90 1.75 4.30 2.80 3.70 1.15 4.80 0.75 3.10 -1.05z m93.90 -5.30 c0 -3.25 -0.70 -4.35 -1.50 -2.35 -0.45 1.20 -0.70 1.30 -3.50 1.30 -2.75 0 -3 0.10 -3 1.05 0 1 0.15 1.05 3 0.75 2.90 -0.35 3 -0.30 3.60 0.95 0.90 2.05 1.40 1.45 1.40 -1.70z m-93.15 -2.35 c0.10 -0.35 -0.40 -0.70 -1.10 -0.90 -1.25 -0.30 -1.80 -1.80 -0.60 -1.80 0.90 -0.05 3.15 -1.85 2.75 -2.25 -0.20 -0.20 -1.10 -0.10 -2.10 0.25 -1.45 0.45 -1.95 0.40 -3 -0.25 -0.95 -0.65 -1.45 -0.70 -2.25 -0.30 -1.10 0.60 -1.95 3.85 -1.25 4.55 0.50 0.45 5.50 1.45 6.65 1.30 0.40 0 0.80 -0.30 0.90 -0.60z m89.80 -3.20 c2.65 -0.55 3.45 -1.10 2.45 -1.70 -0.70 -0.40 -6.60 0.60 -7.40 1.25 -0.60 0.50 -0.60 0.70 -0.10 1 0.35 0.25 1 0.35 1.40 0.20 0.40 -0.10 2.05 -0.45 3.65 -0.75z m-89.15 -4.75 c1.85 -0.95 2.70 -3.60 1.60 -4.85 -0.95 -1.10 -3.40 -1.20 -3.80 -0.10 -0.55 1.50 -0.30 1.80 1.20 1.45 1.60 -0.35 1.90 0.05 0.90 1.35 -0.45 0.60 -1.10 0.75 -2.05 0.55 -1.80 -0.35 -2.65 -1.85 -1.90 -3.50 0.70 -1.55 0.70 -1.65 -0.20 -1.65 -1.70 0 -2.40 4.25 -0.85 5.65 0.70 0.65 2.60 1.65 3.50 1.80 0.10 0.05 0.80 -0.30 1.60 -0.70z m89.40 0.15 c0.90 -0.90 0.75 -4.85 -0.15 -5.20 -1.10 -0.45 -7.25 1.75 -7.25 2.60 0 0.40 0.50 0.70 1.30 0.70 0.80 0 1.80 0.55 2.50 1.25 1.25 1.35 2.65 1.60 3.60 0.65z m-5.70 -6.70 c0.45 -0.40 0.80 -1.45 0.80 -2.25 0 -1.70 0.70 -1.90 1.50 -0.45 0.70 1.30 1.50 1.25 1.50 -0.10 0 -1.25 -1.35 -2.90 -2.40 -2.90 -1.35 0 -2.60 1.60 -2.60 3.35 0 2.05 -0.90 2.15 -1.60 0.15 -0.50 -1.55 -1.55 -1.80 -1.80 -0.45 -0.20 1.10 1.80 3.45 2.90 3.45 0.50 0 1.30 -0.35 1.70 -0.80z m-78.95 -2.45 c1.10 -1.95 0.70 -2.80 -0.65 -1.60 -1.50 1.35 -2.25 1.10 -1.95 -0.65 0.40 -1.75 -0.40 -2.45 -1.15 -1 -0.30 0.55 -0.90 1 -1.30 1 -0.60 0 -0.70 -0.35 -0.45 -1.50 0.45 -1.95 -0.30 -1.90 -1.45 0.10 -1.10 1.80 -1.35 1.40 2.70 4.15 2.40 1.60 3.20 1.55 4.25 -0.50z m76.80 -4.70 c1.80 -1.80 1.85 -3.65 0.20 -5.30 -1.40 -1.45 -3 -1.60 -4.75 -0.45 -2.85 1.90 -3.15 3.35 -1.20 5.65 1.70 2.05 3.75 2.10 5.75 0.10z m-73.80 0.05 c0 -0.70 -5.20 -4.60 -6.15 -4.60 -1.30 0 -0.35 1.40 2.40 3.45 2.65 2 3.75 2.35 3.75 1.15z m3 -3.40 c2.40 -2.60 1.20 -4.50 -2.45 -3.95 -2.50 0.40 -2.90 -0.05 -1.30 -1.50 1.05 -0.95 0.90 -1.75 -0.25 -1.75 -1.20 0 -2.40 2.30 -2.05 3.80 0.35 1.25 0.50 1.30 2.60 1.05 2.65 -0.30 3.20 0.30 1.75 1.85 -1 1.05 -0.95 1.80 0.05 1.80 0.25 0 1 -0.60 1.65 -1.30z m63.65 -4.15 c1.15 -1.40 2.10 -2.85 2.10 -3.25 0 -1 -1.45 -1.05 -1.80 -0.05 -0.40 1 -2.15 0.95 -2.55 -0.05 -0.15 -0.45 -0.05 -1.25 0.25 -1.75 0.80 -1.25 0.75 -1.95 -0.10 -1.95 -0.80 0 -5.30 5.05 -5.30 5.95 0 0.90 1.25 0.65 2.25 -0.45 1.10 -1.20 1.90 -1.25 2.75 -0.25 0.50 0.60 0.45 1 -0.20 2 -2.05 3.15 -0.20 3 2.60 -0.20z m-59.90 -0.50 c0 -1.90 1 -2.65 2.95 -2.25 2.35 0.50 1.95 -0.50 -1.20 -2.80 -2.65 -1.95 -4.40 -2.50 -5 -1.50 -0.25 0.45 1.35 6.45 2.05 7.55 0.55 0.95 1.20 0.40 1.20 -1z m45.20 -6.60 c0.55 -0.80 1.05 -1 1.90 -0.80 1.60 0.40 3.40 -0.85 3.40 -2.40 0 -1.30 -3.05 -3.60 -4 -3 -0.75 0.45 -3 5.25 -3 6.35 0 1.20 0.80 1.15 1.70 -0.15z m-31.15 -0.40 c1.15 -0.95 1.15 -1.05 0.45 -2.40 -0.85 -1.55 -2.30 -2.05 -3.20 -1.15 -0.40 0.40 -0.25 0.75 0.60 1.45 1.05 0.80 1.10 0.95 0.35 1.55 -0.65 0.55 -0.95 0.50 -2 -0.50 -1.80 -1.70 -1.60 -3.20 0.65 -4.55 1.65 -1.05 1.75 -1.15 0.75 -1.35 -1.40 -0.20 -3.60 1.25 -4.20 2.75 -1.40 3.65 3.50 6.75 6.60 4.20z m27.05 -2.55 c1.15 -2.40 1.40 -5.25 0.45 -5.25 -0.45 0 -0.95 0.90 -1.30 2.30 -0.80 2.95 -1.10 3.45 -2.25 3.45 -1.25 0 -1.40 -0.80 -0.70 -3.85 0.60 -2.50 0.30 -3.60 -0.75 -2.95 -0.50 0.30 -1.55 4.25 -1.55 5.75 0 1.60 1.40 2.60 3.45 2.45 1.50 -0.10 1.95 -0.45 2.65 -1.90z m-22.20 0.25 c-0.35 -1.75 0.25 -1.95 1.60 -0.50 0.65 0.70 1.45 1.25 1.85 1.25 0.90 0 0.85 -1.25 -0.10 -2 -0.50 -0.40 -0.75 -1.35 -0.65 -2.45 0.05 -1.05 -0.10 -2.10 -0.30 -2.45 -0.40 -0.65 -4.60 -0.85 -5 -0.20 -0.15 0.20 0 2 0.30 4 0.50 3.05 0.75 3.60 1.55 3.60 0.75 0 0.90 -0.25 0.75 -1.25z m12.10 -0.15 c0.65 -0.50 1.15 -1.65 1.35 -2.95 0.25 -1.75 0.10 -2.25 -1 -3.35 -1.40 -1.40 -2.80 -1.65 -4.50 -0.75 -1.55 0.85 -1.85 1.40 -1.85 3.60 0 3.50 3.45 5.50 6 3.45z"/>
  <path d="M104.15 68.25 c-0.15 -0.45 -0.15 -0.90 0 -1.05 0.35 -0.40 2.35 0.75 2.35 1.30 0 0.80 -2 0.55 -2.35 -0.25z"/>
  <path d="M10.75 64.50 c-0.45 -0.75 0.20 -1.50 1.30 -1.50 0.60 0 0.95 0.35 0.95 1 0 1.05 -1.65 1.45 -2.25 0.50z"/>
  <path d="M10.20 55.45 c-0.45 -0.75 0.55 -1.65 1.50 -1.30 0.45 0.20 0.65 0.65 0.50 1.10 -0.35 0.85 -1.50 1 -2 0.20z"/>
  <path d="M103.70 47.95 c-0.45 -0.80 0.60 -1.65 1.55 -1.25 0.70 0.25 0.75 0.45 0.25 1.05 -0.75 0.90 -1.30 0.95 -1.80 0.20z"/>
  <path d="M93.90 35.15 c-1.65 -1.90 1.05 -4.80 3.40 -3.70 1.55 0.70 1.50 1.55 -0.20 3.20 -1.65 1.60 -2.15 1.65 -3.20 0.50z"/>
  <path d="M30.15 24.25 c-0.15 -0.45 -0.15 -0.95 0.05 -1.10 0.35 -0.35 1.80 0.80 1.80 1.40 0 0.75 -1.50 0.50 -1.85 -0.30z"/>
  <path d="M78.10 18.15 c0.10 -0.50 0.50 -0.90 0.90 -0.90 0.40 0 0.80 0.40 0.90 0.90 0.10 0.60 -0.15 0.85 -0.90 0.85 -0.75 0 -1 -0.25 -0.90 -0.85z"/>
  <path d="M49.70 14.95 c-0.50 -0.85 0.65 -1.80 1.35 -1.10 0.60 0.60 0.20 1.65 -0.55 1.65 -0.25 0 -0.60 -0.25 -0.80 -0.55z"/>
  <path d="M58.80 16.90 c-1.10 -1.55 -1 -2.70 0.30 -3.60 1.55 -1.10 2.90 -0.20 2.90 1.85 0 2.80 -1.80 3.75 -3.20 1.75z"/>
  <path d="M132.45 94.15 c-0.70 -0.10 -2.05 -1 -3 -1.95 -1.65 -1.70 -1.70 -1.90 -1.70 -5.50 0 -3.75 0 -3.80 2.05 -5.65 2.35 -2.25 5.75 -3.05 8.05 -1.95 2.55 1.25 1.95 1.85 -1.80 1.75 -3.25 -0.10 -3.65 0 -4.90 1.30 -1.25 1.20 -1.40 1.75 -1.40 4.65 0 3 0.15 3.40 1.45 4.50 1.15 1.05 1.85 1.20 4 1.10 l2.55 -0.15 0.15 -2.10 c0.15 -2.05 0.10 -2.10 -1.50 -2.25 -1.05 -0.10 -1.65 -0.40 -1.65 -0.90 0 -0.55 0.70 -0.80 2.65 -0.90 l2.60 -0.15 0 3.75 c0 2.05 -0.15 3.85 -0.35 3.95 -0.65 0.40 -5.80 0.75 -7.20 0.50z"/>
  <path d="M195.90 94.15 c-0.75 -0.10 -1.95 -0.90 -2.65 -1.70 -1.20 -1.45 -1.25 -1.85 -1.25 -7.50 0 -5.60 0.05 -5.95 1 -5.95 0.95 0 1 0.35 1 5.75 0 5.10 0.10 5.85 1 6.75 1.55 1.55 4.65 1.35 5.95 -0.30 0.90 -1.15 1.05 -2.05 1.05 -6.80 0 -4.95 0.10 -5.45 0.90 -5.30 0.75 0.15 0.85 0.85 0.85 6.05 l0 5.85 -1.50 1.50 c-1.60 1.55 -3.70 2.10 -6.35 1.65z"/>
  <path d="M271 94.15 c-2.85 -0.55 -5 -3.85 -5 -7.65 0 -4.80 2.55 -7.50 7 -7.50 2.35 0 2.80 0.20 4.55 1.95 1.90 1.90 1.95 2 1.95 5.70 0 3.30 -0.15 3.95 -1.25 5.30 -0.70 0.80 -1.70 1.60 -2.15 1.75 -1.75 0.45 -3.90 0.65 -5.10 0.45z m5.70 -3.20 c1.10 -1.25 1.30 -2.05 1.30 -4.55 0 -2.65 -0.15 -3.15 -1.45 -4.45 -1.15 -1.15 -1.90 -1.45 -3.55 -1.45 -1.65 0 -2.40 0.30 -3.55 1.45 -1.30 1.30 -1.45 1.80 -1.45 4.55 0 2.35 0.25 3.45 1.05 4.55 0.90 1.30 1.30 1.45 3.70 1.45 2.35 0 2.80 -0.15 3.95 -1.55z"/>
  <path d="M289.60 94 c-2.15 -0.90 -1 -1.75 2.20 -1.60 2.50 0.15 3.10 0 3.95 -0.90 1.25 -1.35 0.65 -2.40 -2.25 -3.85 -3.20 -1.65 -4.50 -3.05 -4.50 -4.90 0 -3.20 4.90 -5.40 7.75 -3.55 1.95 1.30 1.55 1.95 -0.95 1.60 -1.20 -0.20 -2.80 -0.20 -3.50 0 -1.15 0.25 -1.35 0.55 -1.20 1.90 0.15 1.35 0.55 1.75 3.05 3.05 1.60 0.85 3.10 1.85 3.35 2.25 0.90 1.40 0.55 3.75 -0.65 4.95 -1.35 1.25 -5.40 1.85 -7.25 1.05z"/>
  <path d="M150 86.50 l0 -7.50 3.30 0 c2.95 0 3.40 0.15 4.75 1.45 1.80 1.80 1.85 3.50 0.20 5.45 -1.60 1.90 -1.55 2.25 0.25 4.95 1.75 2.55 1.85 3.15 0.65 3.15 -0.60 0 -1.45 -1.05 -2.40 -2.85 -1.15 -2.20 -1.85 -2.95 -3 -3.25 -1.95 -0.50 -2.35 0.20 -2 3.50 0.25 2.35 0.15 2.60 -0.75 2.60 -0.95 0 -1 -0.30 -1 -7.50z m6.40 -0.80 c1.20 -0.85 1.50 -3.25 0.50 -4.10 -1.15 -0.95 -4.45 -1.30 -4.95 -0.55 -0.50 0.80 -0.60 3.50 -0.15 4.65 0.40 1.05 3.10 1.05 4.60 0z"/>
  <path d="M170.55 92.15 c-3.20 -3.90 -2.40 -10.25 1.60 -12.50 1.70 -0.95 5.25 -0.80 7.10 0.35 4.10 2.55 4.35 9.85 0.50 12.90 -1.10 0.85 -2.05 1.10 -4.55 1.10 -3 0 -3.20 -0.10 -4.65 -1.85z m7.35 0.10 c1.60 -0.45 2.60 -2.75 2.60 -5.95 0 -4.95 -3.55 -7.30 -7.55 -4.95 -2.50 1.50 -3.25 5.95 -1.50 9.15 1.20 2.25 3 2.75 6.45 1.75z"/>
  <path d="M214 86.50 l0 -7.50 2.90 0 c5.05 0 7.40 2.55 5.85 6.35 -0.65 1.60 -2.40 2.40 -5.75 2.75 -1.20 0.15 -1.25 0.30 -1.15 3.05 0.10 2.50 0 2.85 -0.90 2.85 -0.90 0 -0.95 -0.40 -0.95 -7.50z m6.40 -0.80 c1.35 -0.90 1.50 -3.20 0.25 -4.30 -1.20 -1.05 -4.55 -1.40 -4.90 -0.50 -0.35 0.95 -0.30 4.35 0.05 5.35 0.35 0.90 2.65 0.65 4.60 -0.55z"/>
  <path d="M245 86.45 c0 -6.90 0.05 -7.50 0.90 -7.35 0.65 0.10 0.90 0.80 1.10 3.15 l0.25 3 3.25 0 c3.25 0 3.25 0 3.40 -1.50 0.30 -3.40 0.65 -4.75 1.35 -4.75 1.10 0 1.30 1.60 1.15 8.50 -0.15 5.85 -0.20 6.25 -1.15 6.25 -0.90 0 -1 -0.40 -1.15 -3.35 l-0.15 -3.40 -3.45 0 -3.50 0 0 3.50 c0 3.15 -0.10 3.50 -1 3.50 -0.95 0 -1 -0.35 -1 -7.55z"/>
  <path d="M307.45 93.80 c-0.10 -0.10 -0.10 -3.45 0.05 -7.40 l0.25 -7.15 2.45 -0.15 c5.60 -0.35 8.60 3.40 5.65 7.05 -0.90 1.15 -1.65 1.50 -3.60 1.70 -1.40 0.15 -2.65 0.55 -2.85 0.85 -0.20 0.30 -0.40 1.60 -0.40 2.95 0 1.60 -0.20 2.35 -0.65 2.35 -0.40 0 -0.80 -0.10 -0.90 -0.20z m6.65 -8.15 c2.20 -1.95 0.40 -5.15 -2.90 -5.15 -1.70 0 -2.20 0.65 -2.20 3 0 2.40 0.45 3 2.40 3 0.95 0 2.20 -0.35 2.70 -0.85z"/>
  <path d="M342 87.75 c0 -5.80 -0.05 -6.25 -1.05 -6.75 -0.55 -0.35 -1.60 -0.45 -2.25 -0.30 -1.50 0.40 -2.25 0 -1.85 -0.95 0.20 -0.60 1.40 -0.75 5.70 -0.75 5.20 0 5.45 0.05 5.45 1.05 0 0.90 -0.25 1 -2.10 0.85 l-2.15 -0.15 -0.15 6.65 c-0.10 5.40 -0.25 6.60 -0.85 6.60 -0.60 0 -0.75 -1.10 -0.75 -6.25z"/>
  <path d="M355 93.15 c0 -0.55 0.20 -1.15 0.45 -1.40 0.25 -0.30 1.40 -2.95 2.55 -6 1.20 -3 2.45 -5.85 2.85 -6.25 0.65 -0.65 0.80 -0.65 1.30 0.25 0.35 0.55 1.05 2.25 1.65 3.75 0.60 1.50 1.75 4.45 2.65 6.50 0.85 2.05 1.55 3.80 1.55 3.90 0 0.05 -0.40 0.10 -0.90 0.10 -0.60 0 -1.15 -0.70 -1.65 -2.10 l-0.80 -2.15 -3.05 -0.15 c-3 -0.15 -3.10 -0.10 -3.60 1.25 -0.75 2.15 -1.30 2.90 -2.20 3.05 -0.50 0.10 -0.80 -0.15 -0.80 -0.75z m8.50 -5.75 c0 -1 -1.65 -5.40 -2.05 -5.40 -0.55 0 -2.05 4.50 -1.75 5.25 0.35 0.95 3.80 1.05 3.80 0.15z"/>
  <path d="M376.50 86.45 c0 -6.90 0.05 -7.50 0.90 -7.35 0.75 0.15 0.90 1 1.10 6.65 l0.25 6.50 3.15 0.15 c2.30 0.10 3.10 0.35 3.10 0.85 0 0.60 -0.85 0.75 -4.25 0.75 l-4.25 0 0 -7.55z"/>
  <path d="M57.20 64.90 c-0.15 -0.55 -0.15 -1.70 0 -2.60 0.25 -1.15 0.10 -1.85 -0.45 -2.30 -0.95 -0.80 -0.95 -2.20 0 -3 0.65 -0.50 0.55 -0.80 -0.50 -2.20 -1.40 -1.85 -1.50 -2.65 -0.55 -3.95 0.40 -0.50 0.60 -1.35 0.45 -1.90 -0.20 -0.70 -0.10 -0.90 0.50 -0.65 0.80 0.30 0.90 0.05 1.60 -3.40 0.10 -0.60 -0.15 -0.90 -0.80 -0.90 -0.55 0 -0.95 -0.35 -0.95 -0.80 0 -1.15 3.70 -0.75 3.90 0.45 0.10 0.50 -0.15 0.85 -0.65 0.85 -0.65 0 -0.80 0.40 -0.65 1.85 0.20 2.20 0.95 2.60 2.35 1.20 1.05 -1.05 1.05 -1.05 1.05 -0.05 0 0.55 -0.40 1.25 -0.95 1.55 -0.90 0.60 -0.90 2.45 0 2.45 0.85 0 0.45 2.35 -0.55 3.25 -1.05 0.95 -1.35 2.25 -0.50 2.25 0.70 0 0.65 2.85 -0.05 3.30 -0.30 0.15 -0.45 0.90 -0.30 1.60 0.35 1.75 -0.35 3.40 -1.60 3.75 -0.70 0.15 -1.10 -0.05 -1.35 -0.75z m3.60 -13.15 c-0.15 -0.40 -0.60 -0.75 -1.05 -0.75 -1.05 0 -0.95 1.90 0.15 2.10 0.95 0.20 1.30 -0.30 0.90 -1.35z"/>
  <path d="M58.25 41.50 c-0.20 -0.35 -0.45 -3.35 -0.55 -6.70 -0.05 -3.30 -0.30 -6.65 -0.45 -7.35 -0.25 -0.95 -0.10 -1.40 0.45 -1.60 1.90 -0.75 2.05 -0.10 1.90 7.55 -0.20 7.25 -0.55 9.40 -1.35 8.10z"/>
 </g>
 <g fill="#009300">
  <path d="M158 93.20 c0 -0.45 0.35 -0.70 0.85 -0.60 1.25 0.25 1.40 1.40 0.20 1.40 -0.60 0 -1.05 -0.30 -1.05 -0.80z"/>
  <path d="M254.50 93.50 c0 -0.25 0.35 -0.50 0.75 -0.50 0.40 0 0.75 0.25 0.75 0.50 0 0.30 -0.35 0.50 -0.75 0.50 -0.40 0 -0.75 -0.20 -0.75 -0.50z"/>
  <path d="M307.50 93.50 c0 -0.25 0.35 -0.50 0.75 -0.50 0.40 0 0.75 0.25 0.75 0.50 0 0.30 -0.35 0.50 -0.75 0.50 -0.40 0 -0.75 -0.20 -0.75 -0.50z"/>
  <path d="M326.60 86.65 c0.10 -5.30 0.30 -7.35 0.80 -7.55 0.45 -0.15 0.60 1.55 0.60 7.35 0 6.45 -0.10 7.55 -0.75 7.55 -0.65 0 -0.75 -1.05 -0.65 -7.35z"/>
  <path d="M342 93.30 c0 -0.45 0.35 -0.80 0.80 -0.80 0.85 0 0.70 1.10 -0.20 1.40 -0.35 0.10 -0.60 -0.15 -0.60 -0.60z"/>
  <path d="M376.75 93.50 c-0.15 -0.25 -0.25 -0.50 -0.15 -0.50 0.10 -0.05 2 -0.10 4.30 -0.15 3 -0.05 4.10 0.05 4.10 0.55 0 0.75 -7.80 0.85 -8.25 0.10z"/>
  <path d="M170.20 91.70 c-0.45 -0.65 -0.70 -1.35 -0.50 -1.55 0.15 -0.15 0.30 -0.05 0.30 0.25 0 0.35 0.30 0.60 0.70 0.60 0.35 0 0.95 0.30 1.25 0.70 0.45 0.50 0.40 0.75 -0.20 1 -0.45 0.15 -1.05 -0.20 -1.55 -1z"/>
  <path d="M129.25 92 c-0.40 -0.65 -0.05 -1.20 0.70 -0.95 0.30 0.15 0.35 0.50 0.10 0.90 -0.30 0.50 -0.50 0.50 -0.80 0.05z"/>
  <path d="M266.25 89.50 c-0.15 -0.25 0.15 -0.50 0.70 -0.50 0.60 0 1.05 0.25 1.05 0.50 0 0.30 -0.30 0.50 -0.70 0.50 -0.40 0 -0.90 -0.20 -1.05 -0.50z"/>
  <path d="M295.05 88.50 c-2 -1.70 -1.85 -2.25 0.45 -1.75 1.30 0.30 2.50 1.70 2.50 3.05 0 0.60 -1.45 0 -2.95 -1.30z"/>
  <path d="M278 88 c0 -0.25 0.35 -0.50 0.75 -0.50 0.40 0 0.75 0.25 0.75 0.50 0 0.30 -0.35 0.50 -0.75 0.50 -0.40 0 -0.75 -0.20 -0.75 -0.50z"/>
  <path d="M150.20 87.20 c0.15 -0.45 0.30 -0.90 0.30 -1.05 0 -0.10 0.35 0.10 0.75 0.55 1 1 0.95 1.30 -0.30 1.30 -0.75 0 -0.95 -0.20 -0.75 -0.80z"/>
  <path d="M290.85 86.10 c-1.05 -1.15 -1.05 -1.60 -0.05 -1.60 0.40 0 0.65 0.20 0.50 0.45 -0.15 0.25 0.15 0.55 0.70 0.70 0.55 0.15 1 0.50 1 0.80 0 0.85 -1.25 0.65 -2.15 -0.35z"/>
  <path d="M105 86 c-0.60 -0.40 -0.55 -0.50 0.25 -0.50 0.85 0 0.85 -0.10 0.25 -0.50 -0.60 -0.40 -0.60 -0.50 0.25 -0.50 0.85 0 0.85 -0.10 0.25 -0.50 -0.65 -0.40 -0.60 -0.50 0.15 -0.50 1 0 1.05 0.35 0.20 1.85 -0.45 0.80 -0.80 1 -1.35 0.65z"/>
  <path d="M362.95 85.40 c0 -0.35 -0.10 -1.15 -0.25 -1.75 -0.30 -1.60 0.10 -1.45 1 0.45 1 1.90 1 1.90 0.05 1.90 -0.40 0 -0.75 -0.30 -0.80 -0.60z"/>
  <path d="M214 84.50 c0 -0.55 0.35 -1 0.75 -1 0.40 0 0.75 0.45 0.75 1 0 0.55 -0.35 1 -0.75 1 -0.40 0 -0.75 -0.45 -0.75 -1z"/>
  <path d="M277.85 84.15 c-0.30 -1.65 -0.15 -1.90 0.90 -1.50 0.95 0.40 1 2.85 0.05 2.85 -0.35 0 -0.80 -0.60 -0.95 -1.35z"/>
  <path d="M179.80 82.60 c-0.15 -0.45 -0.45 -1.15 -0.60 -1.45 -0.45 -1 1.20 -0.75 1.75 0.25 0.30 0.55 0.25 1.05 -0.20 1.45 -0.50 0.45 -0.70 0.40 -0.95 -0.25z"/>
  <path d="M57.25 62.90 c0.10 -1.30 0 -2.50 -0.25 -2.65 -0.30 -0.15 -0.50 -0.65 -0.50 -1.10 0 -0.60 0.35 -0.45 1.35 0.55 1.25 1.25 1.40 1.30 1.70 0.45 0.25 -0.60 0.40 -0.30 0.40 1 0.05 1.10 -0.30 2.25 -0.70 2.65 -0.65 0.70 -0.75 0.70 -0.75 0 0 -0.45 0.25 -0.80 0.55 -0.80 0.25 0 0.35 -0.20 0.20 -0.50 -0.55 -0.95 -1.20 -0.50 -1.75 1.15 -0.45 1.50 -0.50 1.45 -0.25 -0.75z"/>
  <path d="M19.50 63.25 c0 -0.80 0.30 -1.25 0.75 -1.25 0.45 0 0.75 0.45 0.75 1.25 0 0.80 -0.30 1.25 -0.75 1.25 -0.45 0 -0.75 -0.45 -0.75 -1.25z"/>
  <path d="M98.35 42.15 c-0.65 -0.60 -0.35 -1.65 0.40 -1.65 0.40 0 0.75 0.45 0.75 1 0 1 -0.55 1.30 -1.15 0.65z"/>
 </g>
 <g fill="#000000">
  <path d="M57.55 61.70 c-0.05 -0.60 -0.40 -1.35 -0.80 -1.70 -0.95 -0.80 -0.95 -2.20 0 -3 0.65 -0.50 0.55 -0.80 -0.50 -2.20 -1.45 -1.90 -1.50 -2.65 -0.50 -4 0.70 -0.90 0.60 -1.10 -1 -2.45 -1.85 -1.50 -2.20 -2.85 -1 -3.85 0.60 -0.50 0.40 -0.75 -1.35 -1.70 -2.60 -1.30 -3.35 -2.40 -2.40 -3.55 0.85 -1 6.05 -0.90 6.40 0.15 0.15 0.50 -0.45 0.65 -2.45 0.50 -3.10 -0.15 -3.75 0.50 -1.65 1.60 1 0.50 2.95 0.75 6.20 0.75 5 0 8 -0.80 8 -2.10 0 -0.60 -0.55 -0.70 -3.05 -0.40 -2.50 0.30 -3.05 0.25 -2.85 -0.30 0.35 -1.05 6.05 -1.25 6.85 -0.25 0.90 1.10 -0.05 2.55 -2.40 3.60 -1.65 0.70 -1.90 1 -1.50 1.75 0.85 1.65 0.50 2.90 -1.30 4.10 -1.55 1.05 -1.65 1.30 -1 1.85 1.05 0.90 0.95 3.20 -0.25 4.25 -1.05 0.95 -1.35 2.25 -0.50 2.25 0.75 0 0.60 2.15 -0.30 3.95 -0.60 1.20 -0.95 1.45 -1.45 1.05 -0.50 -0.40 -0.70 -0.35 -0.90 0.10 -0.15 0.35 -0.30 0.15 -0.30 -0.40z m2.40 -3.30 c0.05 -1.20 -1.95 -2.25 -2.50 -1.35 -0.70 1.10 -0.55 1.85 0.65 3.05 1.05 1.05 1.10 1.05 1.45 0.10 0.20 -0.50 0.40 -1.35 0.40 -1.80z m0.20 -3.85 c1.25 -2.10 1.05 -3 -0.75 -3.80 -1.55 -0.65 -1.70 -0.60 -2.50 0.40 -0.50 0.60 -0.90 1.25 -0.90 1.45 0 0.45 2.50 3.40 2.95 3.40 0.20 0 0.70 -0.65 1.20 -1.45z m0.35 -6.05 c1.55 -0.85 2.15 -2.30 1.25 -3.15 -1.05 -1.10 -5.75 -1.65 -6.30 -0.80 -0.95 1.50 -0.50 3 1.20 3.70 1.95 0.85 2.65 0.90 3.85 0.25z"/>
 </g>
 <g fill="#018103">
  <path d="M59.15 64.65 c-0.80 -0.30 -0.85 -1.65 -0.10 -1.65 0.40 0 0.35 -0.25 -0.10 -0.80 -0.55 -0.65 -0.70 -0.60 -1.30 0.65 l-0.65 1.40 0.30 -1.50 c0.20 -0.80 0.35 -1.75 0.35 -2.10 0 -0.40 0.30 -0.45 0.95 -0.10 0.80 0.45 1.10 0.30 1 -0.60 -0.05 -0.15 0.30 -0.30 0.65 -0.30 0.55 0 0.60 0.20 0.20 0.70 -0.30 0.35 -0.45 1.15 -0.30 1.75 0.35 1.45 -0.20 2.80 -1 2.55z"/>
 </g>
</svg>